<svg xmlns="http://www.w3.org/2000/svg" xmlns:xlink="http://www.w3.org/1999/xlink" width="976" height="684" baseProfile="tiny" version="1.2" viewBox="-639 44 976 684">
<style>
    path:not([stroke]) {
        stroke: black;
    }
    path:not([fill]) {
        fill: black;
    }
    @media (prefers-color-scheme: dark) {
        path:not([stroke]) {
            stroke: white;
        }
        path:not([fill]) {
            fill: white;
        }
    }
</style>
<path stroke="none" d="M-407.28 646.739c2.58-.526 5.121-1.308 7.739-1.577.421-.044.661.742 1.078.671 1.704-.292 3.192-1.442 4.902-1.696.714-.106 1.339.66 2.061.662.391.001.588-.591.974-.652 1.325-.208 2.69-.288 4.022-.132.711.084 1.282.668 1.978.837.656.159 1.356.241 2.022.132 1.037-.17 1.954-.915 3.004-.953.714-.027 1.3.906 2 .768.774-.152 1.065-1.268 1.813-1.517 1.007-.335 2.128-.275 3.181-.145.399.049.605.65 1.006.662.388.013.612-.607 1-.598.388.008.602.525.973.642.335.106.719.106 1.054 0 .371-.117.584-.634.973-.642.388-.009.611.598 1 .598s.612-.607 1-.598c.388.008.601.523.971.641.344.11.75.153 1.084.014 1.036-.431 1.833-1.389 2.916-1.679.387-.104.628.628 1.029.622.391-.006.592-.569.974-.651a4.927 4.927 0 0 1 2.052 0c.382.082.583.649.974.651.388.002.602-.525.973-.642a1.724 1.724 0 0 1 1.054 0c.368.126.577.557.944.685.343.119.74.118 1.09.021 1.665-.466 3.187-1.475 4.902-1.696.724-.093 1.307.796 2.037.802.714.006 1.287-.728 2-.768.388-.022.612.609 1 .598.39-.01.596-.553.974-.652.653-.17 1.357-.248 2.022-.131.705.124 1.282.668 1.978.836.657.159 1.357.247 2.022.132.704-.123 1.265-.776 1.977-.827.632-.045 1.208.726 1.818.553.794-.225 1.063-1.562 1.888-1.604.762-.039 1.12 1.069 1.799 1.415.46.235 1.042.467 1.523.278.798-.313 1.191-1.299 1.973-1.651.617-.277 1.352-.21 2.026-.147 2.344.217 4.648.78 6.994.984.413.036 1.418.089 1.213-.271-.453-.798-2.684-.76-2.259-1.573.475-.909 2.068-.172 3.078.007.388.068.569.596.948.704.651.186 1.349.146 2.026.146.677 0 1.372.028 2.026-.146.378-.1.584-.667.974-.651.713.028 1.286.831 1.997.769 3.362-.292 6.605-1.464 9.962-1.809.404-.042.626.552 1.011.681.346.116.738.107 1.092.022 1.99-.477 3.877-1.389 5.899-1.699.401-.062.633.636 1.039.634.388-.001.602-.525.973-.642a1.77 1.77 0 0 1 1.054 0c.381.123.6.675.999.663.549-.017.931-.642 1.471-.74 6.476-1.17 12.962-2.356 19.506-3.05.709-.076 1.284.737 1.997.769.404.019.638-.701 1.037-.632 1.708.296 3.216 1.381 4.926 1.666.399.066.605-.672 1.01-.676.708-.008 1.318.642 2.027.642.389 0 .602-.525.973-.642a1.786 1.786 0 0 1 1.054 0c.37.117.586.653.974.64.279-.01.2-.642.475-.691 4.797-.846 9.627-1.552 14.482-1.948.406-.033.627.557 1.014.685.334.11.723.114 1.055 0 .368-.127.577-.56.946-.686a1.688 1.688 0 0 1 1.054 0c.388.128.608.713 1.016.685 13.35-.906 26.694-1.993 39.994-3.47 4.024-.447 8.045-1.146 11.927-2.294.441-.131-1.032-.475-1.015-.935.013-.354.7-.123 1.054-.127.565-.006 1.169-.114 1.693.097.53.214.733 1.127 1.304 1.112.764-.02 1.193-1.159 1.956-1.196 1.064-.051 1.99.833 3.048.956 1.332.155 2.699.087 4.022-.133.386-.064.555-.688.947-.695.708-.012 1.318.642 2.027.642.388 0 .602-.525.973-.642a1.724 1.724 0 0 1 1.054 0c.368.126.577.557.944.685.343.119.732.082 1.091.022 4.977-.835 9.89-2.069 14.896-2.704.422-.053.66.729 1.082.677 2.355-.294 4.565-1.379 6.92-1.674.403-.05.625.551 1.01.679.346.116.733.083 1.093.024 3.325-.546 6.584-1.536 9.94-1.836.711-.064 1.285.729 1.997.769.388.022.612-.609 1-.598.391.01.592.569.974.651a4.927 4.927 0 0 0 2.052 0c.382-.082.583-.649.974-.651.388-.002.601.522.97.641.347.112.736.098 1.093.023 2.317-.487 4.549-1.398 6.897-1.702.402-.052.625.55 1.01.679.346.116.73.059 1.093.026 16.636-1.529 33.218-3.732 49.895-4.709.884-.052 1.185 1.667 2.07 1.664 1.123-.005 1.895-1.221 2.918-1.686.324-.147.704-.123 1.06-.123 2.349.001 4.832-.659 7.046.127.865.307-1.805.775-2.26 1.573-.204.359.798.243 1.21.27.548.035 1.154.158 1.645-.086.889-.442 1.343-1.652 2.309-1.881 1.645-.39 3.393-.087 5.07.13.387.051.583.642.974.652.388.011.612-.622 1-.598.716.044 1.289.721 2.003.784 2.323.202 4.666.132 6.993 0a3.228 3.228 0 0 0 1.486-.483c.571-.352.843-1.179 1.492-1.354 1.295-.349 2.688-.277 4.022-.133.713.077 1.303.935 2.005.784.835-.18 1.131-1.481 1.972-1.641 1.025-.195 2.01.674 3.054.685.389.004.584-.634.973-.642.388-.009.612.607 1 .598.388-.008.602-.525.973-.642.335-.106.72-.106 1.054 0 .37.117.585.661.973.642.716-.034 1.29-.71 2.003-.784 2.203-.23 4.482.363 6.644-.117.966-.214 1.346-1.627 2.306-1.87.707-.178 1.319.73 2.047.771.388.022.612-.609 1-.598.39.01.587.6.974.651 1.661.222 3.35.139 5.026.148.887.005 1.837.228 2.66-.106.688-.28.872-1.297 1.55-1.605.286-.13.464.461.765.553.335.102.718.107 1.052.001.37-.117.584-.634.973-.642.388-.009.611.598 1 .598s.612-.622 1-.598c.716.044 1.287.765 2.003.784 9.66.244 19.335.393 28.99.001 5.352-.217 10.62-1.467 15.964-1.828.425-.028.66.731 1.083.679 2.355-.293 4.565-1.382 6.92-1.674.406-.05.615.599 1.014.689.667.15 1.383.144 2.052 0 .382-.082.583-.649.974-.651.406-.004.637.688 1.04.636 2.699-.351 5.254-1.539 7.963-1.807.708-.07 1.278.656 1.97.822.657.157 1.354.236 2.02.133 1.092-.17 2.089-.758 3.178-.94 4.575-.762 9.164-1.51 13.787-1.886.406-.033.627.556 1.014.684.334.11.716.092 1.055 0 .689-.189 1.262-.815 1.976-.828a1270.89 1270.89 0 0 1 44.993 0c.716.013 1.283.666 1.978.837.657.161 1.349.146 2.026.146.677 0 1.368.013 2.026-.146.693-.167 1.261-.812 1.974-.821.714-.01 1.286.771 2 .768.717-.003 1.288-.728 2.003-.784a51.355 51.355 0 0 1 7.99-.001c5.334.413 10.604 1.515 15.944 1.854.739.047 1.366-.754 2.105-.709 4.664.283 9.254 1.37 13.916 1.682.407.027.607-.697 1.014-.684 1.045.033 1.983.803 3.028.812.714.006 1.287-.728 2-.768.388-.022.612.607 1 .598.388-.008.584-.659.973-.642 1.044.044 1.982.803 3.027.812.714.006 1.286-.738 2-.768.388-.017.602.525.972.642.336.106.723.115 1.055-.001.37-.128.57-.588.947-.694.651-.184 1.349-.146 2.026-.146.677 0 1.374-.039 2.026.146.377.106.555.688.947.694.708.013 1.318-.644 2.027-.641.391.001.596.553.974.651.653.171 1.355.24 2.022.132.708-.115 1.288-.749 2.004-.783.388-.019.602.524.972.642.336.106.721.109 1.055 0 .385-.126.61-.742 1.01-.676 1.71.285 3.216 1.381 4.926 1.666.399.066.604-.672 1.009-.676.709-.008 1.341.815 2.028.642.831-.209 1.231-1.218 1.972-1.649.311-.181.749-.278 1.074-.121.822.396 1.249 1.654 2.161 1.682.786.024 1.093-1.157 1.767-1.562.295-.178.685-.166 1.026-.118.513.071 1.039.197 1.482.466.571.349.825 1.269 1.49 1.345 1.041.119 1.988-.734 3.031-.827 1.841-.164 3.957-.884 5.543.063 1.686 1.007 1.778 3.54 3.027 5.055 1.037 1.258 2.428 2.181 3.737 3.152.822.61 1.704 1.151 2.636 1.577.321.147.718.219 1.054.108 1.274-.419 2.67-.763 3.665-1.662.952-.86.806-2.664 1.887-3.354 2.78-1.774 6.162-2.359 9.172-3.706 2.702-1.209 5.45-2.372 7.953-3.955 1.084-.686 2.184-1.582 2.674-2.767.513-1.24.218-2.684.134-4.023-.033-.518-.218-1.035-.481-1.483-.688-1.172-1.248-2.533-2.346-3.333-1.536-1.118-3.454-1.602-5.256-2.202-2.68-.893-5.493-1.357-8.167-2.269-2.378-.811-4.677-1.842-6.961-2.89-2.027-.93-4.027-1.926-5.96-3.039-2.811-1.619-5.371-3.672-8.26-5.149-.61-.312-1.375-.235-2.05-.122-1.219.204-2.641.226-3.551 1.061-1.313 1.203-1.517 3.267-2.66 4.633-.202.241-.485-.456-.796-.505-.154-.024-.361.175-.333.328.414 2.272.891 4.544 1.621 6.735.14.42.514.815.939.941 2.63.786 5.453.848 8.049 1.742a16.23 16.23 0 0 1 4.942 2.735c.325.264-.802.296-1.221.299-15.663.097-31.33.299-46.991 0-1.05-.02-1.953-.925-3.003-.954-.732-.021-1.312.855-2.043.811-9.662-.584-19.257-2.037-28.915-2.682-.406-.028-.627.553-1.012.682-.346.116-.731.067-1.093.026-4.631-.53-9.224-1.424-13.874-1.736-.721-.048-1.34.663-2.063.667-.391.002-.596-.551-.974-.652-.654-.174-1.349-.144-2.026-.146-17.664-.043-35.333-.37-52.994.013-10.669.231-21.298 1.459-31.963 1.829-.408.014-.607-.686-1.016-.686-1.043 0-2.01.688-3.054.686-.392-.001-.564-.615-.947-.695-.987-.206-2.024-.274-3.023-.133-.709.1-1.282.666-1.977.837-.658.161-1.349.146-2.026.146-.677 0-1.374.034-2.026-.146-.395-.108-.608-.727-1.016-.692-4.018.346-7.94 1.522-11.961 1.81-.73.052-1.31-.867-2.038-.809-3.016.239-5.908 1.378-8.918 1.678-.425.042-.658-.705-1.084-.681-5.657.315-11.257 1.368-16.915 1.684-.407.022-.607-.679-1.015-.685-.709-.01-1.318.642-2.027.642-.389 0-.602-.525-.973-.642a1.726 1.726 0 0 0-1.054 0c-.368.127-.557.698-.946.686-1.044-.034-1.982-.803-3.027-.812-.714-.006-1.287.728-2 .768-.388.022-.611-.598-1-.598s-.612.604-1 .598c-.404-.006-.64-.71-1.034-.628-1.393.288-2.54 1.369-3.932 1.658-.395.082-.63-.631-1.034-.628-.389.002-.602.524-.973.642-.335.106-.72.106-1.054 0-.37-.117-.585-.634-.973-.642-.388-.009-.612.607-1 .598-.389-.008-.602-.525-.973-.642a1.789 1.789 0 0 0-1.054 0c-.37.117-.585.642-.973.642s-.601-.522-.97-.642c-.347-.111-.731-.063-1.093-.024-10.97 1.189-21.905 2.715-32.895 3.708-.406.037-.634-.641-1.042-.64-.389 0-.602.525-.973.642-.335.106-.72.11-1.055 0-.387-.129-.607-.701-1.015-.686-8.65.321-17.264 1.351-25.914 1.686-.408.016-.635-.659-1.043-.642-.714.029-1.286.792-2 .768-1.047-.035-1.953-.903-3-.938-.714-.025-1.286.738-2 .768-.388.016-.584-.642-.973-.642-.709 0-1.318.642-2.027.642-.388 0-.601-.523-.97-.642a2.063 2.063 0 0 0-1.092-.021c-1.99.477-3.875 1.402-5.9 1.699-.42.062-.656-.7-1.08-.677-17.989.983-35.979 2.051-53.921 3.683-17.67 1.607-35.276 3.869-52.888 6.032-6.681.82-13.269 2.417-19.982 2.915-.695.051-.93-1.326-1.626-1.312-.682.014-.928 1.027-1.515 1.375-.298.177-.683.133-1.03.134-1.008 0-2.033.062-3.022-.133-.384-.075-.584-.641-.974-.651-.388-.011-.612.609-1 .598-.391-.011-.587-.601-.974-.652-1.349-.177-4.107-1.372-4.083-.011.027 1.487 5.19.702 4.114 1.728-1.461 1.393-4.043.292-6.054.121-.726-.062-1.314-.935-2.032-.808-1.105.196-1.895 1.22-2.917 1.685-.324.147-.704.123-1.06.122-.675-.002-1.367.039-2.02-.132-.378-.099-.584-.641-.974-.651-.388-.011-.612.607-1 .598-.389-.008-.584-.63-.973-.642-.633-.02-1.213.743-1.818.553-.705-.22-.801-1.492-1.532-1.602-.665-.1-1.007 1.113-1.679 1.119-.757.006-1.243-.983-1.993-1.09-.397-.057-.604.66-1.005.662-.391.002-.588-.589-.974-.652-1.011-.163-2.292-.663-3.073 0-.506.428 1.264.87 1.265 1.533.001.432-.848.409-1.263.29-.743-.212-1.208-1.114-1.973-1.214-.544-.072-.911.713-1.456.763-.532.049-.994-.531-1.526-.488-.712.056-1.286.768-2 .768s-1.286-.775-2-.768c-.731.007-1.312.873-2.041.807-2.682-.243-5.235-1.299-7.897-1.708a9.871 9.871 0 0 0-3.088.017c-.386.064-.583.65-.974.652-.407.003-.637-.684-1.041-.637-2.68.311-5.237 1.38-7.919 1.676-.406.045-.611-.621-1.014-.691-1.014-.174-2.08-.224-3.088-.016-3.35.693-6.537 2.08-9.901 2.702-.417.077-.657-.717-1.079-.674-6.33.644-12.562 2.101-18.895 2.706-.715.068-1.318-.696-2.036-.708-.709-.011-1.318.632-2.027.642-.388.006-.612-.598-1-.598-.389 0-.612.608-1 .598-.592-.015-1.078-.834-1.645-.666-.943.28-1.351 1.612-2.308 1.838-.706.168-1.295-.783-2.02-.814-.708-.03-1.318.644-2.027.642-.391-.001-.592-.569-.974-.651a4.927 4.927 0 0 0-2.052 0c-.382.082-.584.641-.974.651-.389.011-.735-.88-1.004-.598-.379.398.531 1.498.003 1.649-.728.208-1.242-1.079-1.999-1.079-.757 0-1.275 1.302-1.999 1.079-.537-.166.437-1.307.023-1.688-.497-.456-1.348-.21-2.02-.146a3.484 3.484 0 0 0-1.486.482c-.572.352-.913 1.012-1.492 1.353-.298.176-.683.129-1.03.134-2.664.039-5.337.213-7.993 0-.725-.058-1.301-.776-2.028-.805-.489-.019-.816.63-1.303.675-12.861 1.179-25.736 2.241-38.629 2.987-.41.023-.617-.604-1.017-.694a4.813 4.813 0 0 0-2.052 0c-.382.082-.584.666-.974.651-.713-.028-1.288-.85-1.997-.769-5.716.653-11.291 2.287-17.006 2.94-.709.081-1.285-.729-1.997-.769-.388-.023-.632.721-1.001.598-.808-.269-1.206-1.275-1.995-1.596-.27-.11-.686.778-.724.489a474.947 474.947 0 0 1-2.766-27.199c-.265-3.654-.215-7.333.001-10.99.062-1.045.779-1.984.828-3.03.018-.389-.634-.585-.642-.973-.009-.388.609-.612.598-1-.01-.391-.553-.596-.652-.974-.17-.654-.239-1.356-.131-2.022.115-.708.739-1.288.783-2.004.024-.388-.727-.634-.598-1.001.283-.807 1.434-1.142 1.641-1.972.172-.687-.664-1.319-.641-2.027.022-.714.778-1.286.768-2-.009-.713-.729-1.267-.821-1.974-.201-1.549-.365-3.157-.042-4.685.158-.751 1.192-1.081 1.414-1.815.158-.521-.478-1.052-.384-1.588.354-2.016 1.474-3.865 1.699-5.899.081-.729-.697-1.32-.819-2.043-.112-.666-.049-1.371.132-2.022.105-.377.708-.556.695-.947-.035-1.047-.708-1.99-.828-3.031a9.922 9.922 0 0 1 .132-3.022c.076-.383.642-.583.652-.974.011-.388-.598-.612-.598-1 0-.389.607-.612.598-1-.008-.408-.663-.635-.642-1.043.663-12.653 2.038-25.261 2.685-37.915.02-.409-.587-.62-.695-1.016-.177-.652-.239-1.355-.131-2.022.115-.708.749-1.288.783-2.004.019-.387-.522-.601-.641-.97-.113-.347-.063-.731-.026-1.093.534-5.296 1.432-10.56 1.736-15.874.042-.739-.754-1.366-.709-2.105.283-4.664 1.37-9.254 1.682-13.916.027-.407-.678-.607-.684-1.015-.01-.708.642-1.318.642-2.027 0-.389-.525-.602-.642-.973a1.717 1.717 0 0 1 0-1.054c.129-.37.588-.57.695-.947.185-.651.144-1.349.147-2.026.042-10.998.337-22.001-.013-32.993-.265-8.34-1.515-16.626-1.829-24.964-.027-.732.804-1.31.812-2.043.008-.714-.728-1.287-.768-2-.022-.388.598-.611.598-1s-.598-.612-.598-1c0-.389.598-.612.598-1 0-.389-.598-.611-.598-1s.598-.611.598-1c0-.388-.609-.612-.598-1 .01-.391.576-.591.651-.974.195-.99.211-2.017.133-3.023a3.471 3.471 0 0 0-.483-1.485c-.349-.585-1.372-.871-1.331-1.552.084-1.42 1.369-2.539 1.658-3.932.082-.395-.631-.631-.629-1.034.003-.408.671-.636.641-1.042-.323-4.33-1.359-8.586-1.682-12.916-.03-.406.632-.634.64-1.042.008-.388-.622-.612-.598-1 .044-.716.704-1.291.784-2.003.185-1.654.185-3.34 0-4.994-.08-.712-.74-1.287-.784-2.003-.024-.388.598-.612.598-1 0-.389-.598-.611-.598-1 0-.388.607-.612.598-1-.008-.388-.642-.584-.642-.973 0-.709.632-1.318.642-2.027.006-.388-.607-.612-.598-1 .008-.388.646-.584.642-.973-.011-1.043-.685-2.011-.686-3.054-.001-.407.726-.609.681-1.014-.299-2.681-1.441-5.231-1.676-7.919-.063-.728.8-1.309.807-2.04.007-.714-.738-1.287-.768-2-.017-.387.522-.601.641-.97.113-.347.057-.73.026-1.093-.539-6.295-1.427-12.564-1.736-18.874-.035-.718.707-1.317.711-2.036.005-1.043-.685-2.011-.686-3.055 0-.407.72-.608.683-1.014-.637-7-2.043-13.916-2.679-20.917-.039-.424.693-.657.678-1.082-.083-2.396-.747-4.739-.962-7.126-1.012-11.254-2.059-22.51-2.718-33.791-.024-.407.555-.626.684-1.013.114-.343.152-.75.013-1.084-.431-1.036-1.481-1.812-1.679-2.916-.128-.715.795-1.303.792-2.029-.004-1.045-.781-1.983-.812-3.027-.011-.392.615-.564.695-.947.206-.987.212-2.017.132-3.023-.037-.461-.06-1.105-.478-1.303-.354-.168-.627.515-1.009.599-.151.032-.413-.163-.35-.303.478-1.052 1.826-1.791 1.825-2.947-.002-1.772-1.58-3.236-1.833-4.99-.133-.928.908-1.798.725-2.717-.144-.723-1.278-.877-1.575-1.551-.127-.288.563-.451.553-.766-.022-.708-.631-1.317-.641-2.025-.006-.388.607-.612.598-1-.008-.388-.63-.584-.642-.973-.02-.633.726-1.208.554-1.818-.226-.794-1.617-1.062-1.605-1.887.011-.747 1.642-.763 1.655-1.51.017-1.067-1.332-1.746-1.584-2.783-.094-.389.541-.619.665-1a1.86 1.86 0 0 0 .019-1.088c-.506-1.683-1.565-3.207-1.831-4.944-.108-.705.739-1.284.769-1.997.017-.388-.646-.584-.642-.973.011-1.043.675-2.011.686-3.054.004-.389-.634-.585-.642-.973-.009-.388.598-.611.598-1s-.598-.611-.598-1 .607-.612.598-1c-.008-.389-.525-.602-.642-.973a1.77 1.77 0 0 1 0-1.054c.123-.382.763-.613.666-1.002-.271-1.09-1.377-1.851-1.646-2.942-.1-.406.718-.654.658-1.068-.294-2.03-1.382-3.891-1.67-5.922-.057-.404.618-.611.687-1.013a9.723 9.723 0 0 0 .018-3.088c-.472-3.126-1.131-6.224-1.888-9.293-.144-.585-.771-1.017-.803-1.618-.021-.399.54-.618.663-.998.113-.345.137-.745.019-1.088-.461-1.34-1.336-2.521-1.726-3.883-.192-.667-.14-1.406.013-2.084.09-.398.746-.609.687-1.013-.296-2.025-1.435-3.87-1.699-5.899-.093-.716.658-1.34.663-2.062.003-.389-.525-.602-.642-.973a1.755 1.755 0 0 1 0-1.054c.127-.387.732-.61.68-1.013-.304-2.348-1.437-4.544-1.702-6.897-.082-.73.83-1.372.688-2.092-.218-1.1-1.453-1.817-1.679-2.916-.145-.704.642-1.336.655-2.055.008-.388-.609-.612-.598-1 .01-.391.568-.593.651-.974.148-.68.182-1.411.015-2.086-.744-3.006-2.221-5.825-2.73-8.879-.176-1.055.827-2.059.729-3.124-.256-2.776-1.046-5.483-1.771-8.175-.522-1.941-1.439-3.76-1.963-5.701-.179-.665-.187-1.375-.13-2.06.065-.782-.258-2.075.493-2.302.768-.232 1.281.99 1.79 1.61.742.905 1.474 1.853 1.933 2.928.787 1.845 1.005 3.896 1.77 5.75.404.979.847 2.06 1.706 2.68 1.716 1.238 3.722 2.082 5.747 2.699.993.302 2.117.285 3.113-.004 1.273-.369 2.555-.967 3.486-1.91.913-.926 1.904-2.16 1.809-3.456-.174-2.373-1.334-4.622-2.551-6.666-.871-1.463-2.517-2.313-3.583-3.64-1.701-2.118-3.003-4.535-4.692-6.662-.828-1.042-1.802-1.972-2.833-2.813-2.808-2.29-5.52-4.764-8.664-6.567-.875-.501-2.024-.275-3.023-.133-1.256.18-2.532.483-3.65 1.085-.728.392-.968 1.428-1.706 1.799-.682.342-1.661-.243-2.28.203-1.32.952-2.329 2.322-3.16 3.721-1.38 2.324-1.963 5.074-3.414 7.354-.914 1.436-2.56 2.278-3.582 3.64-.999 1.332-1.469 3.004-2.424 4.368-1.386 1.98-3.142 3.68-4.574 5.629-.905 1.232-1.371 2.786-2.425 3.895-.216.228-.486-.446-.794-.506-.135-.027-.329.16-.293.293.103.375.526.605.642.977.103.335.288.872-.013 1.052-.475.285-1.509-.583-1.66-.05-.286 1.006.674 1.993.814 3.029.09.669.039 1.368-.132 2.022-.098.378-.777.604-.651.974.345 1.021 1.122 1.862 1.873 2.633.682.701 1.439 1.434 2.372 1.729.988.311 2.109.275 3.108 0 .988-.271 1.828-.949 2.636-1.577.784-.61 1.588-1.26 2.103-2.108 1.027-1.691 1.44-3.705 2.457-5.401.994-1.657 2.467-2.983 3.537-4.591.923-1.386 1.452-3.017 2.426-4.368.282-.391.994-1.137 1.251-.729 1.13 1.797 1.681 3.935 2.075 6.021 1.902 10.064 3.466 20.195 4.798 30.351.055.422-.722.659-.678 1.082 1.507 14.477 3.739 28.871 5.299 43.343 1.215 11.261 1.841 22.581 3.025 33.846.659 6.28 1.787 12.503 2.502 18.776.076.67.044 1.368-.133 2.019-.107.395-.728.608-.691 1.015.301 3.34 1.362 6.58 1.678 9.917.039.406-.641.635-.638 1.042.002.39.551.596.652.974.173.654.145 1.349.145 2.026 0 .677.034 1.373-.145 2.026-.108.394-.747.609-.688 1.013.296 2.024 1.506 3.862 1.699 5.899.1 1.055-.742 2.01-.849 3.065a15.803 15.803 0 0 0 .132 4.023c.061.386.642.583.652.974.011.388-.598.611-.598 1 0 .388.598.611.598 1 0 .388-.598.611-.598 1 0 .388.62.612.598 1-.04.712-.894 1.295-.769 1.998.256 1.428 1.383 2.568 1.832 3.948a4.3 4.3 0 0 1 .122 2.05c-.125.705-.689 1.278-.836 1.978-.142.681-.182 1.411-.015 2.086.413 1.676 1.321 3.204 1.734 4.88.167.675.139 1.408-.015 2.086-.09.398-.741.608-.687 1.013.623 4.683 2.052 9.236 2.674 13.92.056.423-.706.658-.681 1.084.367 6.338 1.609 12.612 1.841 18.957.378 10.325.21 20.667-.014 30.997-.014.643-.795 1.163-.697 1.799.106.686 1.052 1.008 1.232 1.678.138.513-.432 1.026-.363 1.553.093.708.703 1.273.827 1.977.119.675.086 1.4-.118 2.055-.422 1.353-1.307 2.53-1.732 3.882-.206.656-.129 1.371-.133 2.059-.007 1.216-.258 2.485.101 3.648.288.933 1.567 1.389 1.751 2.348.087.455-.957-.528-1.359-.297-.411.238-.632.903-.465 1.348.345.92 1.43 1.412 1.836 2.308.139.306-.035.861-.362.943-.378.096-.627-.508-1.007-.597-.135-.031-.366.176-.295.295.44.737 1.218 1.234 1.649 1.976.18.311.241.732.121 1.071-.256.721-1.198 1.193-1.196 1.957.002.767 1.008 1.219 1.206 1.96.179.666.055 1.401-.129 2.066-.105.379-.641.559-.704.948-.196 1.208-.403 2.502-.046 3.673.288.946 1.514 1.382 1.869 2.306.17.443-.042 1.132-.465 1.347-.349.178-.629-.51-1.01-.599-.135-.031-.365.176-.295.295.437.737 1.501 1.132 1.641 1.976.171 1.031-.802 1.983-.811 3.028-.006.714.738 1.286.768 2 .017.388-.525.602-.642.973a1.724 1.724 0 0 0 0 1.054c.127.368.7.557.686.946-.038 1.046-.72 1.989-.828 3.03a23.41 23.41 0 0 0 0 4.993c.08.713.75 1.288.784 2.004.019.388-.642.584-.642.973 0 .708.642 1.318.642 2.027 0 .388-.523.601-.641.971-.112.346-.098.735-.023 1.092.487 2.317 1.387 4.55 1.702 6.897.054.403-.629.634-.636 1.04-.008.388.598.611.598 1 0 .388-.622.612-.598 1 .044.716.668 1.296.783 2.004.108.666.039 1.368-.132 2.022-.098.378-.641.583-.651.974-.011.388.622.612.598 1-.044.716-.668 1.296-.783 2.004-.108.667-.039 1.368.131 2.022.099.378.642.583.652.974.011.388-.598.611-.598 1 0 .388.598.611.598 1s-.598.611-.598 1 .598.611.598 1c0 .388-.622.612-.598 1 .044.716.714 1.29.784 2.003a30.77 30.77 0 0 1 0 5.993c-.07.714-.784 1.287-.784 2.004 0 .717.714 1.29.784 2.003a30.77 30.77 0 0 1 0 5.993c-.07.714-.751 1.288-.784 2.004-.02.407.658.635.64 1.042-.175 3.94-.915 7.837-1.208 11.771-.938 12.631-1.287 25.308-2.485 37.917-.297 3.132-1.619 6.101-1.993 9.224-.085.71.633 1.331.644 2.046.006.388-.62.612-.598 1 .04.713.776 1.286.768 2-.008.711-.782 1.262-.812 1.973-.03.708.632 1.318.642 2.027.006.388-.622.612-.598 1 .044.716.692 1.292.784 2.003.13 1.001.062 2.033-.132 3.023-.076.383-.65.583-.652.974-.002.388.642.584.642.973 0 .708-.632 1.318-.642 2.027-.006.388.598.611.598 1 0 .388-.598.611-.598 1s.728.634.598 1c-.286.809-1.325 1.181-1.65 1.974-.26.633-.145 1.383-.001 2.052.082.382.649.583.651.974.002.388-.525.602-.642.973a1.724 1.724 0 0 0 0 1.054c.127.368.68.556.686.946.01.708-.641 1.318-.642 2.027-.001.406.683.636.634 1.039-.652 5.335-2.097 10.557-2.702 15.898-.081.718.66 1.34.666 2.063.003.388-.525.602-.642.973a1.786 1.786 0 0 0 0 1.054c.117.371.644.584.642.973-.002.391-.601.586-.652.974-.217 1.66-.287 3.355-.132 5.022.066.715.752 1.288.784 2.004.017.39-.576.591-.652.974-.194.989-.262 2.022-.132 3.023.092.711.752 1.287.784 2.003.017.39-.601.586-.652.974-.217 1.66-.287 3.355-.132 5.022.066.715.782 1.287.784 2.004.003.713-.822 1.285-.769 1.997.3 4.021 1.448 7.945 1.81 11.961.037.406-.631.634-.639 1.042-.008.388.598.611.598 1 0 .388-.62.612-.598 1 .04.712.874 1.292.769 1.997-.309 2.084-1.587 3.935-1.956 6.009-.291 1.638-.184 3.337.001 4.99.08.713 1.036 1.333.784 2.004-.466 1.243-2.091 1.769-2.65 2.974-.425.914-.297 2.027-.134 3.022.154.939.431 1.939 1.066 2.648 1.096 1.226 2.542 2.106 3.949 2.956 1.736 1.05 3.513 2.096 5.442 2.722.381.124.627-.617 1.028-.622.388-.004.612.621 1 .599.713-.04 1.286-.793 2-.768 1.047.035 1.953.902 3 .938.714.024 1.287-.728 2-.768.388-.022.612.622 1 .598.716-.044 1.296-.668 2.004-.783.667-.108 1.363-.017 2.022.131m388.019-28.323c-.679.053-1.359.223-2.036.158-.464-.045-1.645-.157-1.311-.482.56-.547 1.515-.484 2.298-.483.466.001.94.203 1.31.487m-5.261.32c-1.014.053-2.03.235-3.042.16-.463-.035-1.723-.281-1.305-.484 1-.485 2.187-.485 3.298-.484.466 0 .94.204 1.31.488M-425.183 359.54c-.105-.448.146-1.333-.314-1.345-.456-.011-.436.884-.332 1.329"/>
<path fill="none" stroke-linecap="round" stroke-linejoin="round" stroke-width="4" d="m-617.597 301.342-1.808-.592-.42.148.308-.196-1.393-.249-.534-.423-.955-.065-.99-.619-.024-.353-1.157.111-.799-.208-.031-.283-2.384-.092-2.018 1.919-1.232 1.783-.634 1.683-1.548.8.573 2.524-1.323 2.952.203 1.073-.709 2.251.304 1.171-.48 2.794.678 2.001.291 3.661.631 1.71-.372 1.482 2.605 2.249 5.412 3.069 2.38.39 1.717.675 6.769-.441 6.989-3.448 2.873-3.943.979-1.826.876-8.143-1.352-4.645-1.299-3.03-2.803-3.898-3.393-2.771-1.548-.657-4.642-.361-3.254 1.032"/>
<path fill="none" stroke-linecap="round" stroke-linejoin="round" stroke-width="4" d="m-614.141 321.163-.77.551.963.142-.834-.184.153.338.847.381 1.681 3.028 2.011 2.144 2.701 1.725 1.612 1.656 4.156 3.305 6.748 2.722-1.779-.247-.893-.791-.843-.281M-595.285 322.167l-.999-1.227.084-.324.307.045.161.369-.287.245.605.159.223.396.382 3.135 2.338 3.592 3.872 3.527 1.826.035 3.001-4.414 1.058-3.081-.622-4.243.706 1.187.478 5.114 1.031 2.617 1.199 1.702 2.284 2.042 1.358.981-.268-.19.343-.424M-571.409 325.716l-.728-.452.292-.031.629.542-.048-.201 1.166-.045 1.503.751 1.699.033 3.106-.994-.107-1.524-.407-.65-1.226-.26-2.571-2.067-1.504-.205-.14.611-2.39 2.435-.617 1.322.06 2.505.379 1.629 2.822 3.275 3.508 1.798 2.434.358 1.652.62 1.899-.902 1.506-1.695 1.427-.696"/>
<path fill="none" stroke-linecap="round" stroke-linejoin="round" stroke-width="4" d="m-548.968 322.758-.178-1.298-1.833-1.081-2.933.077-1.673.808-.999 1.761-.013.966.597.71-.009.554 1.721 1.053 8.907 3.178 1.021 1.247.566 1.213-.184.373-2.467 1.418-10.95-.505-1.63.679.441.358M-539.268 306.094l.061-.916-.602-.618-1.855-.767.868 2.443.032 3.548 1.704 8.377.678 5.528.398 7.024-.318 3.361-.76.815.301.685-.296-.039-.133-.697"/>
<path fill="none" stroke-linecap="round" stroke-linejoin="round" stroke-width="4" d="m-527.898 323.594-.117-.897-1.701-.947-3.398-.209-2.094.21-4.823 1.345-2.175 1.498M-519.743 323.335l-.887-.759-.022.499.337-.074-.135.937 1.403 5.239-.308 1.856-.576.827.013 1.062-.852 2.049.467.617-1.293.641.057.357M-511.267 327.649l-.637-1.388-.538-.061-.122-.326-.414.292-.409-.496.487.053-.127.39.432.46-.417.506-.26 1.862-.752.756.363.302.857 4.233 2.251 2.396.364-.057 2.496 1.545 1.809.48.547-.212 1.444.198 1.849-1.591.72-2.019-.175-.824.424-1.25.14-2.286-.543-2.663-1.89-1.963-.615-.374-.638.084-1.509-.899-.264-.473-1.195.031-.375-.321-.865.282.762 2.044.666.895 1.077.638M-493.117 325.716l-.763.214-.567-.237-.689.364-.07 2.784.265.577-.516 1.809.28 1.875.217.042-.371-.096.12-.189 1.59-1.578 1.084-1.872 1.051-.559 1.534-3.028 1.447-1.757 1.873-1.43 1.815-.463-.076.293.69.431-.039.472.549.673.591.149 1.25 1.422.133 6.541.711 1.864-.256.509.32.158.259 1.085.261-.152-.083.362M-466.151 323.518l1.139.976.331-.43-.712-.362-2.284-.219-2.057.166-.271.405-1.414.228-.132.302 3.387 5.326.626.207.326.585 2.794 2.125-.158.399.564.578.179.783-1.458 1.23-1.709.614-.874.681-1.937.112-1.011-.489-.95.413-2.212.002-1.546-.434M-514.819 311.143l.748-1.166-.724-.377.245-.379-.48-.716-.916-.068-.987 1.35M-597.59 373.215l-.93-.789.275-.608-1.479-.867-2.712-.737-.543.375-1.078.012-3.245 2.359-1.376 3.674 1.543 3.739 1.506 1.836 2.159.782 1.55-.197 1.528-.531 1.47-1.494 1.306-2.012.538-1.757-1.236-3.986-.395.222 1.103.326.502 1.492 1.742 2.097 7.99 6.5 2.27 1.528-.401-.973M-579.278 372.813l-2.155-2.351-1.407-.559-1.805-.109-1.271 1.514-.053 1.111.604 1.683 1.87 2.621 5.446 3.39 1.74 1.659 1.106.456.221 1.06-2.57 2.314-1.859.823-2.788-.682-3.107-1.732M-568.306 360.434l-.971-1.198.008-1.05-.383-.068.349.159-.249.01.047 1.426-1.932 6.123-.22 4.684 1.191 7.799.667 1.733 1.807 2.79.202 1.165M-557.665 375.447l.309-.194-.169-.596-.836-.508-2.575-.304-3.565-1.062-1.911-.069-1.114.38-.254.451.496 2.255-.284 1.774.354 1.857 1.574 1.085 2.236 2.18 4.937 2.612 6.099 2.373 1.908-.308-.11-.764M-549.295 377.59l-.951.228 4.595 1.544 3.936.962 2.188.192 1.415-.858-.838-.557-.397-.797-2.992-1.603-4.711-1.545.269.27-.033 2.413 1.72 5.023 2.139 3.434 2.365 2.328 2.48 1.224 2.237-.485 1.041.396 1.618-.504 1.745-1.145 1.412-1.991M-516.206 377.536l-1.215.209-5.62-2.124-.873.131-1.693 1.045-1.186 1.404-.894 1.929-1.883 2.68-.085 1.998.669 1.514 2.155 1.742 3.797.463 1.869-.953 1.175-1.881.912-.858-.098-.412.733-1.662 1.11-4.41.61-5.629-.203-6.487-.97-4.887-1.068-2.374-.094.433.592.587.298 1.264-.084 7.953 1.552 7.329.929 2.967 1.206 2.145 3.416 3.851 2.489 1.313.522.939.38.042.148-.677M-168.818 656.564l.387-.144-.286-.052.1.615-.116-.695-.399.2-3.531-.535-2.194-.024-.885.296-3.077-.855-2.556.49-3.046-.138-.798.4-2.945-.487-3.186.181-4.157-.279-10.011.409-.688.522-1.93-.44.735.359.288-.385-.554.365.571-.003-.327-.027-.008.544.032-.794.278.201-.352-.017.596 2.142.08 2.419-.624 4.422.161 5.92.235 3.357.914 3.685.258 3.326-.475 4.002-.794 2.045-.941 1.246-.729 2.783.116-.281.947.48 4.975.852.868.441 2.72-.019 1.506-.453 4.557 1.061 3.376.339 5.898.393 5.614-.611 1.171.431 2.142-1.829.385-1.754-.975-2.46-1.401-1.333-.839-.217-.604-.765"/>
<path fill="none" stroke-linecap="round" stroke-linejoin="round" stroke-width="4" d="m-185.857 678.013-1.467-.199-1.499.298-4.927-.069-5.057.338-3.11.505-1.988.768-1.093.832.007-.401.009.948M-158.937 673.117l.506-.257.375 1.493-.045 1.641-.554 1.73-3.716 5.042-3.241 2.216-1.875 2.098-1.672 2.532-.265 1.832"/>
<path fill="none" stroke-linecap="round" stroke-linejoin="round" stroke-width="4" d="m-171.604 675.26.154-.826 1.075 1.323 1.845.87 7.289 6.182 5.132 3.492 3.418 1.957.285-.129.158 1.217-.241-.947-.177.231M-143.557 679.025l.324-1.47.38.563-.199.297.367 2.074.215 11.839.781 10.728.643 1.641-.138 2.569-1.101-.998-1.386-2.73-1.059-4.93-1.312-3.909-1.222-7.807-.396-5.117.084-3.703.583-2.15 1.798-1.977 8.587.139 3.675 1.764 1.143 3.437-.095 1.787-.535 1.177-1.173 1.136-7.678 5.548-5.17 1.968-.526-.112-.278-.46M-127.752 678.557l.008 1.731-.078-.718.363.289 1.282-.261 3.095 1.066 2.533-.466 1.888.009.996.379 2.182-.793 1.413-1.189.123-.67-1.437-1.613-1.314-.788-2.958-1.096-5.04-.61-.538-.437-.896.642-.92 3.109-.031 2.819 1.041 2.49 1.215 1.878 4.097 4.229 2.158.119 1.543.471.852-.178 2.717.95 1.078-.288.718-.646 1.671-.42.648-.879.291-1.16"/>
<path stroke="none" d="M-23.042 693.523c.295-.329.708-.583.885-.989.145-.335.103-.74.021-1.096-.745-3.235-1.534-6.463-2.496-9.639-.49-1.622-1.063-3.235-1.854-4.733-.682-1.29-1.505-2.533-2.532-3.568-.367-.37-.966-.45-1.485-.483-1.339-.085-2.845-.511-4.02.134-1.382.758-1.515 3.046-2.952 3.692-1.117.502-2.865-1.731-3.596-.748-1.94 2.609-2.03 6.185-2.798 9.345-.165.676-.176 1.42.018 2.088.121.419.49.765.871.977.45.249.99.345 1.505.338.201-.002.374-.194.482-.364.962-1.517 1.65-3.206 2.704-4.661.72-.992 1.808-1.669 2.574-2.626.578-.723.856-1.654 1.43-2.38.499-.631 1.064-1.245 1.758-1.652.302-.178.795-.238 1.052.001a7.193 7.193 0 0 1 1.792 2.645c1.687 4.372 2.766 8.96 4.382 13.359.119.323.436.624.775.678m-78.508-2.312c.316-.17.872-.161.947-.511.955-4.457 1.989-8.962 2.058-13.519.022-1.454-2.263-2.601-1.794-3.977.36-1.06 2.202-.577 3.32-.507.714.045 1.27.72 1.977.837 1.004.167 2.079.295 3.052-.001.596-.18 1.175-.718 1.316-1.324.14-.602-.076-1.422-.596-1.756-1.392-.895-3.063-1.313-4.685-1.639a12.146 12.146 0 0 0-4.057-.117c-.942.133-1.892.487-2.646 1.065-.64.491-1.027 1.267-1.355 2.003-.921 2.066-1.986 4.128-2.371 6.356-.456 2.647-.348 5.381-.117 8.057.064.742.521 1.423.986 2.004.888 1.108 1.895 2.137 3.023 2.999"/>
<path fill="none" stroke-linecap="round" stroke-linejoin="round" stroke-width="4" d="m-8.912 677.67 1.217.088-.53-.892-.15.381-1.048.351-1.304-.231-.94.299-2.725 1.971-.929 3.026.013 1.336.628 1.88.35.523.446-.045.971 2.071 1.468.17 2.076 1.021 8.089.398 1.068.511.232.518-.796-.438M4.18 680.9l-.056-.562.774-.274 1.055.618 1.822.107 3.425 1.144.771-.121 2.264.529 1.62-.092.735-.594 1.297.34 1.157-.091.352-.53-.472-2.371-1.492-1.498-1.52-.91-2.84-.734-1.83.043-.798.421-.207 4.243.253 2.112.736 2.615 1.139 2.073.785.309 1.24 1.958 1.779 1.651 3.067 1.625 1.88.449 1.43-.276 1.02-.819 1.919-2.508M-84.189 675.706l-.358-.127-.023.223.085-.741-.085.572-.25-.824-.4-.008-.137.415.058-.884-.256-.027.325-.815-.102-.426-.389.356-.013-.966.107.545.408.184.08-.272.035.235-.165.146-.031-.365-.335.767-.048-.437-.62 1.903.342 3.119-.875 2.999-.02 1.936.39.995-.363 1.504.51 2.747.416.878.163-.153.109 1.371.233.076-.121.31-.333-.138.616-.129 1.128.945.837-.509.85.502.813-.255.396-.611.166.288 1.387.101 1.78.94-1.568-.963-1.439-2.101M-83.918 665.545l-.2-2.074-.72-.688-.734-.157-.024-.279.285.583.514-.456.944 1.036M-66.28 679.992l1.235.002.236-.639.125.463-.495.897-.71-.428-1.186.213.06-.642.63.818.12-.435.13.696.015-.431-.047.354.41-.039.564.579 1.97.953.843.004.339-.31.703.356-.017-.258.38.586.67-.78 1.236-.37 1.023.117.606-.8.106.473.447-1.548.13-.187.073.268.486-1.028-.086-1.7-.046.536-.302-1.015-.649-.581-.63.087-1.905-1.392-.79.259-.172-.614-.07.397-.071-.219-.783.409-2.206-.361-.403.326-.173 1.13-.368-.313-2.406 3.335-.176 1.121-.218.123-.04-.255-1.343 1.477.143 1.259-.364 2.215.772 1.87.827.926.306-.059.185 1.002.188.136.088-.508.847 1.747.862.213.579.637.677-.007.282-.334.6 1.06.691-.594.656.587 1.61-.576 1.388.234.623-.25.753.132.354.462.508-.257.172-.719.202.449 1.942-.985 1.086.106 1.225-.361.057.464.475-1 .62.465.341-.606.617-.032.327-.35.082.353.467-.326.05.525.601-1.139 1.35.069.005-.452-.228.588-.2-.085.455-.511.12.852.838-.443-.116.64"/>
<path stroke="none" fill="#aaa" d="M269.797 600.69c.892-.555 1.864-.998 2.674-1.666.885-.73 1.786-1.508 2.37-2.495.222-.375.025-.891-.124-1.3a25.427 25.427 0 0 0-1.688-3.694c-.183-.328-.464-.636-.808-.787-2.42-1.056-4.863-2.102-7.408-2.802a60.034 60.034 0 0 0-9.272-1.785c-.405-.045-.634.641-1.041.638-.391-.002-.593-.569-.974-.651-.678-.147-1.425-.236-2.08-.01-1.061.366-1.874 1.251-2.892 1.724-.32.149-.705.168-1.053.109-3.004-.51-5.934-1.455-8.961-1.809-.404-.047-.633.63-1.04.637-.388.008-.612-.605-1-.599-.406.008-.638.695-1.039.635-2.029-.302-3.894-1.368-5.922-1.67-.402-.06-.633.634-1.039.634-.406 0-.638-.696-1.039-.634-2.023.31-3.86 1.528-5.899 1.699-1.379.116-2.685-.724-4.062-.863a10.275 10.275 0 0 0-3.026.146c-.383.077-.583.642-.974.652-.388.011-.612-.603-1-.598-.401.004-.642.726-1.029.622-1.084-.292-1.895-1.221-2.917-1.685-.324-.148-.704-.124-1.06-.123-.675.002-1.364-.026-2.02.133-.696.168-1.263.807-1.978.837-5.992.251-12 .251-17.993 0-.715-.03-1.282-.667-1.977-.837-.658-.162-1.349-.147-2.026-.147-1.01 0-2.038-.063-3.026.147-.383.081-.576.564-.945.694-.343.121-.733.085-1.092.024-2.978-.501-5.887-1.462-8.896-1.705-.733-.059-1.315.737-2.045.824-1.654.197-3.331.045-4.996.014-.677-.013-1.372.027-2.026-.147-.378-.1-.583-.649-.974-.651-.389-.002-.602.525-.973.642a1.72 1.72 0 0 1-1.055 0c-.369-.129-.558-.642-.946-.695a21.92 21.92 0 0 0-5.022-.133c-.715.066-1.287.784-2.004.784-.717 0-1.291-.704-2.004-.784-1.653-.186-3.331-.121-4.99-.001-7.346.532-14.652 1.608-22.009 1.956-.711.034-1.279-.655-1.971-.822-.658-.16-1.349-.146-2.026-.146-.677 0-1.375-.04-2.026.146-.379.108-.565.612-.948.704-.677.161-1.399.117-2.088.018-3.309-.475-6.545-1.452-9.875-1.737-.718-.061-1.327.599-2.037.719-.993.168-2.016.22-3.02.134-5.38-.459-10.748-1.077-16.104-1.766-4.627-.596-9.192-1.681-13.839-2.087-.733-.064-1.361.732-2.097.695-.916-.046-1.695-.728-2.59-.93-4.406-.99-8.914-1.513-13.287-2.639-2.619-.675-5.037-1.993-7.634-2.748-4.466-1.299-9.109-1.965-13.53-3.408-2.007-.656-3.828-1.795-5.653-2.856-1.249-.727-2.29-1.777-3.544-2.494-1.091-.623-2.403-.821-3.456-1.506-2.28-1.484-4.52-3.073-6.481-4.959-.225-.216.527-.477.505-.788-.022-.332-.334-.606-.613-.786-1.986-1.274-4.172-2.225-6.13-3.542-1.28-.862-2.209-2.208-3.55-2.97-.271-.154-.553.712-.787.506-.818-.722-.919-2.068-1.765-2.756-1.861-1.515-4.171-2.381-6.174-3.703-.263-.173-.578-.436-.575-.751.005-.389.508-.624.596-1.002.032-.135-.16-.328-.294-.295-.39.097-.644.722-1.033.622-1.088-.28-1.864-1.326-2.94-1.645-.311-.092-.554.723-.815.53-1.05-.775-1.516-2.165-2.526-2.993-1.862-1.527-3.917-2.82-6.012-4.007-1.722-.975-3.802-1.295-5.402-2.458-2.12-1.542-3.613-3.81-5.586-5.535-.689-.602-1.709-.761-2.356-1.407-1.053-1.053-1.538-2.606-2.65-3.597-1.974-1.758-4.625-2.68-6.494-4.549-1.17-1.17-1.427-3.008-2.403-4.345-.33-.452-1.028-.493-1.42-.891-1.147-1.161-2.231-2.398-3.156-3.742-.943-1.372-1.297-3.14-2.422-4.368-2.499-2.726-5.699-4.73-8.313-7.345-.743-.744-1.013-1.858-1.691-2.661-1.157-1.371-2.6-2.48-3.785-3.825-.278-.315-.278-.822-.574-1.119-.985-.988-2.343-1.592-3.215-2.683-1.04-1.3-1.455-3.012-2.422-4.367-.713-.997-1.808-1.669-2.574-2.626-.578-.723-.827-1.678-1.43-2.38-1.139-1.327-2.339-2.638-3.756-3.661-.455-.327-1.244.123-1.662-.249-2.266-2.018-4.205-4.383-6.152-6.71-.675-.806-1-1.871-1.692-2.662-1.652-1.889-3.69-3.421-5.308-5.338-1.97-2.334-3.457-5.049-5.43-7.38-1.705-2.015-3.792-3.677-5.575-5.622a131.7 131.7 0 0 1-5.995-6.998c-.655-.823-.994-1.876-1.692-2.662a68.08 68.08 0 0 0-5.833-5.813c-.788-.696-1.884-.985-2.662-1.692-2.729-2.481-5.617-4.871-7.813-7.833-2.593-3.498-4.119-7.681-6.427-11.374-1.033-1.654-2.528-2.985-3.575-4.63-1.294-2.034-2.19-4.299-3.425-6.37-.293-.492-.896-.769-1.139-1.287-.239-.512.044-1.193-.249-1.676-.428-.707-1.338-1.021-1.798-1.708-.241-.357.075-.948-.204-1.276-.817-.96-2.061-1.478-2.922-2.398-1.354-1.445-2.38-3.17-3.686-4.659-1.118-1.275-2.505-2.306-3.575-3.622-1.314-1.616-2.295-3.479-3.55-5.141-1.344-1.782-2.71-3.557-4.239-5.183-.641-.682-1.608-1.004-2.234-1.7-.696-.773-1.019-1.825-1.669-2.638-2.014-2.519-4.298-4.813-6.306-7.336-.577-.725-.777-1.727-1.432-2.382-1.051-1.052-2.604-1.534-3.593-2.644-1.888-2.121-3.479-4.504-4.939-6.939-1.018-1.697-1.299-3.801-2.46-5.404-1.47-2.03-3.462-3.629-5.308-5.324-.309-.283-.822-.277-1.119-.573-.663-.66-1.004-1.608-1.7-2.234-.773-.696-1.861-.977-2.638-1.669-2.126-1.89-4.1-3.948-6.029-6.038-.284-.308-.276-.823-.573-1.119-2.052-2.048-4.42-3.769-6.424-5.864-1.161-1.215-1.809-2.875-3.031-4.026-2.018-1.9-4.522-3.223-6.605-5.05-.703-.617-1.004-1.609-1.7-2.234-.68-.611-1.71-.759-2.356-1.407-1.104-1.106-1.751-2.601-2.799-3.76-.289-.319-.84-.295-1.145-.599-.663-.66-1.004-1.609-1.7-2.234-.681-.611-1.676-.795-2.356-1.407-2.662-2.397-4.99-5.146-7.622-7.576-1.912-1.764-3.929-3.416-5.998-4.994-2.981-2.273-6.17-4.264-9.141-6.55-1.37-1.053-2.459-2.45-3.865-3.454-1.355-.967-3.023-1.441-4.367-2.424-.451-.33-.466-1.057-.891-1.421-1.934-1.657-4.2-2.903-6.116-4.581-2.339-2.048-4.298-4.503-6.62-6.57a12.747 12.747 0 0 0-2.966-1.964c-2.733-1.303-5.695-2.1-8.401-3.458-.679-.341-.999-1.174-1.639-1.581-3.046-1.939-6.436-3.328-9.374-5.427-1.763-1.259-2.947-3.194-4.62-4.57-1.324-1.09-3.007-1.691-4.324-2.789-.719-.599-1.004-1.608-1.7-2.234-.872-.785-1.897-1.398-2.939-1.939-1.67-.866-3.526-1.348-5.168-2.265-1.375-.769-2.472-1.972-3.833-2.765-1.081-.629-2.432-.748-3.45-1.473-1.368-.974-2.299-2.458-3.586-3.535-.806-.675-1.834-1.044-2.662-1.692-1.26-.986-2.298-2.241-3.582-3.196-1.296-.964-2.846-1.557-4.13-2.538-1.054-.806-1.649-2.205-2.841-2.789-.64-.313-1.49.724-2.106.366-1.191-.694-1.583-2.315-2.679-3.151a51.444 51.444 0 0 0-8.012-5.007c-6.591-3.326-13.542-5.902-20.145-9.204-1.42-.71-2.452-2.055-3.856-2.797-3.194-1.687-6.719-2.704-9.876-4.459-.263-.146.439-.459.496-.754.026-.136-.159-.324-.293-.293-.379.089-.619.646-1.006.597-.314-.041-.242-.647-.522-.793-2.666-1.39-5.52-2.396-8.201-3.755-.491-.249-.733-.951-1.274-1.049-.383-.07-.603.525-.974.642-.335.106-.748.172-1.054-.001-.749-.423-1.119-1.46-1.947-1.693-1.3-.367-2.821-.556-4.052 0-1.429.644-2.601 1.935-3.325 3.325-.471.902-.505 2.169 0 3.052.789 1.383 2.117 2.513 3.561 3.184.581.271 1.157-.62 1.793-.695 1.011-.119 2.081-.186 3.051.123 2.983.951 5.84 2.274 8.67 3.613 1.659.785 3.131 1.925 4.772 2.746 2.364 1.181 4.907 1.992 7.228 3.253.649.353.994 1.106 1.592 1.538.684.495 1.461.847 2.219 1.218 6.379 3.117 13.088 5.614 19.189 9.244 3.307 1.968 5.662 5.252 8.834 7.43 2.183 1.5 4.853 2.159 7.12 3.528 2.107 1.273 4.094 2.756 5.954 4.368.761.66 1.14 1.674 1.844 2.395.938.962 1.922 1.907 3.055 2.631 1.621 1.035 3.487 1.636 5.147 2.606 4.397 2.57 8.794 5.153 13.012 8.007 1.013.686 1.665 1.806 2.62 2.57.723.578 1.683.821 2.38 1.43 1.987 1.738 3.492 4.02 5.626 5.574 4.098 2.983 8.549 5.457 12.957 7.958 1.721.977 3.783 1.323 5.404 2.46 1.777 1.246 2.965 3.188 4.633 4.578 2.346 1.955 5.034 3.475 7.38 5.43 1.664 1.387 2.91 3.24 4.62 4.57 4.307 3.35 9.015 6.156 13.38 9.43.979.734 1.673 1.795 2.62 2.57 2.724 2.228 5.692 4.151 8.377 6.426.426.361.489 1.03.887 1.423 1.158 1.146 2.432 2.175 3.736 3.151.732.548 1.71.759 2.356 1.407.96.965 1.4 2.37 2.363 3.332.744.743 1.876.992 2.661 1.691 2.323 2.069 4.325 4.478 6.622 6.575 1.645 1.503 3.616 2.635 5.19 4.212 1.168 1.171 1.875 2.735 2.975 3.97 1.578 1.772 3.283 3.432 5.038 5.029.31.281.823.276 1.119.573.711.714 1.154 1.662 1.843 2.399a115.95 115.95 0 0 0 6.038 6.027c.308.285.822.278 1.119.574.663.66.97 1.648 1.7 2.233 1.684 1.352 4.015 1.888 5.448 3.503 1.304 1.468 1.415 3.685 2.426 5.368 1.478 2.462 3.136 4.833 5.007 7.012 4.332 5.044 9.169 9.636 13.57 14.62.696.788 1 1.871 1.692 2.662 1.654 1.891 3.747 3.38 5.312 5.344 1.037 1.302 1.339 3.104 2.422 4.368 2.946 3.435 6.505 6.3 9.574 9.626 1.132 1.227 2.096 2.606 3.004 4.006.905 1.397 1.499 2.982 2.422 4.368.42.629 1.158 1.003 1.578 1.632.923 1.385 1.499 2.982 2.422 4.368 1.084 1.625 2.574 2.964 3.581 4.638 1.02 1.696 1.487 3.682 2.461 5.405 1.174 2.078 2.386 4.171 3.962 5.963 3.37 3.831 7.076 7.359 10.813 10.833.77.716 1.854 1.02 2.662 1.692a24.392 24.392 0 0 1 3.095 3.095c1.697 2.028 3.047 4.334 4.789 6.324.616.704 1.608 1.004 2.233 1.7.697.773 1.004 1.838 1.67 2.638 1.002 1.204 2.331 2.113 3.308 3.338 2.943 3.691 5.373 7.783 8.43 11.38 2.624 3.087 5.844 5.623 8.57 8.62.707.777.948 1.917 1.69 2.66.925.925 2.25 1.363 3.215 2.245.754.69 1.161 1.696 1.884 2.419.661.662 1.638.978 2.234 1.7 1.64 1.989 2.825 4.32 4.407 6.356.75.966 1.846 1.634 2.57 2.62.744 1.014.964 2.374 1.791 3.322 1.451 1.662 3.434 2.79 4.947 4.396.758.805 1.03 1.998 1.811 2.78.736.735 1.865.973 2.638 1.669a89.598 89.598 0 0 1 6.813 6.833c.701.783 1.035 1.841 1.692 2.662.685.857 1.679 1.448 2.312 2.344.96 1.361 1.412 3.044 2.422 4.368.604.79 1.71 1.085 2.333 1.862.751.938 1.048 2.171 1.706 3.177.173.263.436.559.75.573.31.014.523-.673.784-.504.711.46.913 1.455 1.55 2.015.78.687 1.901.933 2.636 1.669.924.924 1.363 2.25 2.245 3.214.69.754 1.696 1.161 2.418 1.884 1.639 1.638 2.816 3.748 4.642 5.175 1.915 1.497 4.471 2.007 6.415 3.466 2.11 1.583 3.615 3.856 5.62 5.57 1.655 1.415 3.696 2.342 5.324 3.789 1.392 1.238 2.212 3.058 3.676 4.211 3.923 3.088 8.286 5.573 12.38 8.43 1.367.954 2.737 1.912 4 3 1.271 1.095 2.231 2.543 3.585 3.535 1.453 1.064 2.963 2.366 4.753 2.573 1.116.129 1.853-1.328 2.918-1.685.666-.224 1.479-.313 2.108 0 2.743 1.364 4.892 3.858 7.768 4.912 4.268 1.564 8.928 1.73 13.34 2.824 1.975.491 3.907 1.165 5.796 1.925 1.39.559 2.567 1.632 4.014 2.024.4.108.647-.678 1.061-.651.864.057 1.595.703 2.442.881 4.051.852 8.135 1.548 12.222 2.204 10.068 1.615 20.111 3.434 30.24 4.61 1.063.124 2.059-.817 3.126-.735 7.656.589 15.198 2.509 22.873 2.735 2.435.071 4.668-1.444 7.07-1.853.994-.169 2.031-.061 3.02.133.383.076.584.669.974.652.716-.032 1.291-.704 2.004-.784a22.52 22.52 0 0 1 4.992 0c.713.08 1.287.784 2.004.784.717 0 1.287-.753 2.003-.784 5.325-.232 10.68-.461 15.991-.001 1.757.152 3.241 1.473 4.971 1.815.396.078.631-.623 1.035-.629.388-.005.612.608 1 .599.388-.008.601-.523.97-.642.347-.111.735-.09 1.093-.023 2.647.495 5.214 1.466 7.896 1.704.732.065 1.321-.699 2.045-.822.666-.113 1.368-.039 2.022.131.378.099.583.642.974.652.388.011.612-.607 1-.598.388.008.584.648.973.642.704-.01 1.295-.678 2-.686.709-.007 1.318.632 2.027.642.388.006.612-.62 1-.598.713.04 1.286.792 2 .768 1.047-.036 1.952-.938 3-.938s1.952.938 3 .938 1.953-.903 3-.938c.714-.025 1.287.728 2 .768.388.022.612-.607 1-.598.388.008.602.525.973.642.335.106.715.092 1.054-.001.689-.188 1.267-.741 1.976-.827 1.654-.199 3.332-.046 4.997-.014.677.013 1.368-.015 2.026.147.695.171 1.265.765 1.977.837 1.667.167 3.362.084 5.023-.133.387-.05.584-.669.974-.651.716.032 1.289.727 2.004.784 2.657.212 5.337.201 7.996.014 1.381-.097 2.683-.979 4.062-.863 2.039.171 3.876 1.389 5.899 1.699.401.062.634-.654 1.039-.634.716.035 1.287.741 2.003.784 3.658.22 7.336.236 10.993 0 .715-.046 1.278-.69 1.978-.837a5.394 5.394 0 0 1 2.088-.017c2.399.45 4.767 1.065 7.111 1.745 1.952.565 3.795 1.485 5.765 1.987"/>
</svg>