<svg xmlns="http://www.w3.org/2000/svg" xmlns:xlink="http://www.w3.org/1999/xlink" width="976" height="684" baseProfile="tiny" version="1.2" viewBox="-694 83 976 684">
<style>
    path:not([stroke]) {
        stroke: black;
    }
    path:not([fill]) {
        fill: black;
    }
    @media (prefers-color-scheme: dark) {
        path:not([stroke]) {
            stroke: white;
        }
        path:not([fill]) {
            fill: white;
        }
    }
</style>
<path stroke="none" d="M-455.238 684.706c1.226-.522 2.362-1.359 3.678-1.567.713-.112 1.358.823 2.06.66.832-.192 1.187-1.34 1.999-1.598.373-.119.597.553.975.651.653.171 1.356.243 2.022.132 1.039-.173 1.962-.845 3.007-.969 1.333-.158 2.698-.076 4.023.132.386.061.583.65.974.652.388.002.584-.642.973-.642.709 0 1.318.644 2.027.642.391-.001.591-.576.974-.652a9.922 9.922 0 0 1 3.022-.132c1.041.12 1.985.779 3.031.828.388.018.584-.612.971-.641.315-.023.506.631.797.51.617-.256.789-1.177 1.409-1.424.294-.117.468.462.771.554.335.102.714.093 1.052 0 .689-.188 1.264-.778 1.976-.827 3.324-.23 6.67-.226 9.993 0 .732.05 1.313.898 2.043.82 2.039-.218 3.891-1.382 5.922-1.67.404-.058.615.598 1.013.687a4.83 4.83 0 0 0 2.052 0c.382-.082.583-.646.974-.652.401-.005.642.727 1.029.623 1.093-.295 1.811-1.67 2.943-1.694.913-.02 1.377 1.277 2.238 1.582.296.104.479-.529.792-.509.59.038 1.073.817 1.644.665.939-.252 1.419-1.438 2.345-1.733.384-.122.606.652 1.009.665.388.013.611-.599 1-.599.388 0 .612.61 1 .599.391-.011.591-.577.974-.652.989-.194 2.022-.262 3.022-.132.712.092 1.304.937 2.004.784.838-.182 1.235-1.215 1.974-1.65.296-.175.689-.191 1.026-.118.698.15 1.286.768 2 .768s1.286-.768 2-.768 1.287.728 2 .768c.388.022.612-.608 1-.598.595.014 1.075.783 1.658.662.745-.154 1.07-1.232 1.815-1.384.841-.17 1.667.557 2.523.505.716-.044 1.288-.752 2.004-.783.39-.018.596.553.974.651a5.244 5.244 0 0 0 2.022.132c1.038-.143 1.985-.789 3.031-.827.388-.014.577.558.944.685.343.119.74.119 1.09.021 1.665-.466 3.198-1.402 4.902-1.696.398-.069.624.548 1.007.675.346.115.735.091 1.093.024 2.647-.495 5.221-1.397 7.896-1.704.422-.048.66.733 1.08.673 2.03-.289 3.891-1.382 5.922-1.67.404-.057.615.597 1.013.687.678.154 1.41.178 2.086.015 1.682-.405 3.188-1.478 4.903-1.7.724-.094 1.307.806 2.037.802.713-.003 1.274-.688 1.974-.821.991-.189 2.023-.27 3.022-.133.729.1 1.312.86 2.046.826 5.288-.239 10.502-1.593 15.795-1.633.677-.005.689 1.515 1.367 1.504.785-.013.995-1.42 1.768-1.554 1.042-.181 2.035.75 3.091.71 8.827-.333 17.635-1.085 26.437-1.826 2.517-.211 4.986-.876 7.507-1.028 3.339-.202 6.723.436 10.036-.032.907-.128 1.278-1.469 2.166-1.693.622-.156 1.157.619 1.794.696 1.013.121 2.055.066 3.059-.116 2.265-.41 4.524-.921 6.706-1.655.504-.169.701-.976 1.231-1.013.716-.051 1.292.702 2.004.784 1.654.188 3.329.036 4.994.014.555-.008 1.172.156 1.662-.105.657-.349.833-1.41 1.55-1.605.619-.168 1.154.661 1.794.696 3.658.199 7.34.309 10.99.001 5.605-.473 11.115-1.777 16.712-2.34 13.731-1.38 27.483-2.575 41.253-3.488.425-.028.658.718 1.084.682 3.662-.314 7.229-1.427 10.895-1.707.718-.055 1.328.592 2.037.719.685.122 1.398.111 2.088.018 6.329-.854 12.572-2.442 18.945-2.856 8.312-.541 16.663-.241 24.99.001.717.021 1.347 1.068 2.007.783.5-.215-.496-1.355-.028-1.636.865-.519 2.014-.15 3.024-.162 2.999-.037 6.007-.217 8.996.015.714.055 1.275.701 1.978.837.99.192 2.017.211 3.022.133a3.49 3.49 0 0 0 1.486-.483c.573-.34.876-1.122 1.517-1.302.375-.104.613.61 1.001.599.39-.01.592-.569.974-.651a5.173 5.173 0 0 1 2.052 0c.583.113 1.059.87 1.632.716.711-.192.838-1.388 1.55-1.575.621-.163 1.158.619 1.795.696a16.12 16.12 0 0 0 3.993 0c.712-.093 1.288-.751 2.004-.785.407-.019.636.671 1.042.641 4.33-.323 8.585-1.374 12.916-1.682.426-.03.658.696 1.085.684 11.98-.324 23.934-1.362 35.914-1.687.427-.011.659.724 1.084.683 3.69-.349 7.287-1.38 10.966-1.825 1-.121 2.033-.072 3.019.134.382.08.576.564.944.694.344.121.732.076 1.093.025 5.974-.842 11.9-2.049 17.897-2.704.404-.044.634.629 1.04.636.388.007.612-.606 1-.599.407.008.636.681 1.04.639 3.01-.314 5.91-1.376 8.919-1.678.423-.042.66.728 1.08.676 2.356-.294 4.566-1.379 6.921-1.674.403-.05.625.55 1.01.679.346.116.73.048 1.093.027 9.3-.541 18.583-1.432 27.894-1.712.732-.022 1.31.804 2.043.812.714.008 1.287-.728 2-.768.388-.022.612.598 1 .598s.612-.609 1-.598c.39.01.59.575.974.651.99.198 2.016.138 3.026.148 3.332.034 6.672.206 9.996-.015.716-.048 1.288-.74 2.004-.784.388-.024.612.605 1 .598.405-.006.638-.701 1.037-.632 1.708.296 3.218 1.37 4.926 1.666.399.069.632-.626 1.037-.633.388-.006.611.599 1 .599.388 0 .612-.605 1-.599.406.008.637.694 1.039.635 2.372-.347 4.564-1.807 6.961-1.806 3.047 0 5.932 1.466 8.959 1.809.405.045.627-.554 1.013-.681.334-.11.72-.106 1.055 0 .371.117.585.633.973.642.388.009.612-.607 1-.598.388.008.602.525.972.642.336.106.721.11 1.055 0 .387-.128.609-.721 1.014-.683 3.333.313 6.561 1.417 9.896 1.707.72.062 1.34-.65 2.063-.666.388-.009.612.598 1 .598s.612-.607 1-.598c.388.008.602.525.972.642.336.106.721.11 1.055 0 .388-.128.608-.707 1.016-.685 5.989.316 11.925 1.368 17.914 1.684.408.021.607-.679 1.016-.685.708-.01 1.319.667 2.027.642.717-.025 1.29-.707 2.003-.784 1.334-.144 2.698-.076 4.023.132.386.061.583.642.974.652.388.011.611-.598 1-.598.388 0 .612.609 1 .598.391-.01.596-.553.974-.652.653-.17 1.357-.247 2.022-.131.704.122 1.262.827 1.976.826 1.048 0 1.984-.796 3.031-.827 8.343-.245 16.716-.608 25.041.003.915.067 1.372 1.236 1.918 1.973.971 1.312 1.538 2.913 2.611 4.142 1.138 1.303 2.535 2.369 3.945 3.369.425.302.968.427 1.485.483.992.106 2.014.193 2.993 0 .731-.144 1.403-.547 2.004-.986.537-.393 1.048-.878 1.351-1.471.256-.502-.073-1.214.255-1.672.447-.623 1.233-.915 1.886-1.316.804-.493 1.555-1.177 2.479-1.363.408-.082.675.801 1.063.652 4.011-1.542 7.884-3.452 11.643-5.536.853-.473 1.55-1.244 2.072-2.068.717-1.13 1.316-2.379 1.58-3.691.08-.395-.627-.631-.629-1.034-.001-.401.737-.645.623-1.029-.327-1.102-1.003-2.113-1.799-2.942-.774-.805-1.82-1.303-2.798-1.844-1.277-.708-2.571-1.416-3.952-1.894-3.793-1.315-7.799-1.995-11.531-3.474-3.449-1.367-6.699-3.204-9.929-5.03-2.184-1.235-3.97-3.178-6.288-4.139-1.239-.513-2.694-.319-4.023-.133-.942.132-1.979.389-2.648 1.066-1.205 1.219-2.245 2.717-2.717 4.365-.467 1.628-.225 3.403.01 5.08.085.612.491 1.167.926 1.607.688.696 1.439 1.434 2.372 1.729.979.308 2.067.16 3.08-.01.397-.066.62-.8 1.002-.675 1.679.552 3.16 1.596 4.657 2.536.906.568 1.995 1.048 2.53 1.975.209.363-.802.293-1.221.297-10.662.096-21.33.331-31.987.001-9.331-.288-18.616-1.499-27.944-1.855-.74-.028-1.366.758-2.105.71-4.333-.281-8.586-1.372-12.916-1.682-.406-.029-.626.554-1.012.683-.346.117-.732.07-1.093.025-4.298-.526-8.555-1.426-12.874-1.735-.721-.051-1.341.688-2.063.667-.717-.021-1.286-.776-2.004-.784-23.997-.259-47.997-.057-71.996-.014-.677.001-1.372-.028-2.026.146-.378.101-.583.652-.974.652-.39 0-.596-.551-.974-.652-.654-.173-1.349-.145-2.026-.145-.677 0-1.372-.028-2.026.145-.378.101-.584.642-.974.652-.388.011-.612-.607-1-.598-.389.008-.584.646-.973.642-1.043-.011-2.011-.688-3.055-.686-.391.001-.57.589-.946.695-.652.184-1.349.146-2.026.146-.677 0-1.374.035-2.027-.146-.395-.109-.606-.715-1.016-.694-11.744.579-23.467 1.548-35.189 2.48-4.267.339-8.494 1.169-12.771 1.332-.713.027-1.285-.729-1.997-.769-.388-.022-.611.598-1 .598s-.612-.62-1-.598c-.713.04-1.286.775-2 .768-.731-.007-1.312-.879-2.04-.806-2.356.236-4.541 1.467-6.898 1.702-1.05.105-2.033-.702-3.09-.708-.389-.002-.556.68-.945.686-.709.01-1.318-.645-2.027-.642-.39.001-.59.576-.974.651a9.8 9.8 0 0 1-3.023.133c-1.053-.125-2.007-.917-3.066-.852-3.67.225-7.233 1.393-10.895 1.707-.426.036-.659-.715-1.084-.681-13.011 1.022-25.952 2.83-38.965 3.827-3.652.28-7.333.22-10.99-.001-.715-.044-1.286-.784-2.003-.784-.717 0-1.288.737-2.004.784a75.053 75.053 0 0 1-9.993 0c-.732-.05-1.312-.886-2.044-.823-2.688.23-5.237 1.377-7.919 1.676-.403.045-.625-.552-1.01-.681-.346-.115-.733-.079-1.093-.024-3.309.506-6.563 1.393-9.896 1.706-.405.038-.626-.552-1.011-.682-.346-.116-.731-.066-1.093-.025-4.638.521-9.239 1.389-13.895 1.709-.407.028-.607-.679-1.015-.684-.709-.01-1.318.642-2.027.642-.408.001-.636-.674-1.042-.639-3.668.319-7.247 1.375-10.916 1.68-.426.035-.658-.708-1.085-.682-5.318.322-10.573 1.413-15.894 1.71-.738.041-1.367-.777-2.104-.706-2.685.26-5.237 1.378-7.919 1.676-.423.047-.66-.734-1.081-.678-4.685.623-9.239 2.047-13.922 2.672-.42.056-.657-.71-1.078-.672-3.339.306-6.579 1.376-9.918 1.679-.424.039-.658-.72-1.082-.678-3.01.301-5.909 1.364-8.918 1.678-.405.042-.634-.639-1.041-.639-.389.001-.602.526-.973.643-.335.106-.72.109-1.055 0-.383-.125-.608-.736-1.006-.672-2.537.407-4.909 1.569-7.437 2.027-6.12 1.11-12.298 1.88-18.467 2.672-.689.089-1.546.405-2.086-.033-.423-.343.402-1.238.028-1.636-.267-.283-.615.62-1.004.598-.712-.04-1.293-.656-1.998-.769-.407-.065-1.449-.079-1.209.256.544.761 1.874.664 2.414 1.428.239.338-.799.26-1.213.271-1.34.036-2.697.081-4.02-.133-.707-.114-1.266-.764-1.978-.837-1.676-.171-5.249-1.555-5.054.119.213 1.82 3.59.851 5.256 1.613.373.17-.795.233-1.204.239-5.33.073-10.663.146-15.99-.002-.463-.013-1.106-.06-1.304-.478-.168-.353.517-.626.597-1.008.031-.148-.18-.376-.319-.32-1.043.423-1.839 1.458-2.949 1.645-.719.121-1.314-.687-2.033-.807-.666-.111-1.369-.039-2.022.131-.378.099-.583.652-.974.652s-.596-.553-.974-.652c-.654-.17-1.357-.247-2.022-.131-.704.122-1.263.824-1.977.827-1.045.003-1.982-.803-3.027-.812-.714-.006-1.286.768-2 .768s-1.286-.775-2-.768c-1.045.009-1.983.768-3.027.812-.389.016-.585-.634-.973-.642-.388-.009-.612.622-1 .598-.716-.044-1.289-.722-2.004-.784-2.321-.203-4.677-.287-6.989-.001-8.029.991-15.94 2.815-23.967 3.824-.422.053-.658-.722-1.081-.677-6.006.633-11.913 2.032-17.918 2.678-.404.044-.634-.631-1.041-.639-.388-.007-.612.608-1 .599-.388-.008-.602-.525-.973-.642a1.786 1.786 0 0 0-1.054 0c-.371.117-.585.644-.973.642-.391-.002-.596-.553-.974-.652-.653-.171-1.364-.29-2.02-.132-1.715.413-3.226 1.561-4.972 1.814-.721.105-1.306-.801-2.034-.798-.711.002-1.262.791-1.973.812-.706.02-1.302-.598-2.001-.695-1.018-.142-2.086-.259-3.085-.014-1.375.338-2.509 1.38-3.882 1.726-.511.129-1.077-.107-1.54-.358-.587-.318-.871-1.447-1.523-1.301-.532.12.508 1.377.028 1.636-.893.484-2.137.449-3.048 0-.413-.203.315-.881.322-1.341.003-.139-.175-.366-.294-.295-.738.44-1.15 1.424-1.978 1.65-1.303.357-2.714.181-4.052.001-.402-.054-.61-.761-1.008-.681-1.405.28-2.527 1.677-3.959 1.672-1.136-.005-1.903-1.264-2.952-1.699-.333-.138-.906-.289-1.081.026-.222.401.562.943.326 1.336-.234.391-.903.504-1.327.336-.796-.315-1.134-1.475-1.973-1.642-.518-.102-.71.879-1.222 1.007-1.948.489-3.972.61-5.971.797-10.917 1.021-21.829 2.128-32.771 2.827-.421.027-.658-.728-1.075-.666-2.024.299-3.852 1.748-5.898 1.699-2.362-.057-5.881.175-6.798-2.002-2.652-6.293-1.994-13.518-2.607-20.319-.037-.406.554-.627.684-1.013.117-.346.056-.73.026-1.094-.537-6.645-1.756-13.259-1.726-19.926.01-2.098 1.655-3.928 1.843-6.017.141-1.568-1.098-3.081-.882-4.641.113-.81 1.509-.929 1.764-1.707.184-.562-.651-1.054-.666-1.645-.01-.388.607-.612.598-1-.008-.388-.525-.602-.642-.973a1.786 1.786 0 0 1 0-1.054c.117-.371.644-.585.642-.973-.002-.391-.578-.59-.652-.974-.167-.875-.353-1.837-.045-2.673.343-.932 1.618-1.352 1.881-2.309.359-1.309.077-2.729-.131-4.07-.059-.386-.666-.584-.651-.974.028-.714.778-1.286.768-2-.014-1.058-.89-2.006-.837-3.063.25-4.986 1.435-9.891 1.736-14.874.044-.739-.745-1.366-.71-2.106.626-13.32 2.034-26.595 2.685-39.914.019-.407-.555-.627-.685-1.013-.117-.346-.072-.732-.025-1.093.514-3.973 1.391-7.902 1.707-11.895.033-.407-.678-.607-.683-1.015-.01-.708.642-1.318.642-2.027 0-.389-.525-.602-.642-.973a1.786 1.786 0 0 1 0-1.054c.117-.371.642-.585.642-.973s-.523-.601-.641-.971c-.112-.346-.098-.735-.023-1.092.487-2.317 1.398-4.549 1.702-6.897.052-.403-.675-.606-.68-1.013-.009-.708.664-1.318.642-2.027-.022-.714-.768-1.286-.768-2s.738-1.287.768-2c.017-.388-.525-.602-.642-.973a1.724 1.724 0 0 1 0-1.054c.127-.369.68-.557.686-.946.01-.709-.632-1.318-.642-2.027-.006-.389.607-.612.598-1-.008-.389-.525-.602-.642-.973-.106-.335-.091-.715 0-1.054.185-.687.804-1.262.812-1.973.008-.714-.738-1.286-.768-2-.017-.388.642-.584.642-.973 0-.709-.644-1.318-.642-2.027.001-.391.575-.591.652-.974.197-.99.245-2.021.146-3.026-.135-1.365-.801-2.656-.842-4.027-.011-.392.59-.57.695-.947a4.768 4.768 0 0 0 .132-2.022c-.17-1.037-.951-1.954-.953-3.004-.003-1.048.903-1.953.938-3 .024-.714-.738-1.286-.768-2-.018-.407.67-.636.64-1.042-.323-4.33-1.434-8.581-1.682-12.916-.042-.734.726-1.317.826-2.046.136-.999.062-2.033-.133-3.022-.075-.383-.641-.584-.651-.974-.011-.388.622-.612.598-1-.044-.716-.668-1.296-.783-2.004-.108-.667-.025-1.365.132-2.022.165-.693.812-1.261.821-1.974.01-.714-.728-1.287-.768-2-.022-.388.598-.611.598-1s-.598-.612-.598-1c0-.389.598-.612.598-1 0-.389-.598-.611-.598-1s.598-.611.598-1c0-.388-.609-.612-.598-1 .01-.39.553-.596.651-.974.171-.653.168-1.346.132-2.02-.022-.42.113-1.277-.304-1.224-.654.083-.706 1.35-1.36 1.436-.415.054-.351-.807-.289-1.22.105-.706.728-1.286.768-1.998.022-.388-.622-.612-.598-1 .044-.716.714-1.29.784-2.004a30.77 30.77 0 0 0 0-5.993c-.07-.713-.752-1.287-.784-2.003-.018-.39.589-.588.651-.974.163-1.011.664-2.292.001-3.073-.428-.506-.871 1.25-1.533 1.265-.421.01-.288-.804-.305-1.224-.041-1.014-.564-2.303.132-3.041.462-.491 1.514 1.743 1.701 1.095.384-1.324-.688-2.679-.846-4.048a5.28 5.28 0 0 1 .146-2.026c.106-.377.688-.555.695-.947.012-.709-.645-1.318-.642-2.027.002-.606.746-1.095.658-1.695-.084-.568-1.097-.747-1.105-1.321-.014-1.054.99-1.932 1.045-2.984.038-.716-.668-1.296-.783-2.004-.108-.666-.031-1.365.132-2.02.078-.314.633-.47.569-.788-.099-.495-.984-.666-.963-1.172.032-.764 1.311-1.281 1.096-2.015-.158-.537-1.426.523-1.68.024-.32-.626.667-1.295.673-1.998.005-.709-.642-1.318-.642-2.027 0-.408.659-.635.642-1.043-.673-16.326-1.67-32.637-2.703-48.943a1994.216 1994.216 0 0 0-2.934-40.064c-.555-6.641-1.66-13.235-2.073-19.887-.045-.717.698-1.317.71-2.036.012-.709-.642-1.318-.642-2.027 0-.388.526-.602.642-.973.104-.335.296-.885-.013-1.052-.402-.218-.876.318-1.333.324-.154.001-.415-.164-.35-.303.453-.964 1.669-1.614 1.748-2.676.056-.759-1.23-1.055-1.416-1.794-.181-.719.639-1.479.414-2.185-.226-.708-1.598-.806-1.604-1.549-.007-.797 1.144-1.129 1.575-1.799.117-.183.106-.462-.001-.651-.372-.664-1.163-1.088-1.383-1.816-.155-.509.421-1.025.363-1.553-.043-.386-.634-.585-.642-.973-.009-.389.719-.631.598-1.001-.244-.748-1.249-1.071-1.517-1.812-.325-.899-.48-1.957-.173-2.863.238-.707 1.64-.765 1.652-1.512.017-1.067-1.332-1.746-1.584-2.783-.094-.389.541-.619.665-1 .113-.345.136-.745.019-1.088-.461-1.34-1.336-2.521-1.726-3.883-.192-.667-.135-1.405.013-2.084.083-.382.649-.583.651-.974.002-.389-.642-.584-.642-.973 0-.709.642-1.318.642-2.027 0-.389-.525-.602-.642-.973a1.77 1.77 0 0 1 0-1.054c.123-.382.763-.613.666-1.002-.271-1.09-1.366-1.854-1.646-2.942-.1-.388.618-.628.622-1.029.005-.388-.607-.612-.598-1 .008-.389.642-.584.642-.973 0-.709-.641-1.318-.642-2.027-.001-.406.696-.638.634-1.039-.312-2.023-1.28-3.897-1.704-5.9a4.977 4.977 0 0 1 .017-2.087c.088-.393.771-.611.675-1.003-.269-1.091-1.377-1.851-1.646-2.942-.096-.392.612-.605.676-1.003.212-1.324.217-2.684.132-4.023a3.28 3.28 0 0 0-.483-1.485c-.35-.57-1.219-.833-1.344-1.491-.135-.709.696-1.338.67-2.06-.03-.806-.674-1.483-.827-2.275-.747-3.854-1.525-7.718-1.868-11.629-.063-.72.66-1.34.666-2.063.003-.389-.525-.602-.642-.973a1.77 1.77 0 0 1 0-1.054c.123-.382.766-.614.666-1.002-.281-1.086-1.461-1.816-1.679-2.916-.139-.701.697-1.313.699-2.028.002-1.043-.681-2.011-.686-3.054-.002-.401.766-.614.666-1.002-.281-1.086-1.453-1.817-1.679-2.916-.145-.704.642-1.336.655-2.055.008-.388-.607-.612-.598-1 .008-.388.523-.601.641-.971.112-.346.098-.735.021-1.09-.585-2.683-1.515-5.288-2.001-7.991-.793-4.419-.932-8.946-1.83-13.346-.65-3.186-1.694-6.287-2.799-9.345-.185-.512-1.132-.727-1.034-1.262.083-.449.931-.562 1.328-.337 1.11.629 1.937 1.676 2.758 2.652.752.895 1.486 1.846 1.933 2.927.731 1.768.871 3.738 1.561 5.522.275.712.713 1.397 1.301 1.883 1.038.858 2.242 1.519 3.474 2.061 1.587.699 3.203 1.699 4.935 1.643 1.373-.045 2.57-1.066 3.643-1.923.764-.61 1.458-1.43 1.73-2.369.374-1.297.393-2.726.124-4.048-.271-1.329-.908-2.596-1.701-3.696-.991-1.375-2.53-2.282-3.57-3.62-1.306-1.679-2.088-3.73-3.43-5.38-1.517-1.865-3.255-3.556-5.097-5.1-2.414-2.024-4.76-4.282-7.634-5.572-1.536-.69-3.369-.215-5.05-.123-.52.029-1.062.18-1.486.483-.93.663-1.472 1.838-2.492 2.354-.798.403-1.991-.327-2.67.256-1.716 1.474-2.908 3.501-4.006 5.479-.798 1.438-.748 3.265-1.619 4.66-.885 1.417-2.538 2.217-3.52 3.569-1.684 2.32-2.747 5.05-4.426 7.374-.745 1.031-1.661 2.013-2.784 2.609-.345.183-.626-.509-1.005-.598-.135-.031-.328.16-.295.295.098.392.717.644.628 1.038-.367 1.623-1.126 3.144-1.906 4.614-.461.867-1.487 1.408-1.788 2.343-.124.386.659.582.717.983.272 1.868-.499 3.926.25 5.659.573 1.325 2.042 2.156 3.372 2.718.937.397 2.179.522 3.052 0 1.909-1.139 3.438-2.882 4.762-4.667 1.436-1.936 2.193-4.297 3.425-6.37 1.68-2.826 3.112-5.865 5.304-8.314.355-.397.927.627 1.142 1.113.601 1.363.975 2.827 1.245 4.293 1.625 8.825 3.225 17.661 4.435 26.553.057.421-.728.659-.676 1.081.294 2.355 1.38 4.565 1.674 6.92.052.422-.727.659-.677 1.082 1.628 13.673 4.05 27.244 5.678 40.918.05.422-.716.658-.678 1.081.305 3.339 1.376 6.579 1.679 9.918.039.424-.717.658-.68 1.083.637 7.333 2.041 14.585 2.68 21.917.037.424-.716.658-.677 1.081.68 7.35 2.195 14.608 2.808 21.963.061.728-.875 1.31-.808 2.037.281 3.037 1.398 5.947 1.824 8.967.141.997.061 2.031-.133 3.019-.076.383-.652.583-.652.974s.576.591.652.974c.194.989.268 2.023.132 3.022-.099.728-.886 1.313-.823 2.044.23 2.689 1.365 5.239 1.676 7.919.047.404-.63.634-.637 1.041-.008.388.598.611.598 1 0 .388-.62.612-.598 1 .04.713.768 1.286.768 2s-.728 1.287-.768 2c-.022.388.607.612.598 1-.008.388-.525.602-.642.973-.106.335-.171.748.001 1.054.42.748 1.475 1.114 1.684 1.946.172.684-.573 1.306-.694 2.001-.119.686-.146 1.404-.017 2.088.437 2.328 1.401 4.549 1.706 6.898.054.42-.732.659-.672 1.079.289 2.03 1.379 3.892 1.67 5.922.058.401-.549.625-.677 1.009-.116.346-.081.733-.025 1.093.515 3.302 1.436 6.545 1.734 9.874.064.72-.65 1.34-.666 2.063-.009.388.606.612.598 1-.008.408-.67.636-.64 1.042.323 4.33 1.359 8.586 1.682 12.916.03.406-.658.635-.64 1.042.03.713.774 1.286.768 2-.009 1.045-.781 1.983-.812 3.027-.011.391.588.57.695.947.185.651.147 1.349.147 2.026 0 1.01.051 2.036-.146 3.026-.077.383-.669.584-.652.974.032.716.743 1.288.784 2.004.227 3.992.052 7.997.014 11.996-.006.677.028 1.372-.147 2.026-.1.378-.641.584-.651.974-.011.388.598.612.598 1 0 .389-.598.611-.598 1 0 .388.598.611.598 1 0 .388-.607.612-.598 1 .008.388.525.602.642.973.106.335.114.722 0 1.054-.127.368-.698.557-.686.946.034 1.044.814 1.982.812 3.027-.001.713-.653 1.281-.821 1.974-.159.658-.147 1.349-.147 2.026 0 1.676-.075 3.365.146 5.026.052.387.667.584.652.974-.028.714-.768 1.286-.768 2s.728 1.287.768 2c.022.388-.728.634-.598 1.001.286.808 1.214 1.234 1.65 1.973.175.296.144.681.118 1.024-.032.417.129 1.231-.289 1.22-.662-.017-.893-1.44-1.532-1.266-.546.148-.28 1.181-.045 1.695.414.902 1.393 1.444 1.879 2.309.17.303.047.697.001 1.042-.055.415.113 1.274-.303 1.22-.654-.085-.703-1.371-1.359-1.436-.43-.043-.27.858-.186 1.281.411 2.075.832 4.178 1.652 6.128.113.267.482-.654.721-.489.379.259.46.839.459 1.298 0 .46-.046 1.102-.461 1.3-.353.169-.627-.515-1.009-.599-.151-.032-.42.166-.35.303.445.862 1.348 1.452 1.718 2.35.128.311-.035.861-.362.944-.378.097-.627-.508-1.007-.597-.135-.031-.322.159-.294.295.144.701.772 1.289.767 2.004-.004.726-.915 1.313-.792 2.029.19 1.107 1.459 1.834 1.646 2.942.121.719-.766 1.305-.808 2.032-.23 3.992-.254 8.004 0 11.993.067 1.049.924 1.954.954 3.004.02.711-.782 1.262-.812 1.973-.03.708.639 1.318.642 2.027.002.403-.705.638-.628 1.034.337 1.729 1.551 3.225 1.799 4.969.1.703-.782 1.26-.813 1.97-.03.708.667 1.319.642 2.027-.025.717-.668 1.296-.783 2.004-.108.667-.039 1.368.131 2.022.099.378.642.583.652.974.011.388-.598.611-.598 1 0 .388.598.611.598 1s-.598.611-.598 1c0 .388.607.612.598 1-.008.388-.525.602-.642.973a1.717 1.717 0 0 0 0 1.054c.129.37.589.57.695.947.184.651.146 1.349.146 2.026 0 .677.028 1.372-.145 2.026-.101.378-.65.583-.652.974-.002.388.525.602.642.973.106.335.106.719 0 1.054-.117.371-.659.585-.642.973.03.713.768 1.286.768 2s-.738 1.286-.768 2c-.017.387.522.601.641.97.112.347.052.73.026 1.093-1.153 15.919-2.257 31.841-3.563 47.748-.308 3.753-.57 7.526-1.277 11.225-.054.282-.854-.348-.858-.061-.015 1.045.765 1.984.815 3.028.223 4.659.261 9.336 0 13.993-.059 1.049-.927 1.954-.954 3.004-.027 1.042 1.002 2.002.799 3.025-.089.449-.877-.315-1.334-.324-.139-.002-.326.16-.295.295.089.379.609.615.598 1.004-.01.39-.569.592-.651.974a4.927 4.927 0 0 0 0 2.052c.082.382.666.584.651.974-.028.714-.768 1.286-.768 2s.738 1.286.768 2c.017.388-.525.602-.642.973-.106.335-.11.72 0 1.054.126.386.696.606.677 1.011-.06 1.325-.715 2.562-.902 3.876-1.039 7.333-2.102 14.669-2.771 22.045-.036.405.677.606.682 1.013.009.709-.642 1.319-.642 2.028 0 .388.525.602.642.973.106.335.106.719 0 1.054-.117.371-.634.585-.642.973-.009.388.598.612.598 1s-.598.612-.598 1c0 .389.606.612.598 1-.008.408-.67.636-.64 1.042.366 5.01 1.516 9.946 1.811 14.961.043.73-.857 1.309-.81 2.039.253 4.013 1.456 7.93 1.694 11.944.048.816-.688 1.498-.849 2.299-.815 4.038-1.227 8.151-2.073 12.182-.114.548-.682.931-.793 1.48-.202.997-.29 2.046-.124 3.049.156.939.349 2.023 1.066 2.649 2.196 1.918 4.649 3.658 7.365 4.717 1.569.612 3.374.28 5.05.123.715-.067 1.287-.784 2.004-.784.717 0 1.29.707 2.003.784 1.334.144 2.698.075 4.023-.133.386-.06.583-.641.974-.651.388-.011.612.607 1 .598.388-.009.584-.642.973-.642.709 0 1.318.632 2.027.642.388.006.612-.607 1-.598.388.008.584.648.973.642.704-.01 1.295-.663 2-.686m56.317-20.63c-.437-.12-.858-.352-1.31-.359-.146-.002-.405.255-.282.332.387.245.875.324 1.332.332m121.259-7.305c-.428-.17-.824-.505-1.285-.508-.786-.006-1.741-.064-2.306.481-.335.322.842.479 1.306.483m-2.714-.456c-.437-.12-.858-.352-1.31-.359-.146-.003-.405.255-.282.332.387.245.875.324 1.332.332"/>
<path fill="none" stroke-linecap="round" stroke-linejoin="round" stroke-width="4" d="m-672.868 339.901-1.807-.592-.421.148.309-.196-1.393-.249-.534-.423-.955-.065-.99-.618-.024-.354-1.158.111-.798-.208-.031-.283-2.385-.092-2.017 1.919-1.232 1.783-.635 1.683-1.547.8.572 2.524-1.322 2.952.203 1.073-.71 2.251.305 1.171-.481 2.794.678 2.001.292 3.661.63 1.71-.372 1.482 2.605 2.249 5.412 3.069 2.381.39 1.717.675 6.768-.441 6.99-3.448 2.873-3.942.978-1.827.876-8.143-1.351-4.645-1.299-3.03-2.803-3.898-3.394-2.771-1.548-.657-4.641-.361-3.254 1.032"/>
<path fill="none" stroke-linecap="round" stroke-linejoin="round" stroke-width="4" d="m-669.412 359.722-.769.551.962.142-.833-.184.152.338.847.381 1.681 3.028 2.011 2.144 2.701 1.725 1.613 1.656 4.156 3.305 6.748 2.722-1.78-.247-.892-.791-.843-.281M-650.555 360.726l-1-1.227.085-.324.307.045.16.369-.286.245.604.159.223.396.383 3.135 2.337 3.592 3.872 3.527 1.827.035 3-4.414 1.059-3.081-.622-4.243.706 1.187.478 5.114 1.03 2.617 1.2 1.702 2.283 2.042 1.359.981-.269-.19.343-.424M-626.679 364.275l-.729-.452.292-.031.63.542-.049-.201 1.167-.045 1.503.751 1.698.033 3.106-.994-.107-1.524-.406-.65-1.227-.26-2.571-2.067-1.504-.205-.139.611-2.391 2.435-.616 1.322.06 2.505.378 1.629 2.822 3.275 3.508 1.798 2.435.358 1.651.62 1.9-.902 1.505-1.695 1.428-.696"/>
<path fill="none" stroke-linecap="round" stroke-linejoin="round" stroke-width="4" d="m-604.238 361.317-.178-1.298-1.834-1.081-2.933.077-1.673.808-.999 1.761-.013.966.598.71-.009.554 1.72 1.053 8.907 3.178 1.021 1.247.566 1.213-.184.373-2.467 1.418-10.949-.505-1.63.679.441.358M-594.539 344.653l.062-.915-.603-.619-1.854-.767.868 2.443.031 3.548 1.705 8.377.677 5.528.399 7.024-.319 3.361-.76.815.301.685-.296-.039-.133-.697"/>
<path fill="none" stroke-linecap="round" stroke-linejoin="round" stroke-width="4" d="m-583.169 362.153-.117-.897-1.701-.947-3.397-.209-2.095.21-4.822 1.345-2.175 1.498M-575.014 361.894l-.887-.759-.021.499.336-.074-.135.937 1.403 5.239-.307 1.856-.576.827.012 1.062-.852 2.049.468.617-1.293.641.056.357M-566.537 366.208l-.638-1.388-.537-.061-.122-.326-.415.292-.409-.496.488.053-.128.39.432.46-.416.506-.26 1.862-.752.756.363.301.856 4.234 2.252 2.396.363-.057 2.496 1.545 1.81.48.547-.212 1.444.198 1.848-1.591.721-2.019-.175-.824.423-1.25.14-2.286-.542-2.663-1.891-1.963-.614-.374-.638.084-1.51-.899-.263-.473-1.195.03-.376-.32-.865.282.763 2.044.666.895 1.077.638M-548.388 364.275l-.763.214-.566-.237-.689.364-.071 2.784.265.577-.515 1.809.279 1.875.218.042-.371-.096.12-.189 1.589-1.578 1.084-1.872 1.051-.559 1.535-3.028 1.446-1.757 1.873-1.431 1.816-.462-.077.293.691.431-.04.472.549.673.592.149 1.25 1.422.132 6.541.711 1.864-.255.509.319.158.259 1.085.261-.152-.082.362M-521.422 362.077l1.14.976.331-.43-.712-.362-2.285-.219-2.056.166-.272.405-1.414.228-.132.302 3.387 5.326.626.208.327.584 2.793 2.125-.158.399.564.578.179.783-1.457 1.23-1.71.614-.874.681-1.936.112-1.011-.489-.95.413-2.213.002-1.546-.434M-570.089 349.702l.747-1.166-.723-.377.245-.379-.48-.716-.917-.068-.986 1.35M-652.86 411.774l-.93-.789.275-.608-1.479-.867-2.713-.737-.543.375-1.078.012-3.244 2.359-1.377 3.674 1.544 3.739 1.505 1.836 2.159.783 1.55-.198 1.529-.531 1.47-1.494 1.305-2.012.539-1.757-1.236-3.986-.396.222 1.104.326.501 1.492 1.742 2.097 7.991 6.5 2.269 1.528-.4-.973M-634.549 411.372l-2.154-2.351-1.408-.559-1.804-.109-1.272 1.514-.052 1.112.603 1.682 1.871 2.621 5.445 3.39 1.74 1.659 1.107.456.221 1.06-2.57 2.314-1.86.823-2.788-.682-3.106-1.732M-623.577 398.993l-.97-1.198.008-1.05-.383-.068.348.159-.249.01.047 1.426-1.932 6.123-.219 4.684 1.19 7.799.667 1.733 1.807 2.79.203 1.165M-612.935 414.006l.308-.194-.169-.596-.835-.508-2.575-.304-3.565-1.062-1.911-.069-1.115.38-.254.451.496 2.255-.284 1.774.355 1.857 1.574 1.085 2.235 2.18 4.937 2.612 6.099 2.373 1.908-.308-.11-.764M-604.565 416.149l-.952.228 4.595 1.544 3.936.962 2.188.192 1.416-.857-.839-.558-.396-.797-2.992-1.603-4.711-1.545.268.27-.032 2.413 1.719 5.023 2.139 3.434 2.366 2.328 2.479 1.224 2.237-.485 1.041.396 1.619-.504 1.745-1.145 1.411-1.991M-571.476 416.095l-1.215.209-5.621-2.124-.872.131-1.694 1.045-1.186 1.404-.893 1.929-1.884 2.68-.085 1.998.669 1.514 2.156 1.742 3.796.463 1.87-.953 1.175-1.881.912-.858-.098-.412.732-1.662 1.11-4.41.61-5.629-.202-6.487-.971-4.887-1.068-2.374-.093.433.591.587.299 1.264-.084 7.953 1.552 7.329.929 2.967 1.205 2.145 3.416 3.851 2.49 1.313.522.939.379.042.148-.677M-224.089 695.124l.388-.145-.287-.052.1.615-.116-.695-.398.2-3.531-.535-2.195-.024-.884.296-3.077-.855-2.556.49-3.047-.138-.797.4-2.946-.488-3.185.182-4.157-.279-10.011.409-.688.522-1.931-.44.736.359.287-.385-.554.365.571-.003-.327-.027-.007.544.032-.794.277.201-.351-.017.595 2.142.08 2.419-.623 4.422.16 5.92.236 3.356.913 3.686.259 3.326-.475 4.002-.795 2.045-.941 1.246-.729 2.783.117-.281.947.48 4.975.853.867.44 2.721-.019 1.505-.453 4.557 1.061 3.377.34 5.897.392 5.614-.611 1.171.431 2.143-1.829.384-1.754-.975-2.459-1.401-1.333-.839-.218-.604-.765"/>
<path fill="none" stroke-linecap="round" stroke-linejoin="round" stroke-width="4" d="m-241.128 716.572-1.466-.199-1.5.298-4.927-.069-5.056.338-3.111.504-1.988.769-1.092.832.007-.401.008.948M-214.207 711.676l.505-.257.375 1.493-.044 1.641-.554 1.73-3.716 5.042-3.242 2.216-1.875 2.098-1.672 2.532-.265 1.832"/>
<path fill="none" stroke-linecap="round" stroke-linejoin="round" stroke-width="4" d="m-226.874 713.819.154-.825 1.074 1.322 1.845.871 7.29 6.181 5.131 3.492 3.418 1.957.285-.129.159 1.217-.241-.947-.177.231M-198.828 717.584l.325-1.47.38.563-.199.297.366 2.074.216 11.839.78 10.727.643 1.642-.138 2.569-1.1-.998-1.386-2.73-1.059-4.93-1.313-3.91-1.222-7.806-.396-5.117.085-3.703.582-2.15 1.798-1.977 8.587.139 3.676 1.764 1.143 3.436-.096 1.788-.534 1.177-1.174 1.136-7.678 5.548-5.169 1.968-.526-.112-.278-.46M-183.023 717.116l.008 1.731-.078-.718.363.289 1.283-.261 3.094 1.067 2.534-.467 1.887.009.997.379 2.182-.792 1.413-1.19.122-.67-1.437-1.613-1.314-.788-2.957-1.096-5.041-.61-.538-.438-.895.643-.921 3.109-.03 2.819 1.041 2.49 1.214 1.878 4.098 4.229 2.157.119 1.543.472.853-.18 2.717.951 1.077-.288.719-.646 1.67-.419.648-.88.292-1.16"/>
<path stroke="none" d="M-78.17 731.55c.012-1.704.408-3.448.038-5.111-.814-3.647-2.16-7.165-3.55-10.634-.419-1.045-1.043-2.041-1.847-2.829-.821-.804-1.885-1.333-2.917-1.838-.318-.156-.706-.157-1.056-.108-.512.073-1.078.142-1.48.468-1.562 1.263-2.437 3.486-4.31 4.213-.862.335-1.393-1.241-2.205-1.683-.207-.112-.62-.117-.699.104a72.87 72.87 0 0 0-2.674 9.306 7.348 7.348 0 0 0 .019 3.088c.094.427.445.91.877.974.69.102 1.566-.015 2.018-.546 1.545-1.817 2.277-4.208 3.671-6.144 1.436-1.995 2.685-4.334 4.787-5.608.688-.417 1.296.985 1.79 1.62a6.378 6.378 0 0 1 1.037 2.013c1.276 4.104 1.878 8.424 3.453 12.424.227.576 1.1.651 1.717.71m-78.006-2.115c.237-.191.66-.273.71-.573.75-4.559 1.634-9.142 1.649-13.762.003-1.065-2.471-2.161-1.596-2.767 2.465-1.708 5.997-.937 8.729-2.173.496-.225-.202-1.093-.482-1.559-.225-.374-.542-.834-.977-.871-3.006-.261-6.07-.462-9.052 0-.802.124-1.352.977-1.767 1.674-1.053 1.77-2.261 3.582-2.573 5.618-.559 3.653-.82 7.486.015 11.085.353 1.527 1.994 2.496 3.325 3.325"/>
<path fill="none" stroke-linecap="round" stroke-linejoin="round" stroke-width="4" d="m-64.182 716.229 1.216.088-.529-.892-.151.381-1.048.351-1.304-.231-.939.299-2.725 1.971-.93 3.026.014 1.336.628 1.88.35.523.445-.045.972 2.071 1.467.17 2.077 1.02 8.088.399 1.069.511.231.518-.795-.438M-51.09 719.459l-.056-.562.773-.274 1.056.618 1.822.108 3.424 1.143.772-.121 2.264.529 1.62-.092.734-.594 1.297.339 1.157-.09.353-.53-.472-2.371-1.492-1.498-1.52-.91-2.84-.734-1.831.043-.797.421-.207 4.243.252 2.112.737 2.615 1.138 2.073.786.309 1.239 1.958 1.779 1.651 3.068 1.625 1.88.449 1.43-.276 1.02-.82 1.918-2.507M-139.459 714.265l-.358-.127-.023.222.084-.74-.085.572-.249-.823-.401-.009-.136.415.057-.884-.256-.027.325-.815-.101-.425-.389.355-.013-.966.107.546.408.183.079-.273.036.236-.166.146-.031-.365-.335.767-.048-.437-.619 1.903.342 3.119-.876 2.999-.02 1.936.391.995-.364 1.504.511 2.748.416.877.162-.152.109 1.37.233.076-.121.31-.333-.138.617-.129 1.127.944.838-.508.849.502.814-.255.395-.611.167.288 1.386.101 1.781.94-1.569-.963-1.438-2.102M-139.188 704.104l-.201-2.075-.72-.687-.734-.157-.023-.279.284.583.514-.457.945 1.037M-121.551 718.551l1.235.001.236-.638.125.463-.495.897-.71-.428-1.186.213.061-.642.63.818.119-.435.13.696.015-.431-.047.354.409-.039.566.579 1.97.954.842.003.339-.31.703.356-.016-.258.38.586.67-.781 1.235-.369 1.024.117.605-.8.107.474.446-1.55.13-.187.073.269.487-1.028-.086-1.7-.047.536-.302-1.015-.648-.582-.631.088-1.904-1.392-.79.259-.173-.613-.069.396-.072-.219-.782.409-2.207-.36-.403.325-.173 1.13-.367-.313-2.407 3.335-.175 1.121-.219.123-.039-.255-1.344 1.478.143 1.258-.364 2.216.773 1.869.827.927.306-.06.184 1.002.188.137.088-.509.848 1.747.861.213.579.637.677-.007.282-.334.6 1.06.692-.594.656.587 1.609-.576 1.388.234.623-.25.753.132.354.462.508-.256.173-.72.201.449 1.942-.986 1.087.108 1.225-.362.056.464.475-.999.621.464.341-.606.617-.032.326-.351.082.354.468-.326.049.525.602-1.139 1.35.069.004-.452-.228.588-.199-.085.455-.511.119.852.839-.443-.116.64"/>
<path stroke="none" fill="#aaa" d="M-48.29 626.765c4.908-.544 9.795-1.361 14.727-1.633.738-.041 1.367.779 2.103.705 2.444-.247 4.84-.911 7.185-1.643 2.645-.825 5.07-2.299 7.747-3.016.402-.108.665.771 1.065.655 4.715-1.367 9.204-3.426 13.86-4.982 2.036-.68 4.255-.825 6.205-1.723 5.014-2.306 9.836-5.026 14.584-7.841 1.653-.981 2.89-2.582 4.568-3.519 1.382-.771 3.102-.781 4.492-1.539.466-.254.442-.997.828-1.362.71-.672 1.464-1.398 2.397-1.689.383-.12.634.676 1.031.62.33-.046.258-.665.541-.841 1.293-.803 2.863-1.132 4.088-2.034.968-.713 1.385-2.028 2.368-2.72.255-.178.55.709.785.505 1.876-1.626 3.482-3.554 5-5.518 1.295-1.674 1.951-3.821 3.408-5.356 1.219-1.283 3.11-1.743 4.441-2.908 1.227-1.073 2.18-2.428 3.152-3.736.61-.822 1.181-1.69 1.577-2.634.22-.529-.133-1.265.238-1.702 1.422-1.676 3.419-2.782 4.924-4.384.758-.805 1.029-1.996 1.81-2.778 1.246-1.245 2.994-1.926 4.189-3.22.916-.993 1.07-2.555 2.025-3.512 1.192-1.197 3.144-1.492 4.24-2.777 1.862-2.18 2.707-5.08 4.427-7.373 1.301-1.735 3.28-2.886 4.574-4.626 2.182-2.938 3.201-6.742 5.791-9.327 1.963-1.959 5.025-2.375 7.386-3.829.734-.452 1.293-1.155 1.819-1.838.565-.733.837-1.669 1.43-2.38 1.085-1.302 2.573-2.249 3.57-3.62 1.679-2.311 2.615-5.126 4.405-7.352.995-1.238 2.81-1.628 3.809-2.863.316-.39-.52-1.025-.299-1.476 1.251-2.547 2.855-4.92 4.554-7.193.132-.177.354.532.528.397.671-.521.955-1.417 1.556-2.017.552-.55 1.458-.741 1.87-1.402.165-.265-.455-.479-.506-.787-.03-.183.173-.334.298-.472 1.076-1.196 2.484-2.137 3.299-3.525.203-.345-.719-.64-.622-1.029.247-.994.938-1.831 1.538-2.661.426-.589 1.22-.902 1.516-1.565 1.071-2.398 1.397-5.09 2.518-7.465.989-2.097 2.729-3.774 3.766-5.847 1.308-2.616 2.02-5.497 3.236-8.157.724-1.583 1.929-2.928 2.571-4.545 1.381-3.478 2.163-7.17 3.474-10.675.527-1.407 1.625-2.579 2.027-4.027.107-.387-.703-.639-.622-1.032.075-.366.706-.306.956-.583a6.32 6.32 0 0 0 1.123-1.722c1.095-2.553 2.173-5.127 2.955-7.792 1.072-3.653 1.521-7.47 2.594-11.123 1.441-4.906 3.035-9.777 4.939-14.522.271-.674 1.103-.968 1.517-1.565 1.11-1.601 2.275-3.202 3.034-4.997 2.414-5.71 4.15-11.686 6.452-17.442.37-.925 1.19-1.627 1.547-2.557 1.315-3.42 2.139-7.017 3.45-10.439.194-.505.897-.729 1.03-1.252.078-.306-.631-.506-.51-.798.255-.617 1.177-.789 1.424-1.41.121-.304-.633-.513-.534-.825.658-2.061 2.161-3.811 2.682-5.911.178-.714-.792-1.367-.693-2.096.232-1.703.93-3.324 1.643-4.887.507-1.111 1.607-1.916 1.989-3.075.127-.385-.694-.638-.632-1.038.633-4.023 2.04-7.899 2.671-11.922.063-.402-.799-.668-.637-1.041.413-.957 1.479-1.48 2.092-2.323.432-.594.75-1.271 1.018-1.955 1.226-3.129 2.081-6.403 3.458-9.469.29-.647 1.145-.903 1.48-1.529 1.199-2.238 2.106-4.622 3.07-6.971 3.203-7.802 5.674-15.927 9.432-23.478.958-1.926 3.283-2.843 4.538-4.591 1.82-2.537 2.966-5.499 4.61-8.154.502-.811 1.163-1.517 1.81-2.218.992-1.073 1.991-2.147 3.101-3.097 1.16-.993 2.564-1.683 3.69-2.715a118.502 118.502 0 0 0 7.785-7.81c.705-.78.981-1.887 1.692-2.662a147.443 147.443 0 0 1 8.833-8.813c1.207-1.111 2.485-2.193 3.943-2.946 1.946-1.004 4.242-1.221 6.164-2.27 1.786-.974 3.062-2.727 4.834-3.727 1.379-.779 3.106-.779 4.495-1.54.843-.463 1.456-1.276 2.039-2.042.62-.816 1.3-1.665 1.538-2.661.093-.39-.543-.62-.666-1.002a1.71 1.71 0 0 1 0-1.054c.126-.368.558-.577.685-.944.118-.342.159-.753.014-1.084-.432-.988-.87-2.061-1.694-2.755a14.064 14.064 0 0 0-4.608-2.552c-.985-.326-2.12-.306-3.113-.004-2.975.906-5.888 2.085-8.618 3.573-1.064.58-1.567 1.907-2.599 2.543-1.594.982-3.491 1.375-5.155 2.233-1.463.754-2.946 1.529-4.203 2.591-1.283 1.084-2.035 2.715-3.337 3.776-.411.335-1.206-.155-1.575.226-.905.934-1.151 2.348-1.926 3.391-1.646 2.213-3.626 4.161-5.313 6.343-.566.732-.822 1.682-1.43 2.38-1.145 1.315-2.309 2.681-3.785 3.609-.329.208-.729-.873-1.004-.598-.315.315.302.855.303 1.3 0 .187-.159.351-.3.474-1.893 1.652-4.144 2.931-5.784 4.835-2.638 3.062-4.882 6.464-6.944 9.941-.859 1.449-1.058 3.207-1.762 4.738-.583 1.272-1.207 2.555-2.086 3.644-.588.728-1.723.918-2.233 1.704-1.612 2.488-2.866 5.204-4.016 7.937-2.976 7.073-5.446 14.35-8.35 21.453a24.205 24.205 0 0 1-2.036 3.957c-.4.621-1.232.923-1.539 1.594-1.395 3.055-2.185 6.358-3.501 9.447-.524 1.228-1.162 2.431-2.003 3.468-.132.163-.369-.555-.495-.387-.544.73-.861 1.624-1.087 2.506-.983 3.842-1.994 7.696-2.529 11.625-.098.716.883 1.374.665 2.063-.305.965-1.558 1.36-2.031 2.254-.773 1.463-1.298 3.066-1.636 4.685-.209 1.007-.137 2.068.016 3.085.047.313.675.471.562.767-.326.853-1.459 1.277-1.681 2.163-.159.631.953 1.24.679 1.83-.473 1.016-2.087 1.17-2.549 2.191-.293.645.804 1.337.64 2.026-.197.829-1.339 1.186-1.598 1.998-.119.373.569.593.651.975.144.669.323 1.45-.001 2.052-.631 1.171-2.149 1.732-2.693 2.947-.26.579.719 1.209.554 1.823-.174.644-1.176.788-1.424 1.408-.117.294.461.467.554.769.105.345.204.775.014 1.082-1.078 1.74-2.847 3.036-3.712 4.89-.273.585.683 1.216.568 1.851-.124.686-.899 1.081-1.212 1.704-.054.107.278.196.208.294-.387.544-1.177.789-1.42 1.411-.121.307.614.509.54.831-.299 1.303-.953 2.507-1.579 3.689-.257.486-.948.733-1.048 1.274-.074.394.731.644.621 1.029-.245.854-.86 1.604-1.54 2.176-.178.149-.385-.555-.564-.408-.816.667-1.453 1.556-1.965 2.477-1.012 1.822-1.994 3.697-2.576 5.699-.111.385.751.649.622 1.028-.275.81-1.434 1.143-1.641 1.972-.172.688.884 1.362.641 2.028-.389 1.07-1.75 1.528-2.299 2.525-.207.376.389.879.212 1.27-.275.609-1.177.789-1.424 1.41-.122.304.631.512.533.825-.647 2.068-2.046 3.855-2.65 5.936-.113.387.622.63.628 1.034.006.388-.604.612-.599 1 .006.403.709.639.629 1.034-.264 1.312-.943 2.514-1.58 3.691-.263.486-1.016.7-1.091 1.247-.097.703.725 1.325.641 2.029-.064.538-.794.771-1.034 1.257-.625 1.262-.76 2.761-1.535 3.937-.162.246-.447-.436-.736-.492-.136-.026-.326.159-.293.293.097.39.722.644.622 1.033-.281 1.088-1.366 1.854-1.646 2.942-.1.388.693.635.622 1.03-.095.532-.809.76-1.031 1.253-.677 1.509-1.251 3.077-1.635 4.686a4.593 4.593 0 0 0 .015 2.086c.089.381.566.577.695.947.115.332.175.75-.001 1.054-.308.534-.749 1.102-1.342 1.272-.374.108-.625-.508-1.004-.598-.135-.031-.32.158-.293.293.06.307.678.53.505.79-.618.928-1.943 1.255-2.506 2.218-.196.334.525.6.64.971.104.335.289.872-.012 1.052-.477.285-1.31-.475-1.667-.049-.44.523-.16 1.382-.015 2.05.085.394.771.611.675 1.003-.269 1.091-1.366 1.854-1.646 2.942-.1.388.83.686.622 1.03-1.384 2.288-3.807 3.873-5.028 6.252-1.349 2.628-1.299 5.809-2.539 8.49-.798 1.728-2.472 2.913-3.479 4.529-.656 1.053-.695 2.451-1.471 3.419-.64.797-1.925.866-2.59 1.643-2.491 2.914-4.312 6.354-6.766 9.299-.893 1.073-2.389 1.558-3.215 2.683-1.425 1.943-2.03 4.402-3.423 6.368-.595.839-1.763 1.117-2.433 1.897-1.372 1.598-1.96 3.892-3.634 5.17-1.863 1.422-4.878.932-6.535 2.589-2.543 2.544-3.471 6.306-5.398 9.344-.395.623-1.174.949-1.538 1.591-.775 1.371-.881 3.097-1.827 4.357-1.119 1.489-3.004 2.256-4.208 3.678-1.459 1.722-2.169 4.015-3.707 5.667-.51.546-1.517.231-2.153.623-.799.492-1.476 1.194-2.026 1.954-1.356 1.872-2.234 4.071-3.657 5.893-1.702 2.179-3.701 4.113-5.672 6.052-.443.436-1.21.523-1.544 1.048-1.437 2.256-2.193 4.906-3.668 7.137-.806 1.219-1.975 2.167-3.098 3.101-.754.626-1.838.825-2.498 1.549-1.466 1.608-2.428 3.616-3.771 5.327-.463.589-1.255.9-1.627 1.551-.118.204.59.421.41.575-1.156.998-2.676 1.496-3.889 2.425-.96.735-1.59 1.859-2.59 2.537-1.124.763-2.567.962-3.692 1.723-1.145.775-1.823 2.158-3.033 2.827-.34.188-.665-.795-.998-.597-.96.569-1.29 1.888-2.218 2.506-.26.173-.52-.667-.787-.506-1.565.941-2.642 2.569-4.208 3.508-.269.162-.49-.591-.792-.508-.55.152-.813.83-1.32 1.091-3.08 1.586-6.322 2.845-9.404 4.429-.657.337-1.105 1.02-1.78 1.319-2.428 1.077-4.889 2.139-7.466 2.78-.39.097-.608-.587-1.001-.673-.668-.147-1.403-.214-2.052.001-.518.171-.735.849-1.228 1.083-1.512.717-3.182 1.053-4.71 1.736-.404.181-.596.781-1.035.831-.387.044-.612-.598-1.001-.598-.389 0-.612.603-1 .598-.4-.004-.642-.726-1.028-.621-2.65.717-4.987 2.437-7.679 2.978-7.02 1.411-14.173 2.081-21.293 2.843-1.347.144-2.723.074-4.063-.129-3.124-.473-6.297-.877-9.288-1.894-3.135-1.067-5.837-3.182-8.95-4.31-4.052-1.469-8.39-2.04-12.463-3.45-3.087-1.068-6.027-2.529-8.96-3.967-.495-.242-.734-.948-1.275-1.049-.395-.073-.657.772-1.03.623-1.912-.764-3.43-2.317-5.31-3.155-3.021-1.346-6.317-2.01-9.331-3.37-.693-.313-1.022-1.142-1.64-1.583-1.731-1.236-3.719-2.101-5.38-3.43-1.692-1.353-2.975-3.16-4.62-4.57-.703-.602-1.705-.797-2.38-1.43-4.745-4.455-9.133-9.276-13.826-13.785-.302-.291-.838-.262-1.118-.574-1.428-1.59-2.489-3.49-3.94-5.06-.946-1.023-2.325-1.601-3.211-2.676-1.353-1.641-2.03-3.78-3.43-5.38-3.199-3.656-6.784-6.959-10.301-10.311-.303-.289-.822-.276-1.118-.573a78.417 78.417 0 0 1-5.151-5.736c-.664-.815-1.001-1.87-1.692-2.662a49.342 49.342 0 0 0-4.833-4.813c-.74-.642-1.807-.855-2.498-1.549-.734-.738-1.003-1.839-1.669-2.638-1.003-1.204-2.309-2.132-3.308-3.338-.591-.713-.804-1.698-1.43-2.38-3.128-3.407-6.814-6.291-9.785-9.835-.323-.385.624-1.096.298-1.479-.288-.339-.854.302-1.299.303-.187.001-.34-.17-.474-.299-1.463-1.41-3.02-2.741-4.31-4.31-1.089-1.325-1.673-3.021-2.789-4.324-.907-1.058-2.341-1.588-3.211-2.676-2.368-2.961-4.057-6.424-6.43-9.38-.934-1.163-2.369-1.825-3.419-2.884-.816-.823-1.473-1.793-2.149-2.734-3.185-4.432-6.117-9.047-9.432-13.382-1.03-1.346-2.573-2.249-3.57-3.62-1.686-2.318-2.678-5.101-4.426-7.374-1.61-2.092-3.964-3.533-5.574-5.626-1.748-2.272-2.817-5.001-4.426-7.374-1.873-2.761-3.841-5.467-6.004-8.006-.663-.778-1.718-1.14-2.419-1.884-2.43-2.582-4.483-5.503-6.94-8.06-2.181-2.269-4.776-4.116-6.949-6.394-.726-.761-1.007-1.865-1.692-2.662-1.412-1.643-3.204-2.939-4.57-4.62-2.977-3.664-5.473-7.7-8.43-11.38-1.124-1.399-2.599-2.48-3.786-3.825-.277-.315-.277-.822-.573-1.119-.985-.988-2.343-1.592-3.215-2.682-1.039-1.301-1.4-3.054-2.422-4.368-1.333-1.713-3.301-2.876-4.577-4.632-1.411-1.942-1.967-4.422-3.402-6.346-.58-.777-1.79-.844-2.476-1.53-.731-.732-.895-1.929-1.668-2.616-2.275-2.022-4.996-3.487-7.356-5.407a22.631 22.631 0 0 1-3.095-3.095c-.672-.808-1.019-1.854-1.692-2.662-1.003-1.204-2.309-2.132-3.308-3.338-.591-.713-.815-1.688-1.43-2.38-2.066-2.324-4.573-4.237-6.57-6.62-2.469-2.947-4.257-6.43-6.789-9.324-2.157-2.465-4.951-4.305-7.211-6.676-.726-.761-1-1.871-1.692-2.662-1.652-1.889-3.722-3.393-5.308-5.338-1.344-1.648-2.13-3.698-3.432-5.38-.341-.44-1.06-.456-1.417-.884-1.325-1.591-2.163-3.562-3.558-5.092-.66-.724-1.732-.938-2.498-1.549-.847-.675-1.544-1.519-2.31-2.285-.599-.599-1.266-1.14-1.785-1.81-.6-.775-.817-1.847-1.549-2.498-2.276-2.02-5.046-3.427-7.356-5.407-2.361-2.023-4.296-4.505-6.62-6.57-.692-.615-1.727-.774-2.38-1.43-1.77-1.776-3.036-4.01-4.808-5.783-.916-.916-2.242-1.337-3.192-2.217-3.665-3.393-6.875-7.266-10.62-10.57-1.941-1.713-4.358-2.813-6.38-4.43-1.323-1.059-2.336-2.463-3.62-3.57a37.58 37.58 0 0 0-4-3c-2.4-1.567-4.988-2.836-7.374-4.426-.627-.419-1.012-1.136-1.626-1.574-2.938-2.093-5.927-4.121-9.005-6.002-4.58-2.799-9.174-5.596-13.958-8.028-2.778-1.412-5.841-2.185-8.675-3.478-1.508-.688-2.834-1.729-4.324-2.454-1.548-.752-3.156-1.38-4.772-1.97-2.609-.951-5.186-2.052-7.897-2.649-1.33-.292-2.744-.22-4.085.015-.43.075-.747.5-.977.87a3.349 3.349 0 0 0-.482 1.484c-.078 1.006-.213 2.076.134 3.023.266.728.878 1.391 1.591 1.694 3.395 1.447 7.097 2.074 10.516 3.463 6.668 2.708 13.254 5.633 19.711 8.813 2.067 1.017 3.801 2.613 5.805 3.751 1.093.62 2.399.826 3.456 1.506 3.642 2.345 6.982 5.133 10.587 7.534 2.386 1.59 5.081 2.707 7.375 4.428 3.059 2.295 5.613 5.207 8.62 7.57 1.672 1.314 3.756 2.057 5.38 3.43 2.63 2.224 4.957 4.787 7.31 7.3.287.306.277.823.574 1.119 1.894 1.891 4.106 3.452 5.949 5.394.761.802 1.03 1.997 1.811 2.78.737.738 1.854.995 2.641 1.681.324.283.294.84.599 1.145 1.561 1.558 3.436 2.788 4.949 4.394.758.805.981 2.049 1.811 2.78 1.936 1.703 4.303 2.848 6.356 4.407.684.52 1.301 1.138 1.833 1.813.651.826.968 1.9 1.692 2.662 1.676 1.765 3.733 3.134 5.449 4.86 1.48 1.487 2.843 3.095 4.121 4.76 1.576 2.054 2.812 4.359 4.43 6.38 1.06 1.325 2.459 2.345 3.575 3.622 1.219 1.394 2.111 3.067 3.419 4.376 2.372 2.372 5.206 4.248 7.576 6.622.743.744 1.035 1.841 1.692 2.662.684.855 1.655 1.459 2.308 2.338 1.262 1.698 2.032 3.747 3.407 5.356.637.744 1.754.912 2.498 1.549 1.466 1.255 2.892 2.585 4.095 4.095 2.65 3.329 4.527 7.269 7.43 10.38 1.796 1.925 4.464 2.825 6.475 4.525 2.196 1.856 4.329 3.835 6.099 6.101 1.764 2.26 2.782 5.026 4.426 7.374.702 1.002 1.819 1.654 2.57 2.62 1.582 2.035 2.709 4.415 4.407 6.356.681.778 1.935.89 2.616 1.668 1.698 1.94 2.825 4.321 4.407 6.356.751.966 1.836 1.641 2.57 2.62 1.276 1.701 2.046 3.765 3.43 5.38 2.637 3.076 5.838 5.628 8.57 8.62.873.956 1.376 2.206 2.217 3.192a27.5 27.5 0 0 0 3.308 3.283c.753.627 1.861.805 2.498 1.549 1.375 1.608 2.057 3.727 3.407 5.356.951 1.148 2.421 1.776 3.419 2.884a80.791 80.791 0 0 1 6.151 7.736c1.644 2.348 2.639 5.132 4.426 7.374.887 1.112 2.448 1.502 3.455 2.508.685.686.87 1.761 1.526 2.474 1.21 1.314 2.895 2.156 4.018 3.545.198.244-.457.482-.508.792-.03.183.174.333.298.472 1.535 1.714 3.263 3.26 4.672 5.078 4.336 5.596 8.167 11.573 12.543 17.137 1.339 1.703 3.165 2.971 4.57 4.62 1.398 1.64 2.642 3.412 3.816 5.22.652 1.004.898 2.258 1.646 3.193.629.786 1.678 1.136 2.387 1.851a28.895 28.895 0 0 1 3.151 3.736c.721 1.03.938 2.397 1.791 3.322 3.094 3.352 6.779 6.115 9.947 9.396.768.795 1.031 1.996 1.811 2.78.684.687 1.826.806 2.474 1.526 2.432 2.704 4.205 5.96 6.668 8.636 1.294 1.408 3.204 2.143 4.522 3.528 2.404 2.526 4.244 5.543 6.576 8.136.674.749 1.67 1.146 2.399 1.843 3.593 3.439 7.215 6.861 10.55 10.551 1.546 1.71 2.518 3.883 4.051 5.606 1.239 1.391 2.941 2.312 4.211 3.676.717.769 1.019 1.854 1.692 2.662 1.003 1.204 2.309 2.132 3.308 3.338.583.704.732 1.738 1.407 2.356 1.648 1.507 3.801 2.392 5.442 3.908 2.752 2.542 4.904 5.69 7.676 8.211.931.846 2.353.988 3.322 1.791.966.801 1.486 2.035 2.37 2.926 1.649 1.661 3.291 3.366 5.208 4.708.257.18.483-.456.793-.508.182-.031.326.18.47.297 1.939 1.559 3.615 3.496 5.777 4.729 2.571 1.467 5.609 1.949 8.255 3.276 5.261 2.639 10.045 6.206 15.422 8.6 3.138 1.396 6.749 1.438 9.946 2.693 2.968 1.165 5.533 3.187 8.43 4.519 1.751.807 3.613 1.362 5.471 1.879 2.304.641 4.72.854 6.995 1.591.51.165.677.97 1.205 1.065"/>
</svg>