<svg xmlns="http://www.w3.org/2000/svg" xmlns:xlink="http://www.w3.org/1999/xlink" width="976" height="684" baseProfile="tiny" version="1.2" viewBox="-633 69 976 684">
<style>
    path:not([stroke]) {
        stroke: black;
    }
    path:not([fill]) {
        fill: black;
    }
    @media (prefers-color-scheme: dark) {
        path:not([stroke]) {
            stroke: white;
        }
        path:not([fill]) {
            fill: white;
        }
    }
</style>
<path stroke="none" d="M-392.21 670.679c.894-.501 1.684-1.267 2.68-1.503.391-.093.629.627 1.03.623.388-.004.602-.525.973-.642a1.786 1.786 0 0 1 1.054 0c.371.117.584.644.973.642.391-.002.588-.591.974-.652 1.325-.208 2.689-.276 4.022-.132.713.077 1.288.75 2.004.784.388.019.602-.525.973-.642.335-.106.72-.109 1.054 0 .384.125.611.748 1.007.672 1.733-.331 3.238-1.491 4.972-1.815 1.318-.246 2.696-.075 4.02.133.386.061.583.642.974.652.388.011.612-.607 1-.598.388.008.584.642.973.642.709 0 1.318-.638 2.027-.642.401-.003.642.726 1.029.622 1.084-.292 1.895-1.22 2.917-1.685.324-.148.704-.117 1.06-.124 1.663-.034 3.337-.184 4.99.001.713.08 1.288.75 2.004.784.388.018.602-.525.973-.642a1.724 1.724 0 0 1 1.054 0c.368.126.577.557.944.685.343.119.74.118 1.09.021 1.665-.466 3.187-1.475 4.902-1.696.724-.093 1.307.796 2.037.802.714.006 1.287-.728 2-.768.388-.022.612.62 1 .598.713-.04 1.286-.778 2-.768.713.009 1.274.689 1.974.821 1.006.19 2.091.431 3.07.131 1.12-.344 1.75-1.823 2.912-1.966 4.314-.532 8.699-.226 13.04-.002 1.053.054 2.088 1.261 3.052.833.616-.273-1.431-1.116-1.095-1.701.344-.599 1.397-.144 2.073.001.382.082.583.641.974.651.388.011.612-.62 1-.598.713.04 1.286.768 2 .768s1.287-.728 2-.768c.388-.022.612.598 1 .598s.611-.58.998-.597c.32-.015.5.587.813.515.498-.115.673-.988 1.184-.974.522.014.653 1.087 1.173 1.037 1.678-.162 3.13-1.347 4.795-1.613.402-.064.614.596 1.011.685a4.845 4.845 0 0 0 2.052 0c.382-.082.583-.649.974-.651.406-.004.637.687 1.04.636 10.69-1.356 21.286-3.392 31.967-4.823a9.012 9.012 0 0 1 3.019.134c.383.08.555.695.947.695.937-.002 1.789-.795 2.722-.702.571.057.748 1.072 1.321 1.105.505.028.674-1.056 1.171-.964.775.144 1.036 1.384 1.813 1.517.516.088.698-.895 1.211-.999a94.11 94.11 0 0 1 11.747-1.641c.407-.03.607.678 1.014.684.709.01 1.319-.642 2.028-.643.408 0 .635.661 1.043.643 7.319-.333 14.595-1.366 21.914-1.686.407-.017.627.555 1.013.685.345.117.733.08 1.093.025 3.309-.507 6.563-1.395 9.895-1.707.425-.039.658.709 1.084.68 3.789-.258 7.546-.896 11.292-1.523 3.565-.597 7.043-1.695 10.629-2.149.401-.051.624.549 1.008.674.341.112 1.121.362 1.077.006-.082-.656-1.249-.867-1.266-1.528-.011-.418.807-.354 1.22-.289 1.037.163 1.959.829 3.001.954 1.653.197 3.339.185 4.993 0 .713-.08 1.288-.751 2.004-.784.407-.02.636.68 1.042.64 9.992-.991 19.898-2.769 29.895-3.707.736-.07 1.367.772 2.104.705 3.361-.308 6.6-1.517 9.962-1.809.711-.062 1.284.738 1.997.769.388.017.602-.525.973-.642.335-.106.721-.11 1.054 0 .387.127.609.724 1.014.682 3.004-.312 5.912-1.25 8.897-1.709.688-.106 1.409-.138 2.088.018.4.091.607.718 1.016.693 10.206-.646 20.388-1.653 30.562-2.691 5.134-.523 10.21-1.566 15.354-1.99.406-.034.635.659 1.042.639.716-.034 1.287-.761 2.003-.784 7.328-.24 14.667-.256 21.994 0 .715.025 1.274.701 1.977.837.989.192 2.013.162 3.02.133.411-.011 1.514.021 1.208-.254-.897-.81-4.448-1.385-3.257-1.593 4.285-.751 8.705-.322 13.051-.123.942.043 1.758.905 2.699.843.573-.037.748-1.072 1.321-1.104.505-.029.676 1.063 1.171.963.775-.156 1.01-1.411 1.785-1.559.92-.176 1.79.794 2.723.701.571-.057.751-1.035 1.321-1.105.545-.067.911.717 1.458.765.535.047.993-.474 1.53-.504 3.21-.178 6.472.41 9.643-.117.976-.162 1.344-1.637 2.306-1.87.707-.171 1.303.709 2.02.824 1.327.213 2.684.139 4.027.148.887.005 1.837.228 2.66-.106.688-.28.832-1.41 1.55-1.605.618-.168 1.152.684 1.793.696 11.661.221 23.334.419 34.99.001 5.353-.192 10.62-1.468 15.964-1.828.426-.028.66.723 1.084.681 3.01-.3 5.908-1.376 8.918-1.678.404-.04.626.552 1.011.681.346.116.733.084 1.093.024 3.326-.551 6.578-1.652 9.944-1.851 1.69-.1 3.293.959 4.987.969.904.006 1.666-.742 2.552-.921 3.78-.765 7.574-1.526 11.412-1.903.406-.04.627.555 1.014.683.334.11.716.092 1.055 0 .689-.188 1.262-.816 1.976-.828a1440.58 1440.58 0 0 1 47.993 0c.716.012 1.283.666 1.978.837.657.161 1.349.146 2.026.146.677 0 1.368.013 2.026-.146.693-.167 1.261-.812 1.974-.821.714-.01 1.286.771 2 .768.717-.003 1.289-.721 2.003-.784 2.323-.206 4.665-.048 6.997-.014.677.01 1.372-.028 2.026.146.378.101.583.642.974.652.388.011.612-.609 1-.598.39.01.596.551.973.651.655.174 1.35.146 2.027.146s1.373.034 2.026-.146c.394-.108.608-.735 1.014-.69 2.682.296 5.239 1.365 7.919 1.676.404.047.634-.64 1.041-.637.391.002.596.553.974.651.653.171 1.356.245 2.022.132.725-.124 1.312-.865 2.046-.825 4.666.25 9.254 1.373 13.916 1.682.409.027.62-.584 1.016-.694.652-.18 1.349-.146 2.026-.146 1.01 0 2.036-.051 3.026.146.383.077.583.642.974.652.388.011.612-.607 1-.598.388.008.584.66.972.642 1.047-.049 1.991-.708 3.031-.828a9.56 9.56 0 0 1 3.023.133c.383.079.555.688.947.694.708.013 1.318-.641 2.027-.641.388 0 .584.642.972.642.709 0 1.319-.632 2.028-.642.388-.006.611.598 1 .598.388 0 .612-.607 1-.598.388.008.602.524.972.642.336.106.72.106 1.055 0 .371-.118.584-.642.973-.642.388 0 .602.525.972.642.336.106.723.115 1.055-.001.37-.128.561-.63.947-.694a14.852 14.852 0 0 1 4.022-.133c.713.077 1.287.784 2.004.784.717 0 1.288-.732 2.003-.784 2.991-.217 5.998-.048 8.997-.015 1.01.011 2.038-.062 3.026.148.383.081.577.566.946.694.333.116.715.09 1.055.001.568-.15 1.19-1.109 1.615-.704 1.729 1.65 2.376 4.181 3.931 5.994 1.251 1.458 2.623 2.992 4.401 3.718 1.55.634 3.35.23 5.022.134.531-.031 1.176-.096 1.511-.508 1.129-1.385 1.53-3.275 2.683-4.639.631-.747 1.568-1.265 2.514-1.514.459-.12.881.658 1.33.505 2.196-.747 4.118-2.144 6.242-3.078 2.109-.927 4.448-1.35 6.445-2.5 1.094-.63 2.206-1.536 2.63-2.725.563-1.577.336-3.36.134-5.023a5.532 5.532 0 0 0-1.066-2.646c-.483-.634-1.26-.996-1.978-1.342-2.037-.981-4.106-1.924-6.256-2.624-2.27-.74-4.765-.745-6.96-1.682-6.151-2.628-12.026-5.863-17.953-8.962-1.137-.595-2.037-1.609-3.218-2.109a3.21 3.21 0 0 0-2.048-.123c-1.308.359-2.524 1.019-3.696 1.7-.434.252-.794.643-1.066 1.066-.591.919-.753 2.116-1.496 2.918-.204.219-.455-.448-.751-.494-.154-.023-.366.176-.331.327.52 2.255.167 5.184 1.945 6.666 2.44 2.034 6.223 1.408 9.169 2.596 1.637.66 3.183 1.648 4.435 2.891.298.296-.802.297-1.221.3-11.996.096-23.996.261-35.99 0-.714-.016-1.263-.795-1.977-.828-.708-.032-1.319.664-2.027.642-.714-.023-1.286-.776-2-.768-.733.007-1.311.844-2.043.811-5.66-.261-11.257-1.369-16.914-1.684-.408-.023-.607.685-1.016.685-.704 0-1.295-.685-2-.686-.726 0-1.344.733-2.069.683-8.995-.62-17.923-2.025-26.916-2.682-.406-.029-.634.66-1.042.641-.716-.033-1.286-.775-2.004-.784-20.33-.258-40.664-.057-60.996-.014-.677.001-1.372-.028-2.026.146-.378.101-.584.642-.974.652-.388.011-.612-.598-1-.598s-.612.598-1 .598-.612-.609-1-.598c-.391.01-.596.551-.974.651-.654.175-1.349.147-2.026.147-1.676 0-3.365.075-5.026-.146-.387-.052-.583-.642-.974-.652-.388-.011-.612.598-1 .598s-.612-.609-1-.598c-.391.01-.591.576-.974.651-.99.195-2.023.269-3.023.133-.728-.1-1.311-.873-2.045-.825-3.674.242-7.247 1.376-10.916 1.68-.409.034-.62-.584-1.016-.693-.653-.179-1.349-.145-2.026-.145-.677 0-1.372-.029-2.026.145-.378.101-.583.65-.974.652-.388.002-.584-.642-.973-.642-.709 0-1.318.642-2.027.642-.388 0-.601-.522-.97-.642-.347-.112-.73-.061-1.094-.025-5.302.526-10.575 1.387-15.894 1.71-.425.025-.658-.715-1.083-.681-7.997.639-15.92 2.04-23.917 2.68-.407.033-.607-.679-1.015-.684-.709-.01-1.318.642-2.027.642-.389 0-.584-.646-.973-.642-1.043.011-2.011.712-3.054.686-.711-.018-1.262-.804-1.973-.812-.714-.008-1.287.738-2 .768-.407.018-.636-.68-1.041-.638-3.009.314-5.91 1.364-8.918 1.678-.405.042-.634-.631-1.04-.639-.39-.007-.613.608-1.001.599-.389-.008-.584-.642-.973-.642-.709 0-1.319.664-2.027.642-.713-.022-1.286-.823-1.997-.769-13.363 1.014-26.645 2.959-40.01 3.956-4.318.322-8.666.237-12.99-.001-.734-.041-1.31-.862-2.046-.827-5.328.254-10.59 1.369-15.915 1.684-.407.024-.607-.68-1.015-.685-.709-.01-1.318.642-2.027.642-.389 0-.584-.642-.973-.642-.709 0-1.318.64-2.027.642-.406.001-.638-.694-1.039-.634-2.029.302-3.892 1.382-5.922 1.67-.421.06-.657-.705-1.081-.676-4.656.321-9.238 1.417-13.895 1.708-.717.045-1.317-.698-2.036-.71-.709-.012-1.318.642-2.027.642-.408 0-.635-.667-1.043-.641-13.279.856-26.547 1.937-39.786 3.273-15.345 1.548-30.659 3.394-45.953 5.377-3.755.487-7.414 1.613-11.178 2.03-.404.045-.626-.554-1.013-.681a1.688 1.688 0 0 0-1.054 0c-.37.129-.559.641-.947.695-1.659.23-3.355.287-5.023.133-.714-.067-1.303-.937-2.003-.784-.838.182-1.237 1.212-1.974 1.65-.297.177-.683.133-1.03.134-1.008 0-2.033.062-3.022-.133-.384-.075-.584-.648-.974-.651-.406-.004-.638.694-1.039.634-2.029-.302-3.874-1.577-5.923-1.67-.63-.029-1.334.708-1.337 1.338-.002.458.891-.451 1.333-.332 1.135.307 2.308.748 3.172 1.547.303.281-.798.261-1.212.267-5.996.083-11.999.248-17.991 0-.713-.03-1.262-.795-1.976-.828-.708-.033-1.319.667-2.027.642-.717-.025-1.29-.714-2.004-.784-1.988-.195-3.999-.129-5.993 0a3.408 3.408 0 0 0-1.485.482c-.573.341-.859 1.202-1.518 1.302-.706.107-1.286-.775-2-.768-.731.006-1.313.883-2.039.804-2.039-.222-3.893-1.368-5.922-1.67-.402-.06-.633.638-1.039.634-.391-.003-.596-.553-.974-.652-.654-.17-1.355-.239-2.022-.131-.708.115-1.288.75-2.004.783-.407.019-.637-.687-1.042-.64-14.337 1.643-28.58 4.047-42.918 5.678-.404.046-.606-.675-1.013-.68-.708-.009-1.318.632-2.027.642-.388.006-.612-.598-1-.598-.389 0-.612.607-1 .598-.388-.008-.602-.525-.973-.642a1.786 1.786 0 0 0-1.054 0c-.371.117-.585.642-.973.642s-.602-.524-.971-.642c-.344-.11-.751-.152-1.084-.014-1.036.432-1.83 1.401-2.916 1.68-.391.1-.608-.596-1.003-.676-.989-.198-2.023-.268-3.023-.132-1.04.142-1.953.926-3.003.954-.712.019-1.281-.656-1.974-.821-.657-.157-1.367-.294-2.022-.132-.811.201-1.385 1.045-2.209 1.18-5.23.863-10.519 1.349-15.802 1.79-1.336.112-2.697.084-4.019-.134-.405-.066-.607-.713-1.016-.693-14.286.699-28.568 1.572-42.814 2.84-3.404.302-6.663 1.869-10.08 1.866-2.263-.002-4.906-.298-6.523-1.881-1.619-1.586-1.584-4.268-2.027-6.491-.197-.988-.069-2.032.133-3.019.083-.402.72-.607.694-1.017-.31-4.993-1.356-9.922-1.682-14.915-.027-.407.66-.635.64-1.042-.033-.716-.733-1.288-.784-2.004a64.418 64.418 0 0 1 0-8.993c.072-1.044.779-1.984.828-3.03.018-.389-.634-.585-.642-.973-.009-.388.609-.612.598-1-.01-.391-.553-.596-.652-.974-.17-.654-.239-1.356-.131-2.022.115-.708.739-1.288.783-2.004.024-.388-.727-.634-.598-1.001.283-.807 1.434-1.142 1.641-1.972.172-.687-.664-1.319-.641-2.027.022-.714.778-1.286.768-2-.009-.713-.729-1.267-.821-1.974-.201-1.549-.365-3.157-.042-4.685.158-.751 1.192-1.081 1.414-1.815.158-.521-.478-1.052-.384-1.588.354-2.016 1.474-3.865 1.699-5.899.081-.729-.82-1.309-.819-2.043.002-1.369.79-2.655.827-4.023.01-.392-.615-.564-.695-.947a9.166 9.166 0 0 1-.133-3.023c.092-.711.74-1.287.784-2.003.024-.388-.598-.612-.598-1 0-.389.607-.612.598-1-.008-.408-.664-.635-.642-1.043.672-12.313 2.065-24.58 2.711-36.894.038-.722-.651-1.34-.667-2.063-.009-.388.607-.612.598-1-.008-.389-.642-.584-.642-.973 0-.709.642-1.318.642-2.027 0-.388-.522-.601-.641-.97-.113-.347-.063-.731-.026-1.093.534-5.296 1.431-10.56 1.736-15.874.042-.738-.784-1.368-.705-2.103.254-2.36 1.382-4.565 1.674-6.92.05-.406-.607-.614-.69-1.014-.204-.989-.146-2.016-.146-3.026 0-.677-.028-1.372.146-2.026.101-.378.65-.583.652-.974.002-.389-.642-.584-.642-.973 0-.709.632-1.318.642-2.027.006-.388-.622-.612-.598-1 .044-.716.769-1.287.784-2.004a826.348 826.348 0 0 0 0-34.993c-.015-.717-.751-1.287-.784-2.003-.019-.408.66-.635.642-1.043-.333-7.319-1.419-14.593-1.686-21.914-.026-.732.804-1.31.812-2.043.008-.714-.728-1.287-.768-2-.022-.388.598-.611.598-1s-.598-.612-.598-1c0-.389.598-.612.598-1 0-.389-.598-.611-.598-1s.598-.611.598-1c0-.388-.609-.612-.598-1 .01-.391.576-.591.651-.974.195-.99.263-2.022.133-3.023-.092-.711-.74-1.287-.784-2.003-.024-.389.874-.73.597-1.004-.317-.314-.927.544-1.304.304-.394-.25-.489-.909-.35-1.355.333-1.071 1.389-1.833 1.679-2.916.104-.388-.626-.628-.623-1.029.004-.408.671-.636.641-1.042-.323-4.33-1.359-8.586-1.682-12.916-.03-.406.632-.634.64-1.042.008-.388-.622-.612-.598-1 .044-.716.704-1.291.784-2.003.185-1.654.185-3.34 0-4.994-.08-.712-.74-1.287-.784-2.003-.024-.388.622-.612.598-1-.044-.716-.668-1.296-.783-2.004-.108-.667-.039-1.369.131-2.022.099-.378.642-.584.652-.974.011-.388-.607-.612-.598-1 .008-.388.646-.584.642-.973-.011-1.043-.685-2.011-.686-3.055 0-.407.715-.607.683-1.014-.308-4-1.372-7.917-1.68-11.916-.032-.406.553-.627.682-1.012.117-.346.055-.73.026-1.093-.532-6.635-1.387-13.246-1.71-19.894-.02-.41.612-.615.695-1.017a9.868 9.868 0 0 0 .133-3.019c-.791-7.34-2.141-14.615-2.825-21.966-.04-.424.693-.657.678-1.082-.083-2.396-.747-4.739-.962-7.126-1.012-11.254-2.059-22.51-2.718-33.791-.024-.407.555-.626.684-1.013.114-.343.152-.75.013-1.084-.431-1.036-1.481-1.812-1.679-2.916-.128-.715.795-1.303.792-2.029-.004-1.045-.781-1.983-.812-3.027-.011-.392.615-.564.695-.947.206-.987.212-2.017.132-3.023-.037-.461-.06-1.105-.478-1.303-.354-.168-.627.515-1.009.599-.151.032-.413-.163-.35-.303.478-1.052 1.826-1.791 1.825-2.947-.002-1.772-1.58-3.236-1.833-4.99-.133-.928.908-1.798.725-2.717-.144-.723-1.278-.877-1.575-1.551-.127-.288.563-.451.553-.766-.022-.708-.631-1.317-.641-2.025-.006-.388.607-.612.598-1-.008-.388-.63-.584-.642-.973-.02-.633.726-1.208.554-1.818-.226-.794-1.617-1.062-1.605-1.887.011-.747 1.642-.763 1.655-1.51.017-1.067-1.332-1.746-1.584-2.783-.094-.389.541-.619.665-1a1.86 1.86 0 0 0 .019-1.088c-.506-1.683-1.565-3.207-1.831-4.944-.108-.705.739-1.284.769-1.997.017-.388-.646-.584-.642-.973.011-1.043.675-2.011.686-3.054.004-.389-.634-.585-.642-.973-.009-.388.598-.611.598-1s-.598-.611-.598-1 .607-.612.598-1c-.008-.389-.525-.602-.642-.973a1.77 1.77 0 0 1 0-1.054c.123-.382.763-.613.666-1.002-.271-1.09-1.379-1.851-1.646-2.942-.1-.408.691-.652.663-1.071-.249-3.688-.842-7.349-1.478-10.99-.585-3.342-1.716-6.581-2.183-9.941-.055-.396.661-.6.664-1 .005-.709-.632-1.318-.642-2.027-.006-.389.728-.634.598-1.001-.286-.808-1.325-1.18-1.65-1.973-.26-.633-.145-1.383-.001-2.052.082-.382.641-.584.651-.974.011-.388-.604-.612-.598-1 .005-.404.713-.64.628-1.034-.298-1.387-1.448-2.509-1.69-3.907-.122-.71.656-1.338.66-2.059.002-.389-.525-.602-.642-.973a1.755 1.755 0 0 1 0-1.054c.127-.387.732-.61.68-1.013-.304-2.348-1.437-4.544-1.702-6.897-.082-.73.83-1.372.688-2.092-.218-1.1-1.453-1.817-1.679-2.916-.145-.704.642-1.336.655-2.055.008-.388-.609-.612-.598-1 .01-.391.568-.593.651-.974.148-.68.182-1.411.015-2.086-.744-3.006-2.221-5.825-2.73-8.879-.176-1.055.822-2.059.729-3.124-.246-2.819-.99-5.579-1.725-8.312-.512-1.905-1.474-3.667-2.007-5.566-.185-.662-.189-1.374-.132-2.059.065-.781-.287-2.38.493-2.301 1.277.13 2.21 1.5 2.807 2.636 1.214 2.312 1.442 5.034 2.481 7.429.489 1.128 1.001 2.441 2.066 3.054 2.327 1.339 4.969 2.314 7.645 2.533 1.349.11 2.548-.944 3.731-1.602.437-.242.77-.652 1.06-1.059.593-.833 1.375-1.631 1.571-2.635.138-.706-.642-1.336-.655-2.055-.008-.389.745-.641.598-1.001-.562-1.377-1.58-2.53-2.514-3.689-.768-.953-1.836-1.641-2.57-2.62-1.276-1.701-2.059-3.755-3.43-5.38a60.863 60.863 0 0 0-7.095-7.095c-2.047-1.74-4.176-3.495-6.636-4.577-1.236-.544-2.757-.517-4.048-.124-2.724.83-5.387 2.04-7.697 3.704-1.366.985-2.264 2.541-3.041 4.036-.873 1.682-.9 3.735-1.846 5.378-.466.81-1.676.948-2.23 1.702-4.016 5.473-7.347 11.431-11.404 16.875-.187.252-.486-.446-.794-.506-.135-.027-.329.16-.293.293.103.375.526.605.642.977.103.335.288.872-.013 1.052-.475.285-1.509-.583-1.66-.05-.286 1.006.674 1.993.814 3.029.09.669.039 1.368-.132 2.022-.098.378-.871.651-.651.974 1.143 1.681 2.524 3.314 4.273 4.351.883.524 2.09.283 3.08.011.988-.27 1.828-.949 2.636-1.577.784-.61 1.588-1.26 2.103-2.108 1.028-1.692 1.442-3.707 2.46-5.404.993-1.656 2.467-2.981 3.535-4.589 1.256-1.891 2.092-4.049 3.424-5.887.134-.185.435.239.513.454.707 1.956 1.457 3.921 1.81 5.97 1.63 9.479 2.946 19.011 4.127 28.556 2.213 17.884 4.194 35.797 6.053 53.722.689 6.644.87 13.335 1.589 19.976.489 4.519 1.61 8.959 2.032 13.485.038.404-.55.625-.678 1.01-.116.346-.086.734-.024 1.093.51 2.971 1.308 5.891 1.736 8.875.147 1.019.158 2.074-.018 3.088-.069.404-.728.608-.691 1.015.301 3.339 1.362 6.58 1.678 9.917.039.406-.658.635-.638 1.042.034.716.692 1.292.784 2.003.13 1.001.068 2.035-.132 3.023-.082.4-.747.609-.688 1.013.296 2.024 1.506 3.862 1.699 5.899.1 1.055-.742 2.01-.849 3.065a15.803 15.803 0 0 0 .132 4.023c.061.386.642.583.652.974.011.388-.598.611-.598 1 0 .388.598.611.598 1 0 .388-.598.611-.598 1 0 .388.62.612.598 1-.04.712-.888 1.294-.769 1.998.299 1.767 1.505 3.273 1.955 5.008.169.653.05 1.37-.133 2.02-.107.379-.614.565-.704.948-.156.666-.267 1.423.001 2.052.338.793 1.25 1.214 1.702 1.948.182.294.134.683.134 1.03 0 1.341.082 2.698-.132 4.022-.065.401-.761.61-.682 1.008.276 1.396 1.382 2.536 1.658 3.932.082.414-.7.654-.668 1.075.694 9.011 2.4 17.938 2.825 26.966.517 10.984.219 21.995-.001 32.99-.013.641-.834 1.167-.696 1.794.194.881 1.329 1.333 1.576 2.201.109.387-.662.606-.664 1.008-.003.391.553.596.651.974.171.653.294 1.365.133 2.02-.422 1.709-1.512 3.219-1.851 4.947-.327 1.67-.503 3.446-.117 5.103.224.96 1.438 1.414 1.848 2.311.14.306-.035.861-.362.943-.379.096-.629-.507-1.009-.599-.139-.033-.283.14-.33.275-.118.341-.297.751-.135 1.073.442.878 1.43 1.412 1.836 2.308.139.306-.035.861-.362.943-.378.096-.627-.508-1.007-.597-.135-.031-.366.176-.295.295.44.738 1.215 1.238 1.65 1.978.175.297.19.689.118 1.026-.15.698-.74 1.286-.768 2-.015.39.553.596.651.974.171.653.249 1.357.132 2.022-.124.705-.726 1.271-.836 1.978-.189 1.21-.403 2.502-.046 3.673.288.946 1.627 1.346 1.87 2.306.178.707-.74 1.318-.771 2.047-.017.388.658.584.642.973-.044 1.043-.803 1.982-.812 3.027-.006.714.738 1.286.768 2 .017.388-.525.602-.642.973a1.724 1.724 0 0 0 0 1.054c.127.368.559.577.686.946.114.332.114.722 0 1.054-.127.368-.68.556-.686.946-.01.708.644 1.318.642 2.027-.001.391-.576.591-.652.974-.194.989-.262 2.022-.132 3.022.092.712.75 1.288.784 2.004.019.388-.642.584-.642.973 0 .708.642 1.318.642 2.027 0 .388-.523.601-.641.971-.112.346-.098.735-.023 1.092.487 2.317 1.387 4.55 1.702 6.897.054.403-.629.634-.636 1.04-.008.388.598.611.598 1 0 .388-.622.612-.598 1 .044.716.668 1.296.783 2.004.108.666.039 1.368-.132 2.022-.098.378-.641.583-.651.974-.011.388.609.612.598 1-.01.39-.553.596-.652.974-.17.653-.239 1.355-.131 2.022.115.708.739 1.288.783 2.004.024.388-.598.611-.598 1 0 .388.598.611.598 1 0 .388-.622.612-.598 1 .044.716.756 1.287.784 2.003.235 5.993.235 12 0 17.993-.028.717-.751 1.288-.784 2.004-.02.407.671.636.64 1.042-.332 4.323-1.42 8.569-1.709 12.895-.049.738.748 1.366.709 2.105-.626 11.601-1.462 23.197-2.695 34.749-.331 3.108-1.618 6.06-1.991 9.163-.085.71.633 1.331.644 2.046.006.388-.62.612-.598 1 .04.713.776 1.286.768 2-.008.711-.782 1.262-.812 1.973-.03.708.632 1.318.642 2.027.006.388-.62.612-.598 1 .04.713.768 1.286.768 2s-.728 1.287-.768 2c-.022.388.598.611.598 1 0 .388-.607.612-.598 1 .008.388.525.602.642.973.106.335.106.719 0 1.054-.117.371-.634.584-.642.973-.009.388.598.611.598 1 0 .388-.598.611-.598 1s.728.634.598 1c-.286.809-1.325 1.181-1.65 1.974-.26.633-.145 1.383-.001 2.052.082.382.649.583.651.974.002.388-.525.602-.642.973a1.724 1.724 0 0 0 0 1.054c.127.368.68.556.686.946.01.708-.641 1.318-.642 2.027-.001.406.683.636.634 1.039-.652 5.335-2.097 10.557-2.702 15.898-.081.718.66 1.34.666 2.063.003.388-.525.602-.642.973a1.786 1.786 0 0 0 0 1.054c.117.371.644.584.642.973-.002.391-.601.586-.652.974-.217 1.66-.287 3.355-.132 5.022.066.715.752 1.288.784 2.004.017.39-.576.591-.652.974-.194.989-.262 2.022-.132 3.023.092.711.752 1.287.784 2.003.017.39-.601.586-.652.974-.217 1.66-.287 3.355-.132 5.022.066.715.782 1.287.784 2.004.003.713-.822 1.285-.769 1.997.3 4.021 1.448 7.945 1.81 11.961.037.406-.631.634-.639 1.042-.008.388.598.611.598 1 0 .388-.62.612-.598 1 .04.712.874 1.292.769 1.997-.309 2.084-1.552 3.942-1.956 6.009-.255 1.306-.155 2.67.001 3.991.123 1.04 1.139 2.031.827 3.03-.397 1.27-2.035 1.79-2.693 2.947-.334.586-.167 1.346-.134 2.02.022.446.08.917.297 1.308.632 1.14 1.233 2.368 2.217 3.222 1.776 1.541 3.588 3.52 5.917 3.838 7.613 1.041 15.369.326 23.051.123.716-.019 1.289-.718 2.003-.785m174.29-10.673c-.437-.12-.858-.352-1.31-.359-.146-.002-.405.255-.282.332.387.245.875.324 1.332.332m-2.74-.305c-.437-.12-.858-.352-1.31-.359-.146-.002-.405.255-.282.332.387.245.875.324 1.332.332M-419.183 384.54c-.105-.448.146-1.333-.314-1.345-.456-.011-.436.884-.332 1.329"/>
<path fill="none" stroke-linecap="round" stroke-linejoin="round" stroke-width="4" d="m-611.57 326.149-1.808-.592-.42.148.308-.196-1.393-.249-.534-.423-.954-.065-.99-.618-.025-.354-1.157.111-.798-.208-.031-.283-2.385-.092-2.018 1.919-1.232 1.784-.634 1.682-1.547.8.572 2.524-1.323 2.953.204 1.072-.71 2.251.304 1.171-.48 2.794.678 2.001.291 3.661.631 1.71-.372 1.482 2.605 2.249 5.412 3.069 2.38.39 1.717.675 6.769-.441 6.99-3.448 2.872-3.942.979-1.827.876-8.143-1.351-4.645-1.299-3.03-2.804-3.898-3.393-2.771-1.548-.657-4.641-.361-3.255 1.032"/>
<path fill="none" stroke-linecap="round" stroke-linejoin="round" stroke-width="4" d="m-608.114 345.97-.77.551.963.142-.834-.184.153.338.847.381 1.681 3.028 2.011 2.144 2.701 1.725 1.612 1.655 4.156 3.306 6.748 2.722-1.779-.247-.893-.791-.843-.281M-589.257 346.974l-1-1.227.085-.324.307.045.16.369-.287.245.605.159.223.396.382 3.135 2.338 3.592 3.872 3.527 1.826.035 3.001-4.415 1.059-3.08-.623-4.243.707 1.187.477 5.114 1.031 2.617 1.2 1.702 2.283 2.042 1.358.981-.268-.19.343-.424M-565.382 350.523l-.728-.452.292-.031.629.542-.048-.2 1.166-.046 1.504.751 1.698.033 3.106-.994-.107-1.524-.407-.65-1.226-.26-2.571-2.067-1.504-.205-.139.611-2.391 2.435-.616 1.322.059 2.505.379 1.629 2.822 3.275 3.508 1.798 2.435.358 1.651.62 1.899-.902 1.506-1.696 1.427-.695"/>
<path fill="none" stroke-linecap="round" stroke-linejoin="round" stroke-width="4" d="m-542.941 347.565-.177-1.298-1.834-1.081-2.933.077-1.673.808-.999 1.762-.013.965.598.71-.009.554 1.72 1.053 8.907 3.178 1.021 1.247.566 1.213-.184.373-2.467 1.418-10.949-.504-1.631.678.442.358M-533.241 330.901l.062-.915-.603-.619-1.855-.767.868 2.443.032 3.548 1.704 8.377.678 5.528.399 7.024-.319 3.361-.76.815.301.685-.296-.038-.133-.698"/>
<path fill="none" stroke-linecap="round" stroke-linejoin="round" stroke-width="4" d="m-521.871 348.401-.117-.897-1.701-.947-3.398-.209-2.094.21-4.823 1.345-2.175 1.498M-513.716 348.142l-.887-.759-.022.499.337-.073-.135.936 1.403 5.239-.308 1.856-.576.827.013 1.062-.852 2.049.467.617-1.293.641.057.357M-505.24 352.456l-.637-1.388-.538-.06-.122-.327-.414.292-.409-.496.488.053-.128.39.432.46-.417.506-.26 1.862-.752.756.363.301.857 4.234 2.251 2.396.364-.057 2.496 1.545 1.809.48.547-.212 1.444.198 1.849-1.591.72-2.019-.175-.824.424-1.25.14-2.286-.542-2.663-1.891-1.963-.614-.374-.638.084-1.51-.899-.264-.473-1.194.03-.376-.32-.865.282.763 2.044.666.895 1.076.638M-487.09 350.523l-.763.214-.567-.237-.689.364-.07 2.784.265.577-.515 1.809.279 1.875.218.042-.372-.096.121-.189 1.589-1.578 1.084-1.872 1.051-.559 1.534-3.028 1.447-1.757 1.873-1.43 1.815-.463-.076.293.69.431-.039.473.549.672.591.149 1.25 1.422.133 6.541.711 1.864-.256.509.32.158.259 1.085.261-.152-.083.362M-460.124 348.325l1.139.977.331-.431-.712-.362-2.284-.219-2.057.166-.271.405-1.414.228-.132.302 3.387 5.327.626.207.326.584 2.794 2.126-.158.398.564.578.179.784-1.457 1.229-1.71.614-.874.681-1.937.112-1.011-.489-.95.413-2.212.002-1.546-.434M-508.792 335.95l.748-1.166-.724-.377.246-.379-.481-.716-.916-.068-.987 1.35M-591.563 398.022l-.929-.789.274-.608-1.479-.867-2.712-.737-.543.375-1.078.012-3.244 2.359-1.377 3.674 1.543 3.739 1.506 1.836 2.159.783 1.55-.198 1.528-.531 1.471-1.494 1.305-2.012.538-1.757-1.236-3.986-.395.222 1.103.326.502 1.492 1.742 2.097 7.991 6.5 2.269 1.528-.4-.973M-573.251 397.62l-2.155-2.351-1.407-.559-1.804-.109-1.272 1.514-.052 1.112.603 1.682 1.87 2.621 5.446 3.39 1.74 1.659 1.106.456.222 1.06-2.571 2.314-1.859.823-2.788-.682-3.107-1.732M-562.279 385.241l-.97-1.198.007-1.05-.383-.068.349.159-.249.01.047 1.426-1.932 6.123-.219 4.684 1.19 7.799.667 1.733 1.807 2.79.203 1.165M-551.638 400.254l.309-.194-.169-.596-.835-.508-2.576-.304-3.565-1.062-1.911-.069-1.114.38-.254.452.496 2.254-.284 1.774.355 1.857 1.574 1.085 2.235 2.18 4.937 2.612 6.099 2.373 1.908-.308-.11-.764M-543.267 402.397l-.952.228 4.595 1.544 3.936.962 2.188.192 1.416-.857-.839-.558-.396-.797-2.993-1.603-4.711-1.545.269.27-.033 2.413 1.72 5.023 2.139 3.435 2.366 2.327 2.479 1.224 2.237-.485 1.041.396 1.618-.504 1.745-1.145 1.412-1.99M-510.179 402.343l-1.215.209-5.62-2.124-.873.132-1.693 1.044-1.186 1.404-.893 1.929-1.884 2.68-.085 1.998.669 1.514 2.156 1.742 3.796.463 1.869-.953 1.175-1.881.912-.858-.097-.412.732-1.662 1.11-4.41.61-5.629-.203-6.487-.97-4.887-1.068-2.374-.094.433.592.587.298 1.264-.084 7.953 1.552 7.329.929 2.967 1.206 2.144 3.416 3.852 2.489 1.313.522.939.38.042.148-.677M-162.791 681.372l.387-.145-.286-.052.1.615-.116-.695-.399.2-3.531-.535-2.194-.024-.885.296-3.077-.855-2.556.49-3.046-.138-.797.4-2.946-.487-3.185.181-4.158-.279-10.01.409-.689.522-1.93-.44.736.359.287-.385-.554.365.571-.003-.327-.027-.008.544.032-.794.278.201-.351-.017.595 2.142.08 2.419-.624 4.422.161 5.92.235 3.357.914 3.685.258 3.326-.474 4.002-.795 2.045-.941 1.246-.729 2.783.117-.281.946.481 4.976.852.867.44 2.721-.019 1.505-.453 4.557 1.061 3.376.34 5.898.392 5.614-.611 1.171.431 2.143-1.829.384-1.754-.975-2.459-1.401-1.333-.839-.218-.604-.765"/>
<path fill="none" stroke-linecap="round" stroke-linejoin="round" stroke-width="4" d="m-179.83 702.82-1.467-.199-1.499.298-4.927-.069-5.057.338-3.11.505-1.988.768-1.093.832.007-.401.009.948M-152.91 697.924l.506-.257.375 1.493-.045 1.641-.554 1.73-3.716 5.042-3.241 2.216-1.875 2.098-1.672 2.532-.265 1.832"/>
<path fill="none" stroke-linecap="round" stroke-linejoin="round" stroke-width="4" d="m-165.577 700.067.155-.826 1.074 1.323 1.845.871 7.289 6.181 5.132 3.492 3.418 1.957.285-.129.158 1.217-.241-.947-.177.231M-137.53 703.832l.324-1.47.381.563-.199.297.366 2.074.215 11.839.781 10.728.643 1.641-.138 2.569-1.101-.998-1.386-2.73-1.059-4.93-1.312-3.909-1.222-7.807-.396-5.117.084-3.703.583-2.15 1.798-1.977 8.587.139 3.675 1.764 1.143 3.437-.095 1.787-.535 1.177-1.173 1.136-7.678 5.548-5.17 1.968-.526-.112-.277-.46M-121.725 703.364l.008 1.731-.078-.718.363.289 1.282-.261 3.095 1.066 2.533-.466 1.888.009.996.379 2.182-.792 1.413-1.19.123-.67-1.437-1.613-1.314-.788-2.958-1.096-5.04-.61-.538-.437-.896.642-.92 3.109-.031 2.819 1.042 2.49 1.214 1.878 4.097 4.23 2.158.118 1.543.472.853-.179 2.717.95 1.077-.288.718-.646 1.671-.419.648-.88.292-1.16"/>
<path stroke="none" d="M-17.046 718.518c.3-.329.771-.561.898-.987.198-.669.188-1.416.015-2.091-1.006-3.929-2.136-7.834-3.534-11.641-.558-1.519-1.46-2.892-2.309-4.269-.195-.317-.47-.607-.8-.78-1.193-.626-2.369-1.586-3.717-1.593-1.039-.006-1.916.874-2.697 1.558-1.037.908-1.352 2.779-2.679 3.15-.998.28-1.675-1.256-2.628-1.662-.186-.08-.415.148-.51.326a14.204 14.204 0 0 0-1.156 2.77c-.679 2.351-1.37 4.716-1.706 7.139-.118.848.052 1.746.366 2.543.16.403.55.777.976.861.515.102 1.195.037 1.534-.365 1.158-1.373 1.65-3.206 2.704-4.661.72-.992 1.808-1.669 2.574-2.626.578-.723.856-1.654 1.43-2.38.499-.631 1.064-1.245 1.758-1.652.302-.178.795-.238 1.052.001.78.725 1.422 1.646 1.792 2.645 1.494 4.028 2.033 8.394 3.761 12.327.394.896 1.517 1.268 2.398 1.693m-77.646-3.274c.061-3.016-.093-6.043.185-9.047.066-.712.7-1.274.837-1.977.192-.99.21-2.017.133-3.022a3.483 3.483 0 0 0-.483-1.486c-.34-.575-1.303-.855-1.302-1.523 0-.463.843-.428 1.304-.479.991-.111 2.004-.138 2.992-.001 1.048.145 2.015 1.013 3.059.841.948-.156 1.636-1.041 2.31-1.725.145-.147.153-.481 0-.619-1.008-.911-1.981-2.098-3.31-2.374-2.637-.547-5.495-.747-8.079.011-1.139.334-1.5 1.869-2.002 2.945-.955 2.042-1.982 4.12-2.342 6.345-.431 2.671-.388 5.439.006 8.115.149 1.013.949 1.827 1.577 2.636.495.637 1.03 1.316 1.759 1.661.61.29 1.349.193 2.022.132"/>
<path fill="none" stroke-linecap="round" stroke-linejoin="round" stroke-width="4" d="m-2.885 702.478 1.217.087-.53-.892-.15.381-1.048.351-1.304-.231-.94.299-2.725 1.971-.928 3.026.012 1.336.629 1.88.35.523.445-.045.971 2.071 1.468.17 2.076 1.021 8.09.398 1.067.511.232.518-.795-.438M10.207 705.707l-.056-.562.774-.274 1.055.619 1.822.107 3.425 1.143.771-.121 2.264.529 1.62-.092.735-.594 1.297.34 1.157-.091.352-.53-.471-2.371-1.493-1.498-1.519-.91-2.841-.734-1.83.043-.798.421-.206 4.243.252 2.112.736 2.615 1.139 2.073.785.309 1.24 1.958 1.779 1.651 3.067 1.625 1.88.449 1.43-.276 1.02-.819 1.919-2.508M-78.162 700.513l-.357-.127-.024.223.085-.741-.085.572-.25-.824-.4-.008-.136.415.057-.884-.256-.027.325-.815-.101-.425-.39.355-.013-.966.107.546.408.183.08-.272.035.235-.165.146-.03-.365-.336.767-.048-.437-.62 1.903.343 3.119-.876 2.999-.02 1.936.39.995-.363 1.504.51 2.748.417.877.162-.153.109 1.371.233.076-.121.31-.333-.138.617-.129 1.127.945.837-.509.85.502.813-.255.396-.611.167.288 1.386.101 1.78.94-1.568-.963-1.439-2.101M-77.89 690.352l-.2-2.074-.721-.688-.734-.157-.023-.279.284.583.514-.456.944 1.036M-60.254 704.799l1.236.002.236-.639.125.463-.495.897-.71-.428-1.186.213.06-.642.63.818.12-.435.13.696.015-.431-.047.354.41-.039.564.579 1.97.954.843.003.339-.31.703.356-.017-.258.38.586.671-.78 1.235-.37 1.023.117.606-.8.107.473.446-1.548.13-.187.073.268.487-1.028-.087-1.7-.046.536-.302-1.015-.649-.581-.63.087-1.904-1.392-.79.259-.173-.613-.07.396-.071-.219-.782.409-2.207-.36-.403.325-.173 1.13-.367-.313-2.407 3.335-.175 1.121-.219.123-.04-.255-1.343 1.478.143 1.258-.364 2.215.773 1.87.827.927.305-.06.185 1.002.188.136.088-.508.847 1.747.862.213.579.637.677-.007.282-.334.6 1.06.692-.594.655.587 1.61-.576 1.388.234.623-.25.753.132.354.462.508-.256.172-.72.202.449 1.942-.985 1.086.106 1.225-.361.057.464.475-.999.62.464.342-.606.616-.032.327-.35.082.353.468-.326.049.525.601-1.139 1.35.069.005-.452-.228.588-.2-.085.455-.511.12.852.838-.443-.115.64"/>
<path stroke="none" fill="#aaa" d="M-94.231 267.706c4.26-.754 8.498-1.648 12.78-2.262 6.285-.902 12.58-1.777 18.909-2.285.425-.034.66.734 1.083.681 8.027-1.008 15.94-2.804 23.966-3.826 1.66-.212 3.36-.084 5.02.133.386.051.582.642.973.652.388.011.612-.605 1-.598.406.007.637.694 1.039.634 2.028-.302 3.891-1.382 5.922-1.67.404-.057.615.598 1.013.687a4.83 4.83 0 0 0 2.052 0c.382-.082.583-.648.974-.651.406-.004.637.69 1.039.634 7.013-.971 13.906-2.704 20.92-3.674.403-.056.634.631 1.04.638.39.008.613-.607 1.001-.598.388.008.601.522.97.641.347.112.733.081 1.093.025 9.309-1.455 18.642-2.782 27.895-4.557 2.398-.46 4.606-1.698 7.008-2.139.411-.075.657.734 1.067.657 3.365-.625 6.554-2.006 9.905-2.698 1.008-.208 2.074-.161 3.088.018.385.068.576.565.945.694.341.119.738.119 1.083.014 2.005-.611 3.895-1.568 5.91-2.145 2.296-.656 4.626-1.247 6.995-1.547.336-.043.52.621.852.554.496-.101.667-.985 1.173-.964.764.032 1.25 1.1 2.015 1.096.374-.002-.54-.949-.2-1.105 2.215-1.012 4.62-1.605 7.02-2.013 6.946-1.18 14.015-1.541 20.957-2.742 2.795-.483 5.42-1.703 8.193-2.297 6.296-1.35 12.618-2.616 18.992-3.528.414-.059.671.791 1.067.657 3.974-1.344 7.548-3.77 11.579-4.933 8.325-2.402 16.845-4.095 25.354-5.724.398-.076.625.549 1.009.677.346.115.738.108 1.092.022 3.882-.944 7.678-2.236 11.578-3.103 3.258-.724 6.635-.857 9.874-1.665 2.809-.701 5.584-1.62 8.207-2.845.926-.432 1.339-1.649 2.279-2.05.372-.16.639.705 1.037.632 3.301-.609 6.584-1.432 9.725-2.615 2.242-.845 4.079-2.568 6.315-3.429 3.761-1.447 7.787-2.114 11.586-3.459.949-.336 1.666-1.153 2.588-1.558 1.515-.667 3.041-1.472 4.688-1.64 4.551-.464 9.172.246 13.72-.238.763-.081 1.083-1.186 1.815-1.414.507-.159 1.026.432 1.553.363.387-.052.577-.562.945-.694.535-.193 1.194.03 1.687-.253.646-.37.873-1.298 1.55-1.607.286-.13.463.46.763.553.347.106.742.129 1.087.019 1.263-.406 2.512-.894 3.667-1.547 2.818-1.594 5.275-3.83 8.22-5.176.934-.427 2.067-.16 3.08.01.706.118 1.263.79 1.977.837 3.013.196 6.086.422 9.056-.119 2.018-.369 4.146-1.106 5.599-2.555 1.466-1.461 2.244-3.595 2.614-5.632.125-.688-1.098-.981-1.292-1.653-.148-.511.455-1.03.363-1.553-.107-.607-.48-1.172-.917-1.606-.694-.689-1.439-1.498-2.398-1.689-.715-.143-1.313.686-2.032.806-.666.111-1.369.039-2.022-.132-.378-.098-.584-.646-.974-.651-.401-.006-.642.726-1.029.622-1.084-.292-1.894-1.223-2.917-1.685-.322-.145-.714-.206-1.054-.109-1.688.486-3.198 1.613-4.941 1.832-1.048.131-2.003-.817-3.059-.83-.714-.009-1.287.734-2 .768-.4.02-.657-.771-1.029-.622-1.473.589-2.501 2.024-3.97 2.622-.36.147-.615-.639-1.001-.598-.615.064-1.183.452-1.634.873-.685.639-1.048 1.566-1.701 2.237-.651.669-1.334 1.366-2.183 1.755-2.591 1.19-5.252 2.316-8.035 2.935-4.402.981-8.909 1.478-13.405 1.84-.423.034-.659-.732-1.079-.674-1.638.225-3.168.947-4.736 1.471-3.993 1.336-8.022 2.578-11.945 4.108-.515.201-.738.954-1.281 1.053-.398.073-.656-.765-1.036-.628-4.789 1.719-9.291 4.163-14.023 6.035-2.503.99-5.191 1.479-7.663 2.544-2.27.978-4.252 2.542-6.504 3.561-1.512.683-3.097 1.28-4.738 1.522-.4.059-.624-.548-1.007-.675-.346-.115-.737-.099-1.093-.024-7.126 1.508-14.242 3.069-21.324 4.769-.885.212-1.663.78-2.555.962a5.03 5.03 0 0 1-2.084-.013c-.396-.089-.618-.792-1.008-.681-2.314.657-4.327 2.156-6.63 2.851-3.041.919-6.272 1.093-9.326 1.967-1.404.402-2.557 1.497-3.976 1.84-.392.095-.636-.681-1.037-.627-.33.045-.255.669-.541.841-1.383.83-2.832 1.58-4.358 2.101-2.481.847-5.041 1.458-7.609 1.983-4.687.959-9.467 1.442-14.141 2.466-2.49.546-4.809 1.764-7.314 2.236-.411.077-.658-.74-1.068-.658-1.395.279-2.537 1.382-3.932 1.658-.414.082-.656-.711-1.075-.668-3.003.313-5.89 1.432-8.896 1.705-.737.067-1.375-.829-2.104-.704-6.076 1.045-11.953 3.08-18.022 4.164-7.924 1.415-15.97 2.05-23.917 3.326-4.1.658-8.12 1.755-12.211 2.473-4.16.73-8.38 1.093-12.533 1.867-.964.18-1.8.852-2.772.987-7.763 1.077-15.598 1.586-23.364 2.639-6.718.911-13.369 2.274-20.078 3.253-.688.1-1.407.124-2.088-.019-.7-.148-1.267-.752-1.978-.837-1.344-.161-2.718-.068-4.059.115-4.157.568-8.24 1.625-12.405 2.136-8.525 1.047-17.119 1.465-25.64 2.535-6.665.837-13.246 2.258-19.899 3.184a5.211 5.211 0 0 1-2.02-.133c-.377-.099-.583-.669-.973-.651-.716.032-1.287.772-2.004.784-13.017.212-26.121 1.351-39.058-.115-18.564-2.104-36.723-6.906-55.047-10.549-2.979-.592-5.85-1.706-8.854-2.154-.403-.06-.61.617-1.011.685-1.013.173-2.092.28-3.085.014-2.387-.641-4.515-2.073-6.907-2.695-.39-.102-.631.633-1.034.628-.391-.004-.592-.569-.974-.651a4.927 4.927 0 0 0-2.052 0c-.382.082-.602.77-.975.651-.812-.259-1.186-1.339-1.999-1.598-.384-.123-.639.708-1.034.628-1.312-.264-2.508-.953-3.691-1.579-.486-.258-.733-.951-1.274-1.049-.382-.07-.602.523-.972.641-.346.112-.749.146-1.09.021-3.015-1.109-5.828-2.762-8.902-3.696-.39-.118-.614.595-1.011.685a4.727 4.727 0 0 1-2.087.015c-2.279-.532-4.439-1.5-6.71-2.068-4.062-1.015-8.214-1.644-12.271-2.679-.694-.177-1.218-.873-1.931-.942-.414-.039-.657.742-1.064.655-5.644-1.213-11.206-2.802-16.731-4.479-7.867-2.388-15.568-5.302-23.429-7.711-4.231-1.296-8.61-2.071-12.832-3.397-3.077-.966-5.977-2.438-9.033-3.468-2.913-.983-5.94-1.602-8.859-2.566-2.716-.896-5.418-1.857-8.036-3.01-1.496-.659-2.744-1.824-4.27-2.412-2.838-1.096-5.762-2.015-8.746-2.611-.392-.078-.618.539-.998.663-.345.114-.74.119-1.09.021-1.593-.444-3.176-.955-4.685-1.631-.494-.222-.72-.94-1.253-1.031-.386-.066-.593.569-.975.651-.669.144-1.403.216-2.052-.001-.527-.176-.761-.836-1.249-1.101-1.176-.638-2.377-1.325-3.691-1.579-.396-.077-.603.668-1.007.672-.708.007-1.318-.638-2.027-.642-.401-.003-.641.722-1.029.622-1.088-.281-1.851-1.377-2.942-1.646-.405-.1-.656.734-1.066.656-1.999-.379-3.821-1.409-5.781-1.953-2.446-.679-5.01-.914-7.42-1.71-2.226-.734-4.494-1.53-6.424-2.86-1.075-.741-1.114-2.646-2.314-3.161-1.556-.667-3.447-.462-5.078-.011-1.343.37-2.462 1.379-3.448 2.364-1.148 1.148-2.25 2.439-2.86 3.944-.386.951-.328 2.111.011 3.08.269.771 1.046 1.27 1.687 1.776.461.364 1.018.6 1.571.798 4.033 1.445 8.074 2.883 12.174 4.128 6.588 2.001 13.178 4.028 19.88 5.607.411.097.664-.759 1.076-.668 8.69 1.918 17.359 3.999 25.865 6.615 4.593 1.412 8.829 3.81 13.348 5.445 3.772 1.365 7.721 2.199 11.5 3.546 1.473.525 2.707 1.646 4.216 2.056.389.106.652-.758 1.034-.628.812.275 1.181 1.324 1.974 1.65.633.26 1.383.145 2.052.001.382-.082.583-.649.974-.651.389-.002.602.525.973.642.334.106.717.101 1.052-.001.301-.092.468-.655.766-.553.853.294 1.333 1.329 2.201 1.576.387.109.611-.729 1.008-.664.535.086.744.852 1.255 1.031 8.254 2.886 16.547 5.681 24.942 8.129 5.786 1.688 11.739 2.746 17.571 4.27 2.427.634 4.729 1.745 7.195 2.202.415.077.667-.774 1.076-.668 10.944 2.821 21.677 6.418 32.593 9.346 3.437.922 6.994 1.339 10.446 2.2 2.331.58 4.527 1.674 6.888 2.118.396.074.631-.623 1.034-.628.388-.006.612.607 1 .598.388-.008.601-.523.97-.641.347-.112.735-.093 1.093-.023 3.314.651 6.575 1.564 9.896 2.183 5.156.961 10.379 1.535 15.523 2.554 2.524.5 4.937 1.474 7.457 1.997a4.994 4.994 0 0 0 2.087-.017c.396-.089.61-.76 1.008-.681 1.395.276 2.537 1.379 3.932 1.658.41.082.659-.743 1.068-.658 1.389.288 2.501 1.496 3.907 1.69 1.057.145 2.062-.873 3.118-.722 1.401.201 2.487 1.482 3.882 1.722.725.124 1.365-.785 2.096-.693 4.683.587 9.208 2.184 13.9 2.699 1.052.115 2.005-.831 3.063-.836.711-.004 1.262.781 1.973.812.708.03 1.318-.642 2.027-.642.388 0 .602.525.973.642.335.106.715.092 1.054 0 .689-.188 1.273-.705 1.977-.827.665-.115 1.365-.027 2.022.132.696.168 1.262.851 1.978.836 1.697-.036 3.308-.807 4.996-.983a10.176 10.176 0 0 1 3.026.146c.383.077.584.642.974.652.388.011.612-.622 1-.598.716.044 1.291.704 2.003.784 1.654.185 3.341.2 4.993 0 1.046-.127 1.964-.825 3.007-.97 1.319-.183 2.67-.146 3.993 0"/>
</svg>