<svg xmlns="http://www.w3.org/2000/svg" xmlns:xlink="http://www.w3.org/1999/xlink" width="976" height="684" baseProfile="tiny" version="1.2" viewBox="-591 105 976 684">
<style>
    path:not([stroke]) {
        stroke: black;
    }
    path:not([fill]) {
        fill: black;
    }
    @media (prefers-color-scheme: dark) {
        path:not([stroke]) {
            stroke: white;
        }
        path:not([fill]) {
            fill: white;
        }
    }
</style>
<path stroke="none" d="M-350.21 706.679c.894-.501 1.684-1.267 2.68-1.503.391-.093.629.627 1.03.623.388-.004.602-.525.973-.642a1.786 1.786 0 0 1 1.054 0c.371.117.584.644.973.642.391-.002.588-.591.974-.652 1.325-.208 2.689-.276 4.022-.132.713.077 1.288.75 2.004.784.388.019.602-.525.973-.642.335-.106.72-.109 1.054 0 .384.125.611.748 1.007.672 1.733-.331 3.238-1.491 4.972-1.815 1.318-.246 2.696-.075 4.02.133.386.061.583.642.974.652.388.011.612-.607 1-.598.388.008.584.642.973.642.709 0 1.318-.638 2.027-.642.401-.003.642.726 1.029.622 1.084-.292 1.895-1.22 2.917-1.685.324-.148.704-.117 1.06-.124 1.663-.034 3.337-.184 4.99.001.713.08 1.288.75 2.004.784.388.018.602-.525.973-.642a1.724 1.724 0 0 1 1.054 0c.368.126.577.557.944.685.343.119.74.118 1.09.021 1.665-.466 3.187-1.475 4.902-1.696.724-.093 1.307.796 2.037.802.714.006 1.287-.728 2-.768.388-.022.612.62 1 .598.713-.04 1.286-.778 2-.768.713.009 1.274.689 1.974.821 1.006.19 2.091.431 3.07.131 1.12-.344 1.75-1.823 2.912-1.966 4.314-.532 8.699-.226 13.04-.002 1.053.054 2.088 1.261 3.052.833.616-.273-1.431-1.116-1.095-1.701.344-.599 1.397-.144 2.073.001.382.082.583.641.974.651.388.011.612-.62 1-.598.713.04 1.286.768 2 .768s1.287-.728 2-.768c.388-.022.612.598 1 .598s.611-.58.998-.597c.32-.015.5.587.813.515.498-.115.673-.988 1.184-.974.522.014.653 1.087 1.173 1.037 1.678-.162 3.13-1.347 4.795-1.613.402-.064.614.596 1.011.685a4.845 4.845 0 0 0 2.052 0c.382-.082.583-.649.974-.651.406-.004.637.687 1.04.636 10.69-1.356 21.286-3.392 31.967-4.823a9.012 9.012 0 0 1 3.019.134c.383.08.555.695.947.695.937-.002 1.789-.795 2.722-.702.571.057.748 1.072 1.321 1.105.505.028.674-1.056 1.171-.964.775.144 1.036 1.384 1.813 1.517.516.088.698-.895 1.211-.999a94.11 94.11 0 0 1 11.747-1.641c.407-.03.607.678 1.014.684.709.01 1.319-.642 2.028-.643.408 0 .635.661 1.043.643 7.319-.333 14.595-1.366 21.914-1.686.407-.017.627.555 1.013.685.345.117.733.08 1.093.025 3.309-.507 6.563-1.395 9.895-1.707.425-.039.658.709 1.084.68 3.789-.258 7.546-.896 11.292-1.523 3.565-.597 7.043-1.695 10.629-2.149.401-.051.624.549 1.008.674.341.112 1.121.362 1.077.006-.082-.656-1.249-.867-1.266-1.528-.011-.418.807-.354 1.22-.289 1.037.163 1.959.829 3.001.954 1.653.197 3.339.185 4.993 0 .713-.08 1.288-.751 2.004-.784.407-.02.636.68 1.042.64 9.992-.991 19.897-2.769 29.895-3.707.736-.07 1.367.772 2.104.705 3.361-.308 6.6-1.517 9.962-1.809.71-.062 1.284.738 1.997.769.388.017.602-.525.973-.642.335-.106.72-.11 1.054 0 .387.127.609.724 1.014.682 3.004-.312 5.912-1.25 8.897-1.709.688-.106 1.41-.138 2.088.018.4.091.607.718 1.016.693 10.206-.646 20.388-1.653 30.562-2.691 5.134-.523 10.21-1.566 15.354-1.99.406-.034.635.659 1.042.639.716-.034 1.287-.761 2.003-.784 7.328-.24 14.667-.256 21.994 0 .715.025 1.274.701 1.977.837.989.192 2.013.162 3.02.133.411-.011 1.514.021 1.208-.254-.897-.81-4.448-1.385-3.257-1.593 4.285-.751 8.705-.322 13.052-.123.94.043 1.757.905 2.698.843.573-.037.748-1.072 1.321-1.104.505-.029.676 1.063 1.171.963.775-.156 1.01-1.411 1.785-1.559.92-.176 1.79.794 2.723.701.571-.057.751-1.035 1.321-1.105.545-.067.911.717 1.458.765.535.047.993-.474 1.53-.504 3.21-.178 6.472.41 9.643-.117.976-.162 1.344-1.637 2.306-1.87.707-.171 1.303.709 2.02.824 1.327.213 2.684.139 4.027.148.887.005 1.837.228 2.66-.106.688-.28.832-1.41 1.55-1.605.618-.168 1.152.684 1.793.696 11.661.221 23.334.419 34.99.001 5.353-.192 10.62-1.468 15.965-1.828.425-.028.659.723 1.083.681 3.01-.3 5.908-1.376 8.918-1.678.404-.04.626.552 1.011.681.346.116.733.084 1.093.024 3.326-.551 6.578-1.652 9.944-1.851 1.69-.1 3.293.959 4.987.969.904.006 1.666-.742 2.552-.921 3.78-.765 7.574-1.526 11.412-1.903.406-.04.627.555 1.014.683.334.11.716.092 1.055 0 .689-.188 1.262-.816 1.976-.828a1440.58 1440.58 0 0 1 47.993 0c.716.012 1.283.666 1.978.837.657.161 1.349.146 2.026.146.677 0 1.368.013 2.026-.146.693-.167 1.261-.812 1.974-.821.714-.01 1.286.771 2 .768.717-.003 1.289-.721 2.003-.784 2.323-.206 4.665-.048 6.997-.014.677.01 1.372-.028 2.026.146.378.101.583.642.974.652.388.011.612-.609 1-.598.39.01.596.551.973.651.655.174 1.35.146 2.027.146s1.373.034 2.026-.146c.394-.108.608-.735 1.014-.69 2.682.296 5.239 1.365 7.919 1.676.404.047.634-.64 1.041-.637.391.002.596.553.974.651.653.171 1.356.245 2.022.132.725-.124 1.312-.865 2.046-.825 4.666.25 9.254 1.373 13.916 1.682.409.027.62-.584 1.016-.694.652-.18 1.349-.146 2.026-.146 1.01 0 2.036-.051 3.026.146.383.077.583.642.974.652.388.011.612-.607 1-.598.388.008.584.66.972.642 1.047-.049 1.991-.708 3.031-.828a9.56 9.56 0 0 1 3.023.133c.383.079.555.688.947.694.708.013 1.318-.641 2.027-.641.388 0 .584.642.972.642.709 0 1.319-.632 2.028-.642.388-.006.611.598 1 .598.388 0 .612-.607 1-.598.388.008.602.524.972.642.336.106.72.106 1.055 0 .371-.118.584-.642.973-.642.388 0 .602.525.972.642.336.106.723.115 1.055-.001.37-.128.561-.63.947-.694a14.852 14.852 0 0 1 4.022-.133c.713.077 1.287.784 2.004.784.717 0 1.288-.732 2.003-.784 2.991-.217 5.998-.048 8.997-.015 1.01.011 2.038-.062 3.026.148.383.081.577.566.946.694.333.116.723.114 1.055 0 .368-.126.577-.559.945-.685a1.66 1.66 0 0 1 1.052.002c.299.104.561.344.723.616 1.031 1.736 1.569 3.779 2.826 5.358 1.197 1.503 2.623 2.992 4.401 3.718 1.55.634 3.35.23 5.022.134.531-.031 1.176-.096 1.511-.508 1.129-1.385 1.53-3.275 2.683-4.639.631-.747 1.568-1.265 2.514-1.514.459-.12.881.658 1.33.505 2.196-.747 4.118-2.144 6.242-3.078 2.109-.927 4.448-1.35 6.445-2.5 1.094-.63 2.206-1.536 2.63-2.725.563-1.577.336-3.36.134-5.023a5.532 5.532 0 0 0-1.066-2.646c-.483-.634-1.26-.996-1.978-1.342-2.037-.981-4.106-1.924-6.256-2.624-2.27-.74-4.765-.745-6.96-1.682-6.151-2.628-12.026-5.863-17.953-8.962-1.137-.595-2.037-1.609-3.218-2.109a3.21 3.21 0 0 0-2.048-.123c-1.308.359-2.524 1.019-3.696 1.7-.434.252-.794.643-1.066 1.066-.591.919-.753 2.116-1.496 2.918-.204.219-.455-.448-.751-.494-.154-.023-.366.176-.331.327.52 2.255.167 5.184 1.945 6.666 2.44 2.034 6.223 1.408 9.169 2.596 1.637.66 3.183 1.648 4.435 2.891.298.296-.802.297-1.221.3-11.996.096-23.996.261-35.99 0-.714-.016-1.263-.795-1.977-.828-.708-.032-1.319.664-2.027.642-.714-.023-1.286-.776-2-.768-.733.007-1.311.844-2.043.811-5.66-.261-11.257-1.369-16.914-1.684-.408-.023-.607.685-1.016.685-.704 0-1.295-.685-2-.686-.726 0-1.344.733-2.069.683-8.995-.62-17.923-2.025-26.916-2.682-.406-.029-.634.66-1.042.641-.716-.033-1.286-.775-2.004-.784-20.33-.258-40.664-.057-60.996-.014-.677.001-1.372-.028-2.026.146-.378.101-.584.642-.974.652-.388.011-.612-.598-1-.598s-.612.598-1 .598-.612-.609-1-.598c-.391.01-.596.551-.974.651-.654.175-1.349.147-2.026.147-1.676 0-3.365.075-5.026-.146-.387-.052-.583-.642-.974-.652-.388-.011-.612.598-1 .598s-.612-.609-1-.598c-.391.01-.591.576-.974.651-.99.195-2.023.269-3.023.133-.728-.1-1.311-.873-2.045-.825-3.674.242-7.247 1.376-10.916 1.68-.409.034-.621-.584-1.016-.693-.653-.179-1.349-.145-2.026-.145-.677 0-1.372-.029-2.026.145-.378.101-.583.65-.974.652-.388.002-.584-.642-.973-.642-.709 0-1.318.642-2.027.642-.388 0-.601-.522-.97-.642-.347-.112-.731-.061-1.093-.025-5.303.526-10.576 1.387-15.895 1.71-.425.025-.658-.715-1.083-.681-7.997.639-15.92 2.04-23.917 2.68-.407.033-.607-.679-1.015-.684-.709-.01-1.318.642-2.027.642-.388 0-.584-.646-.973-.642-1.043.011-2.011.712-3.054.686-.711-.018-1.262-.804-1.973-.812-.714-.008-1.287.738-2 .768-.407.018-.636-.68-1.041-.638-3.009.314-5.91 1.364-8.918 1.678-.405.042-.634-.631-1.04-.639-.39-.007-.612.608-1.001.599-.389-.008-.584-.642-.973-.642-.709 0-1.319.664-2.027.642-.713-.022-1.285-.823-1.997-.769-13.363 1.014-26.645 2.959-40.01 3.956-4.318.322-8.666.237-12.99-.001-.734-.041-1.31-.862-2.046-.827-5.328.254-10.59 1.369-15.915 1.684-.407.024-.607-.68-1.015-.685-.709-.01-1.318.642-2.027.642-.389 0-.584-.642-.973-.642-.709 0-1.318.64-2.027.642-.406.001-.638-.694-1.039-.634-2.029.302-3.892 1.382-5.922 1.67-.421.06-.657-.705-1.081-.676-4.656.321-9.238 1.417-13.895 1.708-.717.045-1.317-.698-2.036-.71-.709-.012-1.318.642-2.027.642-.408 0-.636-.667-1.043-.641-13.28.856-26.547 1.937-39.786 3.273-15.345 1.548-30.659 3.394-45.953 5.377-3.755.487-7.414 1.613-11.178 2.03-.404.045-.626-.554-1.013-.681a1.688 1.688 0 0 0-1.054 0c-.37.129-.559.641-.947.695-1.659.23-3.355.287-5.023.133-.714-.067-1.303-.937-2.003-.784-.838.182-1.237 1.212-1.974 1.65-.297.177-.683.133-1.03.134-1.008 0-2.033.062-3.022-.133-.384-.075-.584-.648-.974-.651-.406-.004-.638.694-1.039.634-2.029-.302-3.874-1.577-5.923-1.67-.63-.029-1.334.708-1.337 1.338-.002.458.891-.451 1.333-.332 1.135.307 2.308.748 3.172 1.547.303.281-.798.261-1.212.267-5.996.083-11.999.248-17.991 0-.713-.03-1.262-.795-1.976-.828-.708-.033-1.319.667-2.027.642-.717-.025-1.29-.714-2.004-.784-1.988-.195-3.999-.129-5.993 0a3.408 3.408 0 0 0-1.485.482c-.573.341-.859 1.202-1.518 1.302-.706.107-1.286-.775-2-.768-.731.006-1.313.883-2.039.804-2.039-.222-3.893-1.368-5.922-1.67-.402-.06-.633.638-1.039.634-.391-.003-.596-.553-.974-.652-.654-.17-1.355-.239-2.022-.131-.708.115-1.288.75-2.004.783-.407.019-.637-.687-1.042-.64-14.337 1.643-28.58 4.047-42.918 5.678-.404.046-.606-.675-1.013-.68-.708-.009-1.318.632-2.027.642-.388.006-.612-.598-1-.598-.389 0-.612.607-1 .598-.388-.008-.602-.525-.973-.642a1.786 1.786 0 0 0-1.054 0c-.371.117-.585.642-.973.642s-.602-.524-.971-.642c-.344-.11-.751-.152-1.084-.014-1.036.432-1.83 1.401-2.916 1.68-.391.1-.608-.596-1.003-.676-.989-.198-2.023-.268-3.023-.132-1.04.142-1.953.926-3.003.954-.712.019-1.281-.656-1.974-.821-.657-.157-1.367-.294-2.022-.132-.811.201-1.385 1.045-2.209 1.18-5.23.863-10.519 1.349-15.802 1.79-1.336.112-2.697.084-4.019-.134-.405-.066-.607-.713-1.016-.693-14.286.699-28.568 1.572-42.814 2.84-3.404.302-6.663 1.869-10.08 1.866-2.263-.002-4.906-.298-6.523-1.881-1.619-1.586-1.584-4.268-2.027-6.491-.197-.988-.069-2.032.133-3.019.083-.402.72-.607.694-1.017-.31-4.993-1.356-9.922-1.682-14.915-.027-.407.66-.635.64-1.042-.033-.716-.733-1.288-.784-2.004a64.418 64.418 0 0 1 0-8.993c.072-1.044.779-1.984.828-3.03.018-.389-.634-.585-.642-.973-.009-.388.609-.612.598-1-.01-.391-.553-.596-.652-.974-.17-.654-.239-1.356-.131-2.022.115-.708.739-1.288.783-2.004.024-.388-.727-.634-.598-1.001.283-.807 1.434-1.142 1.641-1.972.172-.687-.664-1.319-.641-2.027.022-.714.778-1.286.768-2-.009-.713-.729-1.267-.821-1.974-.201-1.549-.365-3.157-.042-4.685.158-.751 1.192-1.081 1.414-1.815.158-.521-.478-1.052-.384-1.588.354-2.016 1.474-3.865 1.699-5.899.081-.729-.82-1.309-.819-2.043.002-1.369.79-2.655.827-4.023.01-.392-.615-.564-.695-.947a9.166 9.166 0 0 1-.133-3.023c.092-.711.74-1.287.784-2.003.024-.388-.598-.612-.598-1 0-.389.607-.612.598-1-.008-.408-.664-.635-.642-1.043.672-12.313 2.065-24.58 2.711-36.894.038-.722-.651-1.34-.667-2.063-.009-.388.607-.612.598-1-.008-.389-.642-.584-.642-.973 0-.709.642-1.318.642-2.027 0-.388-.522-.601-.641-.97-.113-.347-.063-.731-.026-1.093.534-5.296 1.431-10.56 1.736-15.874.042-.738-.784-1.368-.705-2.103.254-2.36 1.382-4.565 1.674-6.92.05-.406-.607-.614-.69-1.014-.204-.989-.146-2.016-.146-3.026 0-.677-.028-1.372.146-2.026.101-.378.65-.583.652-.974.002-.389-.642-.584-.642-.973 0-.709.632-1.318.642-2.027.006-.388-.622-.612-.598-1 .044-.716.769-1.287.784-2.004a826.348 826.348 0 0 0 0-34.993c-.015-.717-.751-1.287-.784-2.003-.019-.408.66-.635.642-1.043-.333-7.319-1.419-14.593-1.686-21.914-.026-.732.804-1.31.812-2.043.008-.714-.728-1.287-.768-2-.022-.388.598-.611.598-1s-.598-.612-.598-1c0-.389.598-.612.598-1 0-.389-.598-.611-.598-1s.598-.611.598-1c0-.388-.609-.612-.598-1 .01-.391.576-.591.651-.974.195-.99.263-2.022.133-3.023-.092-.711-.74-1.287-.784-2.003-.024-.389.874-.73.597-1.004-.317-.314-.927.544-1.304.304-.394-.25-.489-.909-.35-1.355.333-1.071 1.389-1.833 1.679-2.916.104-.388-.626-.628-.623-1.029.004-.408.671-.636.641-1.042-.323-4.33-1.359-8.586-1.682-12.916-.03-.406.632-.634.64-1.042.008-.388-.622-.612-.598-1 .044-.716.704-1.291.784-2.003.185-1.654.185-3.34 0-4.994-.08-.712-.74-1.287-.784-2.003-.024-.388.622-.612.598-1-.044-.716-.668-1.296-.783-2.004-.108-.667-.039-1.369.131-2.022.099-.378.642-.584.652-.974.011-.388-.607-.612-.598-1 .008-.388.646-.584.642-.973-.011-1.043-.685-2.011-.686-3.055 0-.407.715-.607.683-1.014-.308-4-1.372-7.917-1.68-11.916-.032-.406.553-.627.682-1.012.117-.346.055-.73.026-1.093-.532-6.635-1.387-13.246-1.71-19.894-.02-.41.612-.615.695-1.017a9.868 9.868 0 0 0 .133-3.019c-.791-7.34-2.141-14.615-2.825-21.966-.04-.424.693-.657.678-1.082-.083-2.396-.747-4.739-.962-7.126-1.012-11.254-2.059-22.51-2.718-33.791-.024-.407.555-.626.684-1.013.114-.343.152-.75.013-1.084-.431-1.036-1.481-1.812-1.679-2.916-.128-.715.795-1.303.792-2.029-.004-1.045-.781-1.983-.812-3.027-.011-.392.615-.564.695-.947.206-.987.212-2.017.132-3.023-.037-.461-.06-1.105-.478-1.303-.354-.168-.627.515-1.009.599-.151.032-.413-.163-.35-.303.478-1.052 1.826-1.791 1.825-2.947-.002-1.772-1.58-3.236-1.833-4.99-.133-.928.908-1.798.725-2.717-.144-.723-1.278-.877-1.575-1.551-.127-.288.563-.451.553-.766-.022-.708-.631-1.317-.641-2.025-.006-.388.607-.612.598-1-.008-.388-.63-.584-.642-.973-.02-.633.726-1.208.554-1.818-.226-.794-1.617-1.062-1.605-1.887.011-.747 1.642-.763 1.655-1.51.017-1.067-1.332-1.746-1.584-2.783-.094-.389.541-.619.665-1a1.86 1.86 0 0 0 .019-1.088c-.506-1.683-1.565-3.207-1.831-4.944-.108-.705.739-1.284.769-1.997.017-.388-.646-.584-.642-.973.011-1.043.675-2.011.686-3.054.004-.389-.634-.585-.642-.973-.009-.388.598-.611.598-1s-.598-.611-.598-1 .607-.612.598-1c-.008-.389-.525-.602-.642-.973a1.77 1.77 0 0 1 0-1.054c.123-.382.763-.613.666-1.002-.271-1.09-1.379-1.851-1.646-2.942-.1-.408.691-.652.663-1.071-.249-3.688-.842-7.349-1.478-10.99-.585-3.342-1.716-6.581-2.183-9.941-.055-.396.661-.6.664-1 .005-.709-.632-1.318-.642-2.027-.006-.389.728-.634.598-1.001-.286-.808-1.325-1.18-1.65-1.973-.26-.633-.145-1.383-.001-2.052.082-.382.641-.584.651-.974.011-.388-.604-.612-.598-1 .005-.404.713-.64.628-1.034-.298-1.387-1.448-2.509-1.69-3.907-.122-.71.656-1.338.66-2.059.002-.389-.525-.602-.642-.973a1.755 1.755 0 0 1 0-1.054c.127-.387.732-.61.68-1.013-.304-2.348-1.437-4.544-1.702-6.897-.082-.73.83-1.372.688-2.092-.218-1.1-1.453-1.817-1.679-2.916-.145-.704.642-1.336.655-2.055.008-.388-.609-.612-.598-1 .01-.391.568-.593.651-.974.148-.68.182-1.411.015-2.086-.744-3.006-2.221-5.825-2.73-8.879-.176-1.055.822-2.059.729-3.124-.246-2.819-.99-5.579-1.725-8.312-.512-1.905-1.474-3.667-2.007-5.566-.185-.662-.189-1.374-.132-2.059.065-.781-.287-2.38.493-2.301 1.277.13 2.21 1.5 2.807 2.636 1.214 2.312 1.442 5.034 2.481 7.429.489 1.128 1.001 2.441 2.066 3.054 2.327 1.339 4.969 2.314 7.645 2.533 1.349.11 2.548-.944 3.731-1.602.437-.242.77-.652 1.06-1.059.593-.833 1.375-1.631 1.571-2.635.138-.706-.642-1.336-.655-2.055-.008-.389.745-.641.598-1.001-.562-1.377-1.58-2.53-2.514-3.689-.768-.953-1.836-1.641-2.57-2.62-1.276-1.701-2.059-3.755-3.43-5.38a60.872 60.872 0 0 0-7.095-7.095c-2.047-1.74-4.176-3.495-6.636-4.577-1.236-.544-2.757-.517-4.048-.124-2.724.831-5.387 2.039-7.697 3.704-1.366.985-2.264 2.541-3.041 4.036-.873 1.682-.9 3.735-1.846 5.378-.466.81-1.676.948-2.23 1.702-4.016 5.473-7.347 11.431-11.404 16.875-.187.252-.486-.446-.794-.506-.135-.027-.329.16-.293.293.103.375.526.605.642.977.103.335.288.872-.013 1.052-.475.285-1.509-.583-1.66-.05-.286 1.006.674 1.993.814 3.029.09.669.039 1.368-.132 2.022-.098.378-.871.651-.651.974 1.143 1.681 2.524 3.314 4.273 4.351.883.524 2.09.283 3.08.011.988-.27 1.828-.949 2.636-1.577.784-.61 1.588-1.26 2.103-2.108 1.028-1.692 1.442-3.707 2.46-5.404.993-1.656 2.467-2.981 3.535-4.589 1.256-1.891 2.092-4.049 3.424-5.887.134-.185.435.239.513.454.707 1.956 1.457 3.921 1.81 5.97 1.63 9.479 2.946 19.011 4.127 28.556 2.213 17.884 4.194 35.797 6.053 53.722.689 6.644.87 13.335 1.589 19.976.489 4.519 1.61 8.959 2.032 13.485.038.404-.55.626-.678 1.01-.116.346-.086.734-.024 1.093.51 2.971 1.308 5.891 1.736 8.875.147 1.019.158 2.074-.018 3.088-.069.404-.728.608-.691 1.015.301 3.339 1.362 6.58 1.678 9.917.039.406-.658.635-.638 1.042.034.716.692 1.292.784 2.003.13 1.001.068 2.035-.132 3.023-.082.4-.747.609-.688 1.013.296 2.024 1.506 3.862 1.699 5.899.1 1.055-.742 2.01-.849 3.065a15.803 15.803 0 0 0 .132 4.023c.061.386.642.583.652.974.011.388-.598.611-.598 1 0 .388.598.611.598 1 0 .388-.598.611-.598 1 0 .388.62.612.598 1-.04.712-.888 1.294-.769 1.998.299 1.767 1.505 3.273 1.955 5.008.169.653.05 1.37-.133 2.02-.107.379-.614.565-.704.948-.156.666-.267 1.423.001 2.052.338.793 1.25 1.214 1.702 1.948.182.294.134.683.134 1.03 0 1.341.082 2.698-.132 4.022-.065.401-.761.61-.682 1.008.276 1.396 1.382 2.536 1.658 3.932.082.414-.7.654-.668 1.075.694 9.011 2.4 17.938 2.825 26.966.517 10.984.219 21.995-.001 32.99-.013.641-.834 1.167-.696 1.794.194.881 1.329 1.333 1.576 2.201.109.387-.662.606-.664 1.008-.003.391.553.596.651.974.171.653.294 1.365.133 2.02-.422 1.709-1.512 3.219-1.851 4.947-.327 1.67-.503 3.446-.117 5.103.224.96 1.438 1.414 1.848 2.311.14.306-.035.861-.362.943-.379.096-.629-.507-1.009-.599-.139-.033-.283.14-.33.275-.118.341-.297.751-.135 1.073.442.878 1.43 1.412 1.836 2.308.139.306-.035.861-.362.943-.378.096-.627-.508-1.007-.597-.135-.031-.366.176-.295.295.44.738 1.215 1.238 1.65 1.978.175.297.19.689.118 1.026-.15.698-.74 1.286-.768 2-.015.39.553.596.651.974.171.653.249 1.357.132 2.022-.124.705-.726 1.271-.836 1.978-.189 1.21-.403 2.502-.046 3.673.288.946 1.627 1.346 1.87 2.306.178.707-.74 1.318-.771 2.047-.017.388.658.584.642.973-.044 1.043-.803 1.982-.812 3.027-.006.714.738 1.286.768 2 .017.388-.525.602-.642.973a1.724 1.724 0 0 0 0 1.054c.127.368.559.577.686.946.114.332.114.722 0 1.054-.127.368-.68.556-.686.946-.01.708.644 1.318.642 2.027-.001.391-.576.591-.652.974-.194.989-.262 2.022-.132 3.022.092.712.75 1.288.784 2.004.019.388-.642.584-.642.973 0 .708.642 1.318.642 2.027 0 .388-.523.601-.641.971-.112.346-.098.735-.023 1.092.487 2.317 1.387 4.55 1.702 6.897.054.403-.629.634-.636 1.04-.008.388.598.611.598 1 0 .388-.622.612-.598 1 .044.716.668 1.296.783 2.004.108.666.039 1.368-.132 2.022-.098.378-.641.583-.651.974-.011.388.609.612.598 1-.01.39-.553.596-.652.974-.17.653-.239 1.355-.131 2.022.115.708.739 1.288.783 2.004.024.388-.598.611-.598 1 0 .388.598.611.598 1 0 .388-.622.612-.598 1 .044.716.756 1.287.784 2.003.235 5.993.235 12 0 17.993-.028.717-.751 1.288-.784 2.004-.02.407.671.636.64 1.042-.332 4.323-1.42 8.568-1.709 12.895-.049.738.748 1.366.709 2.105-.626 11.601-1.462 23.197-2.695 34.749-.331 3.108-1.618 6.06-1.991 9.163-.085.71.633 1.331.644 2.046.006.388-.62.612-.598 1 .04.713.776 1.286.768 2-.008.711-.782 1.262-.812 1.973-.03.708.632 1.318.642 2.027.006.388-.62.612-.598 1 .04.713.768 1.286.768 2s-.728 1.287-.768 2c-.022.388.598.611.598 1 0 .388-.607.612-.598 1 .008.388.525.602.642.973.106.335.106.719 0 1.054-.117.371-.634.584-.642.973-.009.388.598.611.598 1 0 .388-.598.611-.598 1s.728.634.598 1c-.286.809-1.325 1.181-1.65 1.974-.26.633-.145 1.383-.001 2.052.082.382.649.583.651.974.002.388-.525.602-.642.973a1.724 1.724 0 0 0 0 1.054c.127.368.68.556.686.946.01.708-.641 1.318-.642 2.027-.001.406.683.636.634 1.039-.652 5.335-2.097 10.557-2.702 15.898-.081.718.66 1.34.666 2.063.003.388-.525.602-.642.973a1.786 1.786 0 0 0 0 1.054c.117.371.644.584.642.973-.002.391-.601.586-.652.974-.217 1.66-.287 3.355-.132 5.022.066.715.752 1.288.784 2.004.017.39-.576.591-.652.974-.194.989-.262 2.022-.132 3.023.092.711.752 1.287.784 2.003.017.39-.601.586-.652.974-.217 1.66-.287 3.355-.132 5.022.066.715.782 1.287.784 2.004.003.713-.822 1.285-.769 1.997.3 4.021 1.448 7.945 1.81 11.961.037.406-.631.634-.639 1.042-.008.388.598.611.598 1 0 .388-.62.612-.598 1 .04.712.874 1.292.769 1.997-.309 2.084-1.552 3.942-1.956 6.009-.255 1.306-.155 2.67.001 3.991.123 1.04 1.139 2.031.827 3.03-.397 1.27-2.035 1.79-2.693 2.947-.334.586-.167 1.346-.134 2.02.022.446.08.917.297 1.308.632 1.14 1.233 2.368 2.217 3.222 1.776 1.541 3.588 3.52 5.917 3.838 7.613 1.041 15.369.326 23.051.123.716-.019 1.289-.718 2.003-.785m174.29-10.673c-.437-.12-.858-.352-1.31-.359-.146-.002-.405.255-.282.332.387.245.875.324 1.332.332m-2.74-.305c-.437-.12-.858-.352-1.31-.359-.146-.002-.405.255-.282.332.387.245.875.324 1.332.332M-377.183 420.54c-.105-.448.146-1.333-.314-1.345-.456-.011-.436.884-.332 1.329"/>
<path fill="none" stroke-linecap="round" stroke-linejoin="round" stroke-width="4" d="m-569.57 362.149-1.808-.592-.42.148.308-.196-1.393-.249-.534-.423-.954-.065-.99-.619-.025-.353-1.157.11-.798-.207-.031-.284-2.385-.091-2.018 1.919-1.232 1.783-.634 1.682-1.548.801.573 2.524-1.323 2.952.204 1.073-.71 2.251.304 1.171-.48 2.794.678 2.001.291 3.66.631 1.711-.372 1.482 2.605 2.248 5.412 3.07 2.38.39 1.717.675 6.769-.442 6.99-3.447 2.872-3.943.979-1.827.876-8.142-1.351-4.645-1.3-3.031-2.803-3.897-3.393-2.772-1.548-.656-4.641-.361-3.255 1.032"/>
<path fill="none" stroke-linecap="round" stroke-linejoin="round" stroke-width="4" d="m-566.114 381.969-.77.552.963.142-.834-.184.153.338.847.381 1.681 3.028 2.011 2.144 2.701 1.724 1.612 1.656 4.156 3.306 6.748 2.721-1.779-.246-.893-.791-.843-.281M-547.257 382.974l-1-1.227.084-.324.308.045.16.368-.287.246.605.159.223.395.382 3.136 2.338 3.591 3.872 3.528 1.826.035 3.001-4.415 1.059-3.08-.623-4.243.707 1.187.477 5.114 1.031 2.617 1.2 1.702 2.283 2.042 1.358.981-.268-.191.343-.423M-523.382 386.523l-.728-.452.292-.031.629.542-.048-.201 1.166-.045 1.504.75 1.698.034 3.106-.995-.107-1.523-.407-.65-1.226-.261-2.571-2.066-1.504-.205-.139.611-2.391 2.435-.616 1.322.059 2.505.379 1.628 2.822 3.276 3.508 1.798 2.435.358 1.651.62 1.899-.902 1.506-1.696 1.427-.695"/>
<path fill="none" stroke-linecap="round" stroke-linejoin="round" stroke-width="4" d="m-500.941 383.565-.177-1.298-1.834-1.081-2.933.076-1.673.809-.999 1.761-.013.966.598.71-.01.554 1.721 1.053 8.907 3.177 1.021 1.248.566 1.213-.184.373-2.467 1.418-10.949-.505-1.631.679.442.358M-491.241 366.901l.062-.916-.603-.618-1.855-.767.868 2.442.032 3.548 1.704 8.378.678 5.528.399 7.024-.319 3.36-.76.815.301.686-.296-.039-.133-.697"/>
<path fill="none" stroke-linecap="round" stroke-linejoin="round" stroke-width="4" d="m-479.871 384.401-.117-.897-1.701-.947-3.398-.209-2.094.21-4.823 1.345-2.175 1.498M-471.716 384.142l-.887-.759-.022.499.337-.074-.135.937 1.403 5.238-.308 1.856-.576.828.013 1.062-.852 2.049.467.617-1.293.641.057.357M-463.24 388.456l-.637-1.388-.538-.061-.122-.327-.414.293-.409-.496.488.053-.128.39.432.459-.417.506-.26 1.863-.752.755.363.302.857 4.234 2.251 2.396.364-.057 2.496 1.545 1.809.48.547-.213 1.444.199 1.849-1.591.72-2.019-.175-.824.424-1.25.14-2.286-.542-2.663-1.891-1.964-.614-.373-.638.083-1.51-.899-.264-.472-1.194.03-.376-.32-.865.282.763 2.044.666.895 1.076.638M-445.09 386.523l-.763.214-.567-.237-.689.364-.07 2.783.265.577-.515 1.81.279 1.874.218.043-.372-.096.121-.189 1.589-1.578 1.084-1.872 1.051-.559 1.534-3.028 1.447-1.757 1.873-1.431 1.815-.462-.076.293.69.431-.039.472.549.672.591.15 1.25 1.422.133 6.54.711 1.864-.256.51.32.158.259 1.085.261-.152-.083.361M-418.124 384.324l1.139.977.331-.43-.712-.362-2.284-.219-2.057.166-.271.405-1.414.228-.132.302 3.387 5.326.626.207.326.584 2.794 2.126-.158.398.564.579.179.783-1.457 1.23-1.71.614-.874.68-1.937.112-1.011-.488-.95.413-2.212.001-1.546-.433M-466.792 371.95l.748-1.166-.724-.377.246-.379-.481-.716-.916-.068-.987 1.35M-549.563 434.022l-.929-.789.274-.608-1.479-.867-2.712-.737-.543.374-1.078.013-3.244 2.359-1.377 3.674 1.543 3.739 1.506 1.836 2.159.782 1.55-.197 1.528-.531 1.471-1.495 1.305-2.011.538-1.757-1.236-3.986-.395.222 1.103.326.502 1.492 1.742 2.097 7.991 6.5 2.269 1.528-.4-.973M-531.251 433.62l-2.155-2.351-1.407-.559-1.804-.109-1.272 1.513-.052 1.112.603 1.683 1.87 2.621 5.446 3.389 1.74 1.66 1.106.456.221 1.06-2.57 2.314-1.859.822-2.788-.681-3.107-1.733M-520.279 421.241l-.97-1.199.007-1.05-.383-.067.349.159-.249.01.047 1.426-1.932 6.123-.219 4.684 1.19 7.798.667 1.733 1.807 2.791.203 1.164M-509.638 436.254l.309-.194-.169-.597-.836-.508-2.575-.304-3.565-1.062-1.911-.068-1.114.379-.254.452.496 2.254-.284 1.775.355 1.857 1.574 1.085 2.235 2.18 4.937 2.612 6.099 2.373 1.908-.308-.11-.764M-501.267 438.396l-.952.229 4.595 1.544 3.936.962 2.188.192 1.415-.858-.838-.557-.396-.797-2.993-1.603-4.711-1.545.269.269-.033 2.413 1.72 5.023 2.139 3.435 2.366 2.327 2.479 1.224 2.237-.485 1.041.396 1.618-.503 1.745-1.145 1.412-1.991M-468.179 438.343l-1.215.209-5.62-2.124-.873.131-1.693 1.045-1.186 1.404-.893 1.929-1.884 2.68-.085 1.998.669 1.514 2.155 1.742 3.797.462 1.869-.953 1.175-1.88.912-.858-.097-.412.732-1.662 1.11-4.41.61-5.629-.203-6.487-.97-4.887-1.068-2.374-.094.433.592.587.298 1.264-.084 7.953 1.552 7.329.929 2.967 1.206 2.144 3.416 3.852 2.489 1.313.522.939.38.042.148-.678M-120.791 717.371l.387-.144-.286-.052.1.615-.116-.695-.399.199-3.531-.534-2.194-.024-.885.296-3.077-.855-2.556.49-3.046-.138-.797.4-2.946-.488-3.185.182-4.158-.279-10.01.408-.689.523-1.93-.44.736.358.287-.384-.554.365.571-.003-.327-.027-.008.544.032-.794.278.201-.351-.017.595 2.142.08 2.419-.624 4.422.161 5.92.235 3.356.914 3.686.258 3.326-.474 4.002-.795 2.045-.941 1.246-.729 2.783.117-.281.946.48 4.976.852.867.441 2.721-.019 1.505-.454 4.557 1.062 3.376.339 5.898.393 5.614-.611 1.171.431 2.143-1.829.384-1.754-.975-2.46-1.401-1.333-.839-.217-.604-.765"/>
<path fill="none" stroke-linecap="round" stroke-linejoin="round" stroke-width="4" d="m-137.83 738.819-1.467-.198-1.499.298-4.927-.069-5.057.338-3.11.504-1.988.768-1.093.833.007-.401.009.947M-110.91 733.924l.506-.257.375 1.493-.045 1.641-.554 1.73-3.716 5.041-3.241 2.217-1.875 2.098-1.672 2.531-.265 1.833"/>
<path fill="none" stroke-linecap="round" stroke-linejoin="round" stroke-width="4" d="m-123.577 736.067.155-.826 1.074 1.323 1.845.87 7.289 6.182 5.132 3.491 3.418 1.958.285-.129.158 1.217-.241-.947-.177.231M-95.53 739.832l.325-1.47.38.563-.2.297.367 2.074.215 11.839.781 10.727.643 1.642-.138 2.569-1.1-.998-1.387-2.73-1.058-4.93-1.313-3.91-1.222-7.806-.396-5.117.084-3.703.583-2.15 1.798-1.977 8.587.139 3.675 1.763 1.144 3.437-.096 1.787-.534 1.178-1.174 1.136-7.678 5.548-5.17 1.968-.525-.112-.278-.46M-79.725 739.364l.008 1.731-.078-.719.363.29 1.282-.261 3.095 1.066 2.534-.466 1.887.009.996.379 2.183-.793 1.412-1.189.123-.67-1.437-1.613-1.314-.789-2.958-1.095-5.04-.61-.538-.438-.896.642-.92 3.11-.03 2.819 1.04 2.489 1.215 1.878 4.097 4.23 2.158.119 1.543.471.853-.179 2.717.951 1.077-.288.718-.646 1.67-.42.649-.879.292-1.16"/>
<path stroke="none" d="M24.954 754.518c.3-.329.771-.561.898-.987.198-.669.188-1.416.015-2.091-1.006-3.929-2.136-7.834-3.534-11.641-.558-1.519-1.46-2.892-2.309-4.269-.195-.317-.47-.607-.8-.78-1.193-.626-2.369-1.586-3.717-1.593-1.038-.006-1.916.874-2.697 1.558-1.037.908-1.352 2.779-2.679 3.15-.998.28-1.674-1.256-2.628-1.662-.186-.08-.415.148-.51.326a14.206 14.206 0 0 0-1.156 2.77c-.679 2.351-1.37 4.716-1.706 7.139-.118.848.052 1.746.366 2.543.16.403.55.777.976.861.515.102 1.195.037 1.534-.365 1.158-1.373 1.65-3.206 2.704-4.661.72-.992 1.808-1.669 2.574-2.626.578-.723.856-1.654 1.43-2.38.499-.631 1.064-1.245 1.758-1.652.302-.178.795-.238 1.052.001.78.725 1.422 1.646 1.792 2.645 1.494 4.028 2.033 8.394 3.761 12.327.394.896 1.517 1.268 2.398 1.693m-77.646-3.274c.062-3.016-.093-6.043.185-9.047.066-.712.7-1.274.837-1.977.192-.99.21-2.017.133-3.022a3.483 3.483 0 0 0-.483-1.486c-.34-.575-1.303-.855-1.303-1.523 0-.463.844-.428 1.305-.479.991-.111 2.004-.138 2.992-.001 1.048.145 2.015 1.013 3.058.841.949-.156 1.637-1.041 2.311-1.725.145-.147.153-.481 0-.619-1.008-.911-1.981-2.098-3.31-2.374-2.637-.547-5.495-.747-8.079.011-1.139.334-1.5 1.869-2.002 2.945-.955 2.042-1.982 4.12-2.342 6.345-.431 2.671-.388 5.439.006 8.115.149 1.013.95 1.827 1.577 2.636.495.637 1.03 1.316 1.759 1.661.61.29 1.349.193 2.022.132"/>
<path fill="none" stroke-linecap="round" stroke-linejoin="round" stroke-width="4" d="m39.115 738.477 1.217.087-.53-.892-.15.382-1.048.351-1.304-.231-.94.299-2.725 1.97-.928 3.027.012 1.336.628 1.88.35.522.446-.044.971 2.071 1.468.17 2.076 1.02 8.09.399 1.067.51.232.519-.795-.438M52.208 741.707l-.057-.562.774-.274 1.055.618 1.822.107 3.425 1.144.772-.121 2.263.529 1.62-.092.735-.595 1.297.34 1.157-.09.352-.53-.472-2.371-1.492-1.498-1.519-.911-2.841-.734-1.83.044-.798.421-.206 4.243.252 2.112.736 2.615 1.139 2.073.785.308 1.24 1.959 1.779 1.651 3.067 1.625 1.88.449 1.43-.276 1.02-.82 1.919-2.507M-36.161 736.513l-.358-.127-.024.222.085-.74-.085.571-.25-.823-.4-.009-.137.415.058-.883-.256-.027.325-.815-.101-.426-.39.356-.013-.966.107.545.408.184.08-.273.035.236-.165.146-.03-.365-.336.767-.048-.437-.62 1.903.343 3.118-.876 2.999-.02 1.937.39.995-.363 1.504.51 2.747.417.878.162-.153.109 1.371.233.076-.121.31-.333-.139.617-.128 1.127.944.837-.508.85.502.813-.255.396-.611.167.288 1.386.101 1.78.94-1.568-.964-1.439-2.101M-35.89 726.352l-.2-2.075-.721-.687-.734-.157-.023-.28.284.584.514-.457.944 1.037M-18.254 740.799l1.236.001.236-.638.125.463-.495.897-.71-.428-1.186.213.06-.642.63.817.12-.435.13.697.015-.431-.047.354.41-.04.564.58 1.97.953.843.004.339-.31.703.356-.017-.258.38.586.671-.781 1.235-.369 1.023.117.606-.8.107.473.446-1.549.13-.187.073.269.487-1.028-.087-1.701-.046.537-.302-1.015-.649-.582-.63.088-1.905-1.392-.79.259-.172-.614-.07.397-.071-.22-.782.41-2.207-.361-.403.325-.173 1.131-.367-.313-2.407 3.335-.175 1.121-.219.123-.04-.255-1.343 1.477.143 1.259-.364 2.215.773 1.87.826.926.306-.059.185 1.002.188.136.088-.508.847 1.747.862.212.579.638.677-.007.282-.334.6 1.059.692-.593.655.587 1.61-.576 1.388.234.623-.25.753.132.354.462.508-.257.172-.719.202.449 1.942-.986 1.086.107 1.225-.361.057.464.475-1 .62.465.342-.606.616-.033.327-.35.082.354.468-.326.049.525.601-1.139 1.35.069.005-.452-.228.588-.2-.085.455-.511.12.852.838-.444-.116.641"/>
<path stroke="none" fill="#aaa" d="M61.705 648.749c5.578-.872 11.138-1.871 16.734-2.616 1.562-.208 3.193.148 4.72-.239.745-.188 1.12-1.094 1.817-1.417.26-.12.565.279.836.19 4.811-1.589 9.48-3.594 14.29-5.185 2.789-.923 5.718-1.391 8.494-2.354 1.27-.441 2.464-1.104 3.589-1.841.635-.415.969-1.223 1.638-1.58 3.613-1.926 7.52-3.267 11.118-5.219 2.205-1.196 4.22-2.717 6.243-4.2.596-.436.974-1.137 1.593-1.541 2.5-1.634 5.001-3.315 7.722-4.546.355-.161.661.781 1.005.598.308-.165-.487-.833-.199-1.03 1.147-.782 2.867-.551 3.89-1.49.942-.863.843-2.443 1.555-3.504.673-1.002 1.782-1.642 2.535-2.585.577-.723.775-1.726 1.43-2.38 2.37-2.37 5.206-4.243 7.57-6.62.835-.84 1.399-1.92 1.962-2.962.596-1.105.744-2.453 1.503-3.453a49.523 49.523 0 0 1 6.296-6.819c.924-.833 2.46-.855 3.27-1.799 1.274-1.486 1.443-3.724 2.732-5.197 1.111-1.27 3.12-1.505 4.237-2.77 1.626-1.842 2.256-4.403 3.791-6.322 1.165-1.457 3.106-2.183 4.213-3.684 2.58-3.502 3.663-8.099 6.739-11.175 2.126-2.125 5.781-1.97 8.197-3.759 2.114-1.567 3.415-4.006 5.06-6.06 1.043-1.303 2.123-2.589 3.003-4.006 1.056-1.7 1.579-3.722 2.788-5.316 1.015-1.339 2.724-2.029 3.775-3.34.355-.444-.031-1.194.253-1.688.37-.645 1.291-.876 1.607-1.55.133-.285-.586-.49-.508-.795.083-.324.64-.277.848-.54 1.308-1.648 2.303-3.534 3.66-5.142.363-.43 1.121-.425 1.433-.894 1.72-2.579 2.77-5.576 4.567-8.103.758-1.066 2.216-1.483 2.997-2.532.186-.25-.458-.459-.55-.757-.107-.346-.133-.743-.019-1.086.757-2.262 1.539-4.531 2.61-6.662.331-.66 1.107-.995 1.539-1.595.499-.694.883-1.47 1.228-2.253 1.478-3.357 2.694-6.83 4.237-10.158.728-1.57 1.798-2.962 2.565-4.513.594-1.201 1.267-2.408 1.511-3.726.074-.397-.751-.65-.628-1.035.259-.812 1.336-1.187 1.598-1.999.123-.381-.75-.649-.622-1.029.406-1.207 1.539-2.056 2.051-3.222 1.82-4.143 3.426-8.381 4.921-12.652 1.041-2.973 2.063-5.974 2.679-9.063.082-.41-.778-.668-.657-1.068.761-2.532 2.233-4.798 3.166-7.271.944-2.502 1.378-5.191 2.459-7.638 1.319-2.986 3.376-5.607 4.71-8.586 1.332-2.974 1.897-6.257 3.262-9.216.424-.919 1.632-1.325 2.031-2.255.158-.368-.729-.642-.621-1.028.559-2.007 1.553-3.871 2.503-5.725.928-1.811 2.369-3.355 3.118-5.246.149-.376-.746-.649-.628-1.035.935-3.078 2.679-5.866 3.657-8.93.101-.315-.662-.524-.54-.831.245-.622 1.168-.793 1.424-1.41.121-.292-.587-.491-.51-.798.13-.518.828-.739 1.019-1.238.709-1.845 1.43-3.732 1.643-5.697.102-.933-.862-1.791-.728-2.72.109-.755 1.07-1.126 1.385-1.82.085-.187-.412-.342-.319-.525.385-.76 1.328-1.188 1.597-1.996.123-.369-.721-.633-.598-1.002.269-.809 1.336-1.186 1.598-1.998.119-.37-.523-.602-.642-.972a1.934 1.934 0 0 1-.02-1.09c.465-1.665 1.402-3.198 1.696-4.902.068-.399-.549-.624-.676-1.008-.113-.343-.173-.759-.014-1.084.892-1.818 2.274-3.375 3.105-5.221 1.38-3.062 2.128-6.384 3.503-9.448 1.324-2.949 3.301-5.579 4.575-8.55 2.974-6.939 5.3-14.14 8.147-21.132a10.48 10.48 0 0 1 1.504-2.566c1.291-1.619 2.914-2.955 4.195-4.582 1.351-1.715 2.621-3.508 3.678-5.417.274-.494.004-1.168.25-1.676.521-1.079 1.178-2.115 2.002-2.984 1.763-1.861 3.72-3.536 5.708-5.154.718-.584 1.686-.818 2.38-1.43 2.059-1.816 4.063-3.715 5.833-5.813 1.744-2.068 2.872-4.616 4.669-6.638.897-1.009 2.355-1.381 3.31-2.336 1.119-1.119 1.639-2.773 2.836-3.808 1.252-1.083 2.993-1.448 4.345-2.403.409-.289.382-1.028.83-1.251 2.283-1.141 4.909-1.516 7.152-2.734 1.088-.591 1.609-1.937 2.658-2.595 1.676-1.051 3.709-1.433 5.401-2.457.831-.503 1.472-1.288 2.061-2.06.621-.815 1.3-1.665 1.538-2.661.093-.39-.543-.62-.666-1.002a1.71 1.71 0 0 1 0-1.054c.126-.368.558-.577.685-.944.118-.342.159-.753.014-1.084-.431-.987-.93-1.991-1.691-2.753-.715-.716-1.614-1.376-2.611-1.554-2.006-.359-4.117-.408-6.115-.006-2.317.468-4.498 1.509-6.61 2.571-1.333.67-2.348 1.862-3.651 2.589-1.728.963-3.69 1.467-5.403 2.458-1.428.827-2.676 1.934-3.965 2.965-1.349 1.078-2.827 2.042-3.944 3.359-4.401 5.188-8.139 10.915-12.555 16.09-.637.746-1.763.906-2.5 1.553-.419.367-.461 1.055-.885 1.416-.919.784-2.167 1.129-3.058 1.943-1.203 1.099-2.186 2.423-3.153 3.734-1.501 2.033-3.082 4.039-4.242 6.284-1.327 2.57-1.671 5.605-3.175 8.076-1.122 1.843-3.388 2.787-4.548 4.606-1.921 3.012-3.338 6.342-4.573 9.695-.138.377.696.635.622 1.03-.1.542-.834.77-1.05 1.278-2.311 5.422-4.05 11.084-6.501 16.445-.918 2.009-2.588 3.605-3.569 5.585-1.007 2.032-1.396 4.329-2.359 6.382-.556 1.187-1.596 2.102-2.171 3.28-.249.512-.012 1.173-.253 1.689-.326.697-1.02 1.168-1.396 1.84-.058.103.278.194.206.289-.448.592-1.344.854-1.6 1.552-.31.84-.125 1.805.041 2.685.073.384.777.604.652.974-.275.813-1.213 1.236-1.651 1.974-.176.297-.132.684-.132 1.03 0 .675-.039 1.368.131 2.022.099.378.771.602.652.974-.259.813-1.329 1.19-1.599 1.999-.122.369.728.635.599 1.002-.283.807-1.434 1.142-1.641 1.972-.173.688.7 1.323.64 2.03-.029.339-.673.268-.861.553a9.386 9.386 0 0 0-1.125 2.45c-.986 3.257-1.607 6.617-2.607 9.869-.227.741-.99 1.298-1.061 2.07-.067.727.851 1.374.678 2.083-.493 2.024-1.612 3.847-2.572 5.696-.254.489-.952.734-1.05 1.275-.071.399.715.641.633 1.038-.323 1.561-1.016 3.039-1.767 4.446-.49.918-1.608 1.469-1.922 2.462-.193.612.841 1.261.564 1.839-.482 1.006-1.943 1.255-2.506 2.218-.196.334.525.6.64.971.104.335.286.866-.012 1.052-.461.287-1.246-.415-1.629-.029-.285.287.708.642.628 1.038-.264 1.312-.943 2.514-1.58 3.691-.263.486-1.016.7-1.091 1.247-.097.704.979 1.408.641 2.031-.945 1.739-2.835 2.773-4.084 4.307-.646.793-1.376 1.631-1.572 2.635-.138.706.879 1.372.656 2.056-.492 1.507-2.044 2.493-2.622 3.97-.152.387.769.664.652 1.063-.607 2.078-1.914 3.89-2.691 5.91-.207.539.042 1.213-.242 1.716-.367.647-1.291.876-1.607 1.55-.133.284.524.479.509.792-.019.387-.604.61-.598.998.006.403.714.64.629 1.034-.3 1.388-1.346 2.531-1.695 3.907-.305 1.204.116 2.528-.24 3.718-.22.736-1.075 1.131-1.416 1.819-.147.297.147.687.024.994-.133.332-.593.454-.734.782-.627 1.455-.872 3.059-1.54 4.495-.537 1.155-1.71 1.996-2.051 3.222-.163.585.805 1.092.687 1.687-.15.748-1.074 1.123-1.387 1.818-.115.256.296.556.199.819-.357.958-1.264 1.681-1.499 2.676-.092.39.618.628.622 1.029.005.388-.607.612-.598 1 .008.388.525.602.642.973.106.335.225.785-.001 1.054-1.021 1.22-2.588 1.922-3.55 3.188-.189.249.521.449.55.76a2.597 2.597 0 0 1-.34 1.504c-.215.374-.573.773-1.002.82-.387.043-.625-.509-1.004-.598-.135-.031-.332.161-.295.295.106.377.553.599.651.978.171.654.199 1.35.132 2.022a3.655 3.655 0 0 1-.482 1.486c-.34.573-1.131.873-1.301 1.517-.1.376.525.603.642.974.106.335.227.787-.001 1.054-1.083 1.274-2.656 2.07-3.74 3.342-.283.331.026.922-.208 1.289-.4.628-1.299.874-1.605 1.552-.134.297.625.508.533.82-.318 1.077-1.373 1.852-1.645 2.941-.1.401.785.669.645 1.057-.355.99-1.389 1.596-1.923 2.502-.775 1.316-1.163 2.841-1.982 4.13-.402.632-1.305.874-1.628 1.55-.135.283.625.501.509.792-.399 1-1.13 1.852-1.872 2.631-.698.733-1.688 1.14-2.401 1.857-.307.307-.307.835-.599 1.156-1.194 1.314-2.833 2.235-3.825 3.709-.425.632.26 1.672-.203 2.278-.73.952-2.14 1.139-3.03 1.943-.862.779-1.548 1.749-2.155 2.739-1.047 1.706-1.595 3.711-2.79 5.317-.755 1.016-2.091 1.464-2.947 2.397-.711.775-1.037 1.838-1.691 2.661-.604.76-1.23 1.557-2.061 2.06-1.692 1.024-3.666 1.508-5.401 2.457-.457.25-.835.659-1.108 1.103-2.913 4.729-5.175 9.871-8.427 14.374-1.14 1.579-3.334 2.132-4.577 3.632-1.256 1.517-1.472 3.734-2.759 5.224-.855.991-2.357 1.167-3.419 1.932a7.58 7.58 0 0 0-1.822 1.844c-.939 1.375-1.441 3.023-2.424 4.367-.33.451-1.059.465-1.42.891-.784.923-1.205 2.111-1.944 3.071-.573.746-1.264 1.401-1.973 2.02-.706.616-1.719.907-2.26 1.672-1.385 1.962-2.159 4.295-3.403 6.348-.603.994-1.393 1.861-2.122 2.766-.645.803-1.221 1.681-1.999 2.356-.786.683-1.831 1.013-2.638 1.67-.933.759-1.831 1.588-2.551 2.551-.829 1.107-1.185 2.529-2.054 3.604-.589.73-1.568 1.05-2.237 1.707-.556.546-.741 1.457-1.402 1.869-.265.165-.479-.455-.787-.506-.183-.03-.331.176-.472.298-1.597 1.383-2.981 3.035-4.736 4.21-.26.175-.482-.457-.792-.508-.183-.03-.354.154-.471.298-.414.509-.624 1.181-1.1 1.633-.709.673-1.464 1.398-2.398 1.689-.383.12-.634-.678-1.031-.62-.332.048-.279.639-.542.849-2.085 1.669-4.115 3.459-6.455 4.748-.351.194-.649-.751-1.029-.622-1.216.412-2.086 1.524-3.247 2.072-2.084.983-4.384 1.47-6.445 2.5-.636.317-.863 1.243-1.532 1.482-4.23 1.51-8.67 2.357-12.96 3.692-.87.271-1.612.89-2.494 1.118-8.049 2.079-16.111 4.13-24.256 5.791-.397.081-.632-.625-1.037-.632-.388-.006-.612.608-1 .599-.388-.008-.602-.525-.973-.642a1.726 1.726 0 0 0-1.054 0c-.368.127-.578.559-.946.686-.332.113-.72.106-1.054 0-.37-.117-.584-.644-.973-.642-.39.002-.596.551-.974.651-.654.174-1.349.147-2.026.147-1.676 0-3.366.087-5.026-.147-.388-.055-.555-.692-.947-.695-.724-.004-1.347.776-2.064.676-1.703-.237-3.306-.971-4.887-1.644-.845-.359-1.51-1.063-2.349-1.436-3.167-1.411-6.353-2.803-9.64-3.904-3.216-1.078-6.632-1.497-9.833-2.619-3.089-1.084-6.04-2.539-8.979-3.981-.494-.242-.733-.948-1.274-1.049-.395-.073-.657.772-1.03.623-1.912-.764-3.43-2.317-5.31-3.155-3.021-1.346-6.494-1.672-9.331-3.37-3.91-2.34-7.028-5.805-10.64-8.583-.734-.564-1.71-.791-2.38-1.43-6.411-6.117-12.627-12.437-18.809-18.785-.455-.467-.615-1.171-1.075-1.634-.982-.988-2.325-1.601-3.211-2.676-1.353-1.641-2.004-3.803-3.43-5.38-4.845-5.357-10.35-10.086-15.308-15.338-.809-.856-1.17-2.065-1.954-2.944-1.892-2.124-3.948-4.1-6.039-6.029-.307-.284-.822-.276-1.118-.573a102.626 102.626 0 0 1-6.151-6.736c-.592-.712-.81-1.693-1.43-2.38-2.466-2.731-5.251-5.158-7.786-7.826-.8-.842-1.7-1.65-2.21-2.695-.137-.282.775-.629.508-.795-.377-.234-.853.304-1.298.305-.187.001-.34-.17-.474-.299-1.463-1.41-3.02-2.741-4.31-4.31-1.09-1.325-1.673-3.021-2.789-4.324-.907-1.058-2.34-1.588-3.211-2.676-2.368-2.961-4.057-6.424-6.43-9.38-.934-1.163-2.369-1.825-3.419-2.884-.816-.823-1.484-1.784-2.149-2.734-2.864-4.091-5.436-8.387-8.432-12.382-2.014-2.685-4.56-4.942-6.574-7.626-.999-1.332-1.382-3.068-2.422-4.368-1.651-2.063-3.967-3.538-5.578-5.632-1.748-2.273-2.817-5.002-4.426-7.374-1.871-2.759-3.839-5.463-6-8-.663-.778-1.699-1.159-2.419-1.884a54.305 54.305 0 0 1-4.151-4.736c-.571-.728-.774-1.727-1.43-2.38-1.776-1.77-4.01-3.036-5.783-4.808-.916-.916-1.353-2.227-2.217-3.192-2.074-2.316-4.562-4.247-6.57-6.62-1.672-1.976-2.83-4.344-4.43-6.38-2.072-2.637-4.476-5.001-6.57-7.62-.571-.714-.761-1.709-1.407-2.356-.731-.731-1.943-.883-2.616-1.668-1.377-1.607-2.086-3.703-3.407-5.356-1.342-1.68-3.271-2.846-4.535-4.585-1.422-1.957-1.988-4.456-3.442-6.391-.622-.826-1.885-.937-2.616-1.668-1.004-1.005-1.439-2.508-2.502-3.451-1.937-1.718-4.353-2.82-6.38-4.43-1.143-.907-2.174-1.963-3.095-3.095-1.928-2.369-3.442-5.061-5.43-7.38-2.023-2.361-4.561-4.247-6.57-6.62-2.788-3.292-4.95-7.088-7.789-10.337-1.76-2.013-4.107-3.442-5.949-5.381-.724-.762-.999-1.872-1.692-2.662-1.739-1.983-3.881-3.594-5.57-5.62-1.658-1.989-2.808-4.363-4.432-6.38-.349-.433-1.059-.457-1.417-.884-1.371-1.639-2.255-3.66-3.7-5.234-.704-.766-1.848-.992-2.638-1.669-1.445-1.237-2.763-2.62-4.029-4.038-.278-.313-.276-.823-.573-1.119a76.706 76.706 0 0 0-5.736-5.151c-.719-.583-1.69-.814-2.38-1.43-2.394-2.136-4.472-4.605-6.825-6.786-.308-.284-.823-.276-1.119-.573-2.224-2.227-4.116-4.776-6.394-6.949-.761-.726-1.872-.999-2.662-1.692-1.88-1.649-3.621-3.457-5.311-5.3-.283-.309-.276-.824-.573-1.119a50.892 50.892 0 0 0-4.736-4.151c-2.049-1.582-4.358-2.813-6.38-4.43-1.323-1.059-2.253-2.569-3.62-3.57-6.19-4.534-12.657-8.678-18.998-12.998-.979-.668-1.921-1.4-2.964-1.964-1.105-.597-2.378-.855-3.453-1.503-.632-.381-.971-1.139-1.591-1.538-2.244-1.443-4.536-2.837-6.957-3.959-4.395-2.038-9.037-3.507-13.451-5.504-2.137-.968-4.002-2.492-6.174-3.378-2.946-1.202-6.017-2.1-9.108-2.856-.655-.16-1.417-.169-2.02.134-.811.406-1.552 1.068-1.976 1.869-.4.754-.567 1.708-.36 2.536.259 1.036.723 2.248 1.676 2.73 3.247 1.646 7.002 2.034 10.384 3.381 6.002 2.39 12.065 4.72 17.734 7.819 9.026 4.935 17.622 10.627 26.252 16.227 2.798 1.816 5.435 3.879 8.006 6.004 2.058 1.701 3.782 3.785 5.864 5.458 1.36 1.092 3.103 1.659 4.418 2.805 2.856 2.487 5.436 5.277 8.028 8.037.287.306.278.822.574 1.119 2.711 2.711 5.69 5.145 8.401 7.856.304.304.294.84.599 1.144 1.886 1.882 4.041 3.482 5.925 5.366.461.461.582 1.207 1.075 1.634 1.927 1.665 4.159 2.95 6.116 4.581a25.274 25.274 0 0 1 3.095 3.095c.844.997 1.32 2.29 2.244 3.214 1.44 1.441 3.338 2.369 4.779 3.81.736.736 1.028 1.818 1.669 2.638.986 1.26 2.241 2.298 3.195 3.582.965 1.296 1.534 2.865 2.539 4.13 1.118 1.406 2.602 2.484 3.79 3.831.277.315.277.822.573 1.119.66.663 1.608 1.004 2.234 1.7.695.773.932 1.901 1.668 2.637.924.924 2.212 1.406 3.214 2.244a21.825 21.825 0 0 1 2.833 2.813c.67.81 1.017 1.856 1.692 2.662 1.09 1.301 2.556 2.268 3.574 3.626.992 1.325 1.343 3.073 2.401 4.346.627.754 1.762.907 2.5 1.553 1.807 1.582 3.579 3.232 5.095 5.095 1.342 1.649 2.154 3.679 3.43 5.38.734.979 1.806 1.664 2.57 2.62.571.714.718 1.754 1.407 2.356 1.992 1.739 4.466 2.858 6.498 4.549 1.848 1.538 3.603 3.219 5.099 5.101 1.035 1.304 1.47 3.002 2.422 4.368 2.856 4.094 5.752 8.175 8.981 11.982.634.747 1.731.94 2.498 1.549.775.616 1.531 1.29 2.099 2.101.953 1.365 1.454 3.013 2.422 4.368.713.997 1.821 1.658 2.574 2.626 1.589 2.044 2.745 4.414 4.43 6.38 2.33 2.718 5.167 4.966 7.57 7.62.869.96 1.376 2.206 2.217 3.192a29.986 29.986 0 0 0 3.308 3.283c1.087.931 2.533 1.446 3.475 2.525 1.399 1.602 2.096 3.723 3.43 5.38.641.796 1.739 1.121 2.419 1.884a84.788 84.788 0 0 1 6.151 7.736c1.644 2.348 2.635 5.135 4.426 7.374.931 1.162 2.545 1.596 3.597 2.65.737.739.974 1.873 1.681 2.641.91.986 2.252 1.524 3.11 2.555.835 1.004 1.131 2.364 1.873 3.437.805 1.163 1.677 2.309 2.746 3.236.166.144.398-.575.528-.397 1.044 1.426 1.551 3.195 2.575 4.637 1.002 1.411 2.428 2.48 3.464 3.867 2.268 3.037 4.088 6.399 6.43 9.38.631.804 1.753 1.108 2.418 1.884 2.172 2.532 4.111 5.258 6.039 7.98.935 1.318 1.54 2.861 2.541 4.129.346.439 1.057.466 1.421.891 1.657 1.934 2.853 4.245 4.581 6.116 4.668 5.054 9.93 9.539 14.57 14.62 2.46 2.694 4.238 5.96 6.69 8.66.88.968 2.212 1.408 3.215 2.245 1.012.845 1.934 1.8 2.81 2.785 1.722 1.937 3.192 4.094 4.977 5.973 4.561 4.802 9.506 9.232 14.046 14.055.72.765.999 1.871 1.692 2.662 1.739 1.983 3.831 3.637 5.57 5.62.693.79.981 1.887 1.692 2.662a141.32 141.32 0 0 0 8.833 8.813c.675.617 1.709.761 2.355 1.407.694.693.905 1.761 1.552 2.497.367.419 1.023.491 1.417.885 1.317 1.317 2.261 2.998 3.676 4.211.955.819 2.345.999 3.322 1.791.783.635 1.139 1.677 1.845 2.397 1.6 1.629 3.24 3.239 5.053 4.628 1.036.793 2.351 1.148 3.437 1.871 1.514 1.009 2.845 2.275 4.341 3.311.843.584 1.666 1.3 2.663 1.54.402.096.687-.828 1.057-.646 6.787 3.332 13.085 7.606 19.879 10.923 2.55 1.245 5.299 2.092 8.066 2.722.402.091.678-.81 1.056-.645 3.222 1.41 6.072 3.559 9.214 5.14 1.459.733 2.998 1.313 4.56 1.788 2.435.74 4.972 1.114 7.409 1.849.624.188 1.092.793 1.735.908 1.33.237 2.708.282 4.05.123.71-.084 1.282-.667 1.977-.837.657-.162 1.349-.146 2.026-.146.677 0 1.367-.008 2.026.145"/>
<path stroke="none" d="M-199.505 659.843c.247-.202.609-.315.74-.606.676-1.506 1.333-3.053 1.633-4.677.247-1.339.174-2.737-.016-4.086-.055-.388-.695-.555-.695-.947 0-.706.599-1.302.695-2.001.139-1.008.403-2.119-.001-3.052a4.609 4.609 0 0 0-2.325-2.326c-.935-.402-2.112-.376-3.054.009-.433.178-.494.938-.314 1.37.33.794 1.244 1.214 1.693 1.947.181.295.134.683.134 1.029 0 1.342.075 2.698-.133 4.023-.06.386-.649.583-.651.974-.002.388.525.602.642.973.106.335.115.722 0 1.054-.129.37-.641.559-.695.947-.186 1.338-.324 2.741.001 4.052.149.606.784 1.013 1.328 1.318m452.022-4c.45-.44 1.015-.787 1.352-1.319.185-.292.131-.683.134-1.029.041-5.013.709-10.078-.003-15.041-.159-1.115-1.364-2.158-2.482-2.293-.965-.116-1.672 1.025-2.365 1.707-.148.146-.114.449 0 .622.481.73 1.259 1.238 1.716 1.983.182.295.129.683.134 1.029.039 2.664.208 5.337 0 7.993-.056.715-.74 1.288-.784 2.004-.024.388.607.612.598 1-.009.388-.525.602-.642.973-.106.335-.17.747.001 1.054a3.487 3.487 0 0 0 1.318 1.317m-131.509-6.331c.625-2.681 1.991-5.292 1.874-8.043-.046-1.089-1.415-1.695-2.314-2.312-.29-.199-.747-.17-1.055 0-.544.301-1.236.7-1.324 1.316a28.956 28.956 0 0 0 0 8.052c.087.616.737 1.11 1.324 1.316m-171.986-9.053c.788-.754 1.899-1.277 2.365-2.263.431-.91.247-2.018.135-3.019-.44-3.952-1.01-7.895-1.787-11.794-.057-.286-.398-.465-.676-.554-.333-.107-.744-.171-1.05-.001-.545.301-.996.787-1.324 1.316-.183.294-.13.683-.134 1.029-.04 3.33-.392 6.684 0 9.991.196 1.668 1.029 3.208 1.74 4.731m305.37-21.325c.579-.782 1.27-1.493 1.736-2.346.171-.312.121-.704.124-1.06.039-4.329.09-8.66 0-12.988-.009-.447-.073-.921-.297-1.308-.619-1.071-1.078-2.454-2.19-2.996-.556-.27-1.015.752-1.35 1.272-.187.291-.13.683-.133 1.029-.042 5.664-.14 11.331.001 16.993.011.473.06 1.083.454 1.345m-214.722-7.104c2.908-1.187 5.714-2.664 8.724-3.56.383-.114.618.542.999.665.344.112.75.154 1.084.014.943-.395 1.827-.944 2.635-1.571.782-.607 1.596-1.248 2.098-2.101 2.408-4.09 5.582-7.989 6.574-12.63 1.262-5.903.66-12.108 0-18.108-.228-2.07-1.654-3.826-2.615-5.673-1.232-2.367-2.516-4.713-3.959-6.957-.399-.62-1.157-.959-1.538-1.591-.647-1.074-.796-2.413-1.5-3.45-1.409-2.074-2.763-4.319-4.783-5.803-2.01-1.475-4.525-2.158-6.933-2.801-.392-.105-.606.627-1.008.681-1.51.204-3.215.763-4.572.07-1.16-.593-1.054-2.439-1.94-3.394-.367-.394-1.052-.534-1.569-.385-1.078.312-1.83 1.401-2.916 1.68-.404.104-.659-.746-1.066-.656-2.205.489-4.39 1.222-6.37 2.307-3.294 1.805-6.675 3.656-9.343 6.302-1.404 1.393-1.476 3.683-2.457 5.401-.367.643-1.212.935-1.542 1.598-1.397 2.805-2.67 5.693-3.58 8.691-.117.386.633.631.628 1.034-.004.391-.553.596-.652.974-.17.653-.248 1.357-.13 2.022.123.705.697 1.276.835 1.978.195.991.148 2.016.148 3.026 0 1.01.05 2.036-.148 3.026-.076.383-.64.583-.651.974-.01.388.604.611.598 1-.006.403-.723.642-.628 1.034.561 2.314 1.565 4.503 2.503 6.692.839 1.959 1.834 3.849 2.82 5.739.45.861.905 1.727 1.483 2.507.956 1.287 1.849 2.676 3.104 3.672 2.049 1.626 4.325 2.986 6.691 4.103 3.112 1.468 6.33 2.775 9.667 3.616.7.176 1.34-.681 2.061-.662.714.018 1.286.768 2 .768s1.286-.74 2-.768c.39-.016.589.587.974.651m-230.514-.331c.297-.33.691-.594.892-.99.157-.31.132-.687.133-1.035.004-2.686.256-5.397-.118-8.057-.556-3.965-1.403-7.912-2.658-11.715-.239-.724-.948-1.461-1.709-1.523-.617-.051-1.209.67-1.351 1.273-.385 1.629-.382 3.364-.135 5.019.654 4.375 2.152 8.595 2.823 12.967.061.401-.552.625-.68 1.011-.113.343-.176.761-.013 1.083.433.859.937 1.761 1.725 2.311m235.68-5.027c-4.367.008-8.799.768-13.103.024-2.786-.481-5.17-2.302-7.673-3.615a16.773 16.773 0 0 1-2.963-1.962c-1.123-.939-2.429-1.808-3.103-3.108a83.352 83.352 0 0 1-5.57-13.616c-.213-.685.694-1.316.706-2.034.01-.709-.642-1.318-.642-2.027 0-.389.525-.602.642-.973a1.784 1.784 0 0 0 0-1.054c-.117-.371-.634-.585-.642-.973-.009-.388.609-.612.598-1-.01-.391-.576-.591-.652-.974-.194-.989-.317-2.029-.133-3.02.377-2.031.928-4.056 1.796-5.931.887-1.914 2.47-3.441 3.418-5.326.705-1.4.485-3.264 1.504-4.455 1.107-1.294 3.049-1.541 4.452-2.505.87-.599 1.275-2.266 2.325-2.154 1.333.142 1.704 2.265 2.967 2.716 1.577.562 3.355.307 5.02.134 1.048-.109 1.958-.877 3.007-.97 2.654-.234 5.355-.384 7.991-.001 1.342.196 2.664.821 3.696 1.701 1.288 1.099 2.178 2.61 3.057 4.057.652 1.073.805 2.411 1.506 3.453.303.452 1.012.465 1.391.856.547.563.956 1.254 1.328 1.945 1.24 2.303 2.823 4.496 3.503 7.022 1.18 4.38 1.46 8.956 2.01 13.459.083.681.055 1.39-.117 2.053a31.506 31.506 0 0 1-1.678 4.864 84.38 84.38 0 0 1-3.943 7.803c-.525.914-1.099 1.877-1.963 2.481-.268.187-.505-.622-.82-.536-2.304.626-4.518 1.573-6.685 2.577m-94.82-3.226c.297-.33.817-.553.893-.992a18.35 18.35 0 0 0 .147-5.031c-.39-3.684-1.485-7.272-1.838-10.959-.039-.408.6-.616.691-1.015a5.027 5.027 0 0 0 .017-2.088c-.482-2.397-.955-4.825-1.865-7.095-.249-.619-.931-.981-1.508-1.315-.183-.106-.48-.072-.627.079a10.643 10.643 0 0 0-1.73 2.339c-.169.31-.145.702-.11 1.053.541 5.395 1.027 10.801 1.837 16.163.438 2.896 1.101 5.761 1.902 8.578.085.298.4.561.707.601m93.294-1.121c1.418-.75 3.134-1.102 4.255-2.25 1.645-1.684 2.807-3.823 3.775-5.97.16-.354-.525-.602-.642-.973a1.715 1.715 0 0 1 0-1.054c.129-.37.606-.566.695-.947.157-.676.23-1.423.01-2.08-.357-1.064-1.354-1.843-1.684-2.916-.096-.311.668-.523.532-.819-.35-.762-1.08-1.299-1.741-1.815-.892-.695-3.297-.74-2.881-1.791.782-1.976 3.472-2.457 5.102-3.82.626-.524 1.642-1.003 1.64-1.819-.006-1.422-1.37-2.539-1.66-3.932-.081-.395.74-.647.63-1.034-.17-.589-.714-1.121-1.3-1.299-.371-.114-.616.646-1.002.597-.314-.041-.244-.643-.522-.793-1.407-.759-2.864-1.488-4.416-1.872-.998-.248-2.07-.144-3.086.015-.584.091-1.052.882-1.62.719-.947-.273-1.392-1.489-2.31-1.849-.644-.253-1.397-.029-2.07.13-.693.163-1.27.941-1.972.822-1.43-.244-2.56-1.413-3.948-1.832-.663-.2-1.523-.404-2.078.011-1.078.808-1.876 2.031-2.338 3.297-.352.964-.318 2.107.01 3.08.25.74.915 1.343 1.606 1.705 1.469.77 3.072 1.338 4.709 1.602.417.067.66-.742 1.076-.669 1.834.321 4.069.382 5.291 1.786.617.708-1.526 1.129-2.115 1.86-.651.808-1.598 1.659-1.558 2.697.056 1.451 1.038 2.733 1.815 3.959.462.731 1.135 1.329 1.844 1.823 1.475 1.025 3.418 1.407 4.66 2.704.598.623.614 1.728.385 2.56-.256.937-.942 1.775-1.728 2.344-.441.319-1.1.213-1.63.087-3.403-.81-6.759-1.817-10.092-2.879-.68-.216-1.21-1.028-1.92-.947-1.339.153-2.521.969-3.716 1.592-.32.167-.529.49-.776.752-.295.313-.733.558-.85.972-.188.667-.236 1.424-.011 2.08.345 1.003.67 2.333 1.66 2.717 4.686 1.815 9.689 2.741 14.641 3.596m220.522-20.346c.63-.665 1.381-1.233 1.89-1.995.193-.287.131-.683.134-1.03.041-5.33.297-10.67 0-15.993-.042-.746-.469-1.484-1.005-2.006-.384-.375-1.114-.798-1.541-.472-1.09.835-1.926 2.096-2.304 3.417-.464 1.62-.291 3.378-.12 5.054.073.712.666 1.283.837 1.978.161.657.134 1.349.147 2.026.031 1.665.179 3.342-.014 4.996-.085.724-.952 1.318-.807 2.032.191.942.91 1.777 1.692 2.337m-451.026-27.321c.38-1.016 1.042-1.967 1.141-3.048.242-2.663.655-5.467-.134-8.022-.46-1.492-1.915-2.66-3.351-3.273-.566-.242-1.033.736-1.341 1.269-.183.316-.078.732-.026 1.093.592 4.147.717 8.412 1.957 12.413m386.676-8.252c4.152-1.491 8.487-2.546 12.455-4.473 1.301-.632 2.209-1.904 3.068-3.067.989-1.34 1.424-3.035 2.422-4.368 1.01-1.349 2.836-2.076 3.547-3.605 1.404-3.022 1.961-6.381 2.611-9.649.265-1.327.264-2.713.116-4.059-.079-.712-.749-1.287-.784-2.003-.021-.404.72-.642.632-1.037-.59-2.637-1.435-5.237-2.582-7.683-1.25-2.664-3.203-4.946-4.566-7.554-1.418-2.71-2.284-5.693-3.762-8.371-.456-.826-1.216-1.469-1.977-2.027-1.386-1.013-2.808-2.051-4.418-2.651-.375-.14-.627.628-1.028.622-.391-.006-.588-.59-.974-.652-1.326-.211-2.683-.146-4.026-.146-.677 0-1.375-.039-2.026.147-.379.108-.56.637-.948.704-1.003.174-2.112.376-3.054-.01-.433-.177-.388-.907-.314-1.369.061-.385.559-.578.685-.946.113-.332.169-.747-.001-1.055-.301-.544-.698-1.251-1.316-1.323-3.337-.391-6.786-.673-10.08-.011-2.751.553-5.221 2.12-7.623 3.569-1.874 1.131-3.893 2.301-5.116 4.116-2.865 4.249-4.771 9.075-6.915 13.729-.719 1.563-1.492 3.175-1.66 4.887a63.265 63.265 0 0 0-.001 12.122c.199 2.082 1.031 4.059 1.735 6.028.421 1.178.98 2.312 1.631 3.38a73.365 73.365 0 0 0 4.218 6.221c.601.79 1.235 1.631 2.108 2.103 3.525 1.905 7.257 3.404 10.951 4.954a49.41 49.41 0 0 0 5.501 1.947c2.357.674 4.732 1.352 7.163 1.676m2.102-5.034c-3.699-.909-7.456-1.61-11.097-2.727-.828-.254-1.428-.997-2.216-1.356-2.775-1.264-5.963-1.741-8.452-3.504-2.149-1.521-3.535-3.919-5.063-6.064-.812-1.141-1.382-2.444-1.919-3.737-.659-1.59-1.385-3.189-1.661-4.888-.324-1.993-.283-4.044-.117-6.057.059-.714.748-1.287.784-2.003.02-.404-.731-.645-.632-1.037a71.735 71.735 0 0 1 3.585-10.687c1.049-2.455 2.441-4.765 3.96-6.96.758-1.096 1.684-2.134 2.815-2.838 2.491-1.55 5.105-3.011 7.919-3.84 1.633-.482 3.443-.356 5.107 0 .867.186 2.304.68 2.157 1.553-.201 1.202-2.056 1.381-2.809 2.34-.793 1.008-1.617 2.158-1.73 3.436-.056.631.699 1.192 1.303 1.384.969.309 2.104.369 3.052 0 1.48-.575 2.417-2.192 3.919-2.707.68-.234 1.336.678 2.055.655.717-.023 1.291-.704 2.003-.784 1.654-.185 3.334-.131 4.994 0 .532.042 1.252.05 1.517.514 1.563 2.74 2.371 5.851 3.736 8.695.238.496.908.742 1.048 1.273.079.302-.702.544-.506.787 1.117 1.382 2.861 2.162 3.995 3.531.817.986 1.388 2.189 1.762 3.415.818 2.685 1.443 5.443 1.789 8.229.05.404-.637.634-.638 1.041-.001.405.721.642.633 1.037-.589 2.636-1.484 5.213-2.58 7.681-.299.674-1.11.991-1.538 1.592-1.234 1.732-2.165 3.67-3.43 5.38-.591.798-1.321 1.498-2.108 2.103-.583.448-1.271.751-1.955 1.018m56.62 2.235c1.007-4.995 2.212-9.954 3.022-14.984.084-.522-.063-1.107-.362-1.543-.512-.748-1.22-1.369-1.976-1.87-.287-.19-.685-.164-1.026-.118-.467.064-1.118.027-1.343.441-.326.602-.157 1.385-.009 2.054.087.397.766.612.685 1.011-.618 3.039-1.928 5.899-2.7 8.902-.171.665-.304 1.394-.118 2.055.436 1.55.833 3.255 1.939 4.426m-67.116-3.38c.223-.475.351-1.007.669-1.424.114-.15.456.003.542-.166 1.03-2.031 2.431-4.009 2.722-6.268.116-.9-1.371-1.307-1.636-2.174-.117-.386.946-.724.663-1.012-.38-.387-1.385.514-1.628.029-.317-.632.632-1.318.629-2.025-.002-.388-.524-.602-.642-.971-.109-.344-.169-.758-.013-1.083.386-.801.836-1.656 1.572-2.154.271-.183.512.646.82.536 2.647-.939 5.153-2.25 7.648-3.542.3-.155.62-.428.667-.762.185-1.337.323-2.74 0-4.05-.149-.607-.794-.997-1.325-1.325-.294-.183-.684-.127-1.03-.134-1.997-.038-4.006-.208-5.993 0-.711.075-1.276.691-1.977.837a5.081 5.081 0 0 1-2.048-.002c-.29-.06-.61-.282-.682-.57-.715-2.876-1.346-5.789-1.635-8.739-.039-.405.555-.627.682-1.014.11-.334.164-.744-.001-1.055-.312-.586-.873-1.001-1.342-1.471-.305-.305-.555-.749-.974-.853-.979-.241-2.017-.211-3.023-.133-.519.04-1.04.212-1.485.482-.507.308-.734 1.373-1.305 1.212-.815-.23-.906-1.462-1.546-2.016-.691-.596-1.485-1.152-2.372-1.369-.447-.108-.836.5-1.295.475-.388-.021-.653-.772-1.001-.598-1.623.812-3.201 1.87-4.35 3.275-.432.529-.145 1.382-.001 2.05.082.382.641.583.651.974.01.388-.603.612-.599 1 .005.401.772.657.623 1.029-.758 1.891-2.189 3.442-3.137 5.245-.618 1.175-1.209 2.385-1.552 3.667-.179.671-.396 1.524.015 2.083.816 1.108 2.315 1.514 3.322 2.452.862.803 1.288 2.044 2.245 2.732.263.189.505-.626.814-.53 1.072.331 1.878 1.253 2.914 1.684.53.22 1.21-.053 1.704.238.706.415.906 1.595 1.706 1.767.905.193 1.724-.761 2.646-.836.53-.043 1.229.05 1.514.498.958 1.505 1.615 3.229 1.972 4.977.268 1.314.087 2.697-.134 4.02-.064.386-.566.577-.695.947-.115.332-.212.774.001 1.054.944 1.245 1.917 2.616 3.314 3.315.634.317 1.319-.632 2.028-.641.392-.005.629.506 1.009.602m-10.965-22.988c-.752-.704-1.985-1.119-2.257-2.112-.184-.672.9-1.081 1.213-1.703.054-.107-.278-.196-.208-.294.386-.544 1.23-.771 1.42-1.41.146-.492-.83-.98-.577-1.427.475-.838 1.388-1.567 2.344-1.692.466-.06.528.855.489 1.323-.059.712-.739 1.286-.767 2-.015.39.578.59.651.974.167.87.462 1.876.045 2.659m77.596-2.279c.242-.199.628-.299.725-.596.712-2.186 1.309-4.423 1.651-6.696.251-1.667.37-3.389.117-5.056-.301-1.982-.797-3.992-1.757-5.752-.307-.562-1.186-.97-1.777-.726-1.031.427-1.883 1.389-2.314 2.418-.397.947-.169 2.069.01 3.08.069.388.596.569.704.948.186.651.146 1.349.146 2.026 0 .677.015 1.368-.146 2.026-.171.695-.752 1.267-.837 1.977-.198 1.653-.119 3.333.001 4.993.034.473.014 1.174.456 1.347m-448.514-8.32c.298-.33.693-.595.894-.992.157-.31.133-.687.133-1.035.003-4.017.389-8.066-.123-12.05-.124-.962-.926-1.798-1.729-2.342-.459-.311-1.158-.185-1.661.047-.565.259-1.192.712-1.314 1.322-.14.694.644 1.318.641 2.027-.001.391-.588.588-.652.974a10.312 10.312 0 0 0-.017 3.088c.409 2.931.941 5.85 1.666 8.718.072.285.388.528.68.561m-3.509-47.329c.632-.986 1.757-1.795 1.895-2.958.552-4.651.331-9.371.123-14.051-.032-.715-.674-1.28-.837-1.977-.203-.867.203-1.893-.25-2.659-.494-.834-1.476-1.29-2.343-1.723a1.229 1.229 0 0 0-1.084.014c-.541.3-1.064.746-1.313 1.313-.179.409-.017.919.155 1.331.392.944 1.271 1.675 1.51 2.669.094.39-.644.629-.622 1.029.038.716.714 1.29.784 2.003a29.783 29.783 0 0 1 0 5.993c-.075.712-.723 1.271-.837 1.978-.214 1.324-.176 2.68-.134 4.02.015.448.087.918.303 1.311.415.753.83 1.594 1.553 2.06m96.895-10.142c2.514-1.186 5.574-1.595 7.542-3.557 2.549-2.542 3.473-6.312 5.405-9.35.405-.638 1.134-1.017 1.575-1.631.511-.712.975-1.48 1.255-2.311.948-2.818 1.501-5.756 2.412-8.586.2-.621.84-1.085.908-1.735.243-2.358.42-4.779.006-7.114-.547-3.081-2.16-5.893-2.854-8.945-.223-.983-.058-2.031.134-3.02.136-.703.735-1.269.837-1.978.144-1.009.085-2.058-.116-3.057-.392-1.94-.825-3.904-1.651-5.702-1.089-2.366-2.473-4.608-4.046-6.684-1.204-1.587-2.625-3.039-4.225-4.225-1.835-1.359-3.937-2.32-5.981-3.338-2.335-1.163-4.823-2.004-7.143-3.197-.513-.264-.729-1.045-1.297-1.145-1.978-.345-4.023-.315-6.023-.133-1.046.095-1.953.954-3.003.954s-1.957-.857-3.004-.954c-2.01-.185-4.075-.276-6.055.119-1.772.354-3.291 1.508-5.003 2.088-2.856.967-6.003 1.159-8.681 2.545-1.692.877-2.869 2.541-4.042 4.043-1.37 1.754-2.663 3.615-3.538 5.661-.165.385.732.657.66 1.069-1.002 5.71-2.941 11.237-3.823 16.967-.358 2.322-.606 4.814.124 7.047 2.225 6.804 5.57 13.194 8.615 19.673.818 1.742 1.837 3.393 2.958 4.957a8.913 8.913 0 0 0 2.105 2.105c1.364.954 2.981 1.501 4.368 2.422.614.409.945 1.182 1.591 1.538a22.138 22.138 0 0 0 4.637 1.901c4.969 1.41 9.956 2.831 15.049 3.685.724.121 1.319-.697 2.043-.819.666-.112 1.365-.027 2.022.132.696.168 1.265.771 1.977.837m4.075-5.131c-1.358.044-2.722.263-4.075.131-1.042-.102-1.984-.793-3.03-.828-.391-.013-.566.605-.947.695a4.669 4.669 0 0 1-2.087.016c-4.673-1.077-9.203-2.738-13.9-3.703-.398-.082-.667.796-1.039.634-.952-.412-1.467-1.48-2.31-2.084-1.728-1.239-3.67-2.165-5.38-3.43-.796-.589-1.566-1.267-2.098-2.101-1.195-1.871-2.159-3.89-3.031-5.931-2.363-5.528-5.008-10.98-6.667-16.759-.557-1.94-.199-4.061.117-6.056.943-5.947 1.722-11.987 3.646-17.693.682-2.023 2.156-3.932 4.005-4.999 3.891-2.243 8.312-3.485 12.659-4.612 1.641-.425 3.439-.388 5.085.015.838.204 1.214 1.25 1.948 1.702.294.182.683.133 1.03.133.675 0 1.372.051 2.022-.132.379-.107.56-.635.948-.704 1.011-.179 2.133-.406 3.08-.01 4.379 1.829 8.824 3.739 12.63 6.574 2.897 2.157 5.867 4.77 7.14 8.151 2.167 5.754 1.72 12.178 2.794 18.232.149.841.816 1.558.868 2.41.201 3.347.351 6.737-.117 10.056-.358 2.538-1.187 5.035-2.335 7.327-1.25 2.498-3.329 4.497-4.781 6.884-.652 1.073-.886 2.36-1.503 3.453a2.748 2.748 0 0 1-1.025 1.025m-4.272-8.73c.444-.444.965-.821 1.331-1.33.599-.832 1.292-1.667 1.539-2.661.096-.389-.618-.628-.622-1.029-.005-.389.728-.634.598-1.001-.262-.739-.911-1.329-1.574-1.748-1.131-.716-2.379-1.316-3.691-1.58-.395-.08-.631.633-1.034.628-.391-.004-.591-.576-.974-.652-.99-.194-2.024-.271-3.023-.132-1.043.145-1.963.825-3.007.97-.998.138-2.033.062-3.022-.133-.383-.075-.583-.649-.974-.651-.388-.002-.588.588-.973.642-.464.064-1.135.09-1.369-.315-.343-.593-.245-1.415 0-2.054.136-.357.738-.283 1-.561.461-.492.814-1.085 1.114-1.689.594-1.196 1.3-2.38 1.557-3.69.078-.396-.781-.663-.628-1.037.325-.795 1.481-1.043 1.804-1.838.926-2.281 1.81-4.689 1.847-7.151.021-1.438-1.395-2.564-1.681-3.974-.08-.395.546-.622.671-1.005.113-.343.154-.751.014-1.084a10.635 10.635 0 0 0-1.571-2.635c-.99-1.206-1.989-2.479-3.31-3.31-.425-.267-.999.449-1.478.299-.352-.111-.28-.725-.576-.944-1.378-1.021-2.734-2.194-4.367-2.717-1.295-.415-2.732-.167-4.08.009-.387.051-.584.642-.974.652-.388.011-.611-.598-1-.598s-.612.607-1 .598c-.388-.008-.602-.526-.973-.642-.335-.104-.872-.288-1.052.013-.285.475.541 1.404.05 1.66-.627.327-1.325-.537-2.026-.629-.185-.025-.335.174-.474.299-.459.414-.95.808-1.31 1.31-.597.832-1.253 1.676-1.537 2.66-.091.313.664.522.533.82-.296.675-1.447.826-1.575 1.552-.161.914.82 1.73.833 2.658.01.714-.913 1.301-.768 2 .173.835 1.286 1.204 1.597 1.997.114.291-.69.535-.506.787.533.73 1.315 1.56 2.219 1.561 1.643.002 3.622-.295 4.677-1.554 1.395-1.666 1.128-4.2 1.857-6.246.043-.12.257-.061.379-.027 1.952.543 4.124.643 5.822 1.75 1.272.83 2.588 2.224 2.6 3.742.02 2.696-1.531 5.178-2.512 7.689-.543 1.392-1.274 2.709-2.048 3.987-1.032 1.705-2.058 3.437-3.36 4.947-.91 1.056-2.278 1.642-3.211 2.677a8.086 8.086 0 0 0-1.577 2.636c-.234.643-.191 1.369-.122 2.05.053.518.205 1.045.482 1.486.305.486.656 1.091 1.215 1.22 3.874.894 7.827 1.52 11.794 1.784 4.985.332 9.998.23 14.99-.001.716-.033 1.287-.741 2.003-.784.39-.024.624.517 1.005.601m-99.051-21.988c.803-1.087 1.855-2.028 2.408-3.26.284-.632.137-1.402-.01-2.08-.083-.382-.649-.583-.651-.974-.003-.407.68-.636.638-1.042-.401-3.896-.73-7.865-1.94-11.591-.299-.923-1.409-1.812-2.371-1.689-1.094.139-1.931 1.289-2.379 2.296-.414.929-.164 2.048-.002 3.052.063.386.65.583.652.974.003.407-.68.636-.639 1.041.402 3.897.735 7.865 1.941 11.592m474.658-43.424c1.805-.805 3.696-1.441 5.417-2.415.661-.375 1.008-1.161 1.64-1.583 1.385-.923 2.97-1.517 4.367-2.422a37.43 37.43 0 0 0 4.007-3.004c1.095-.94 2.305-1.831 3.059-3.061 1.261-2.055 2.062-4.367 2.885-6.634.692-1.906.943-3.955 1.65-5.855.542-1.458 1.884-2.634 2.081-4.176.513-4.008.571-8.12.002-12.12-.675-4.747-2.75-9.201-3.702-13.9-.084-.414.755-.663.668-1.076-.552-2.617-1.427-5.175-2.502-7.624-.787-1.795-1.838-3.486-3.046-5.029-1.192-1.522-2.525-2.98-4.101-4.098-1.818-1.29-3.919-2.137-5.958-3.038-2.176-.961-4.383-1.88-6.668-2.539-.667-.193-1.402-.122-2.084.013-.579.115-1.052.882-1.62.719-.948-.273-1.358-1.593-2.31-1.85-1.32-.356-2.807-.325-4.098.121-1.905.658-3.383 2.213-5.197 3.09-2.755 1.333-5.718 2.202-8.477 3.525a12.779 12.779 0 0 0-2.962 1.962c-2.148 1.912-4.277 3.877-6.099 6.101-1.219 1.489-2.163 3.204-2.958 4.957-2.248 4.958-4.638 9.9-6.151 15.13-1.377 4.76-2.296 9.708-2.466 14.66-.072 2.088.914 4.104 1.758 6.015 1.027 2.326 2.431 4.473 3.817 6.606.979 1.505 1.998 3.013 3.264 4.286 1.612 1.622 3.691 2.726 5.31 4.34.681.679.619 2.094 1.509 2.458 6.687 2.734 13.706 4.589 20.645 6.599.668.194 1.407.133 2.087-.015.381-.083.583-.649.974-.651.388-.002.584.648.973.642.704-.01 1.295-.664 2-.686m2.077-5.319c-2.704.01-5.436.426-8.111.029-3.425-.507-6.727-1.666-10.027-2.716-2.594-.825-5.203-1.675-7.633-2.902-.483-.244-.47-1-.853-1.383-2.638-2.637-5.793-4.771-8.176-7.641-1.347-1.623-2.085-3.684-2.856-5.647-.771-1.963-1.755-3.972-1.751-6.081.006-2.815 1.03-5.543 1.78-8.257.795-2.877 1.685-5.74 2.848-8.489 1.835-4.334 3.672-8.706 6.129-12.72 1.261-2.059 3.067-3.768 4.916-5.32 1.706-1.431 3.532-2.886 5.656-3.553.999-.314 1.989.722 3.031.827 1.346.135 2.742.197 4.058-.117 2.704-.646 5.182-2.064 7.88-2.734 1.007-.25 2.12-.298 3.113.004 2.973.905 5.954 1.96 8.616 3.564 1.66 1 2.852 2.638 4.115 4.108.775.903 1.419 1.922 1.97 2.977.413.79.7 1.649.902 2.517.917 3.949 1.48 7.976 2.449 11.912.603 2.451 1.914 4.726 2.259 7.225.416 3.009.313 6.092-.003 9.113-.088.844-.881 1.461-1.185 2.254-1.576 4.111-2.433 8.523-4.446 12.439-.863 1.678-2.492 2.876-4.006 4.002-1.098.818-2.553 1.026-3.718 1.745m-17.715-3.311c2.725-1.188 5.49-2.287 8.176-3.563 1.13-.536 2.254-1.117 3.255-1.867.859-.644 1.736-1.351 2.276-2.278.216-.369-.379-.873-.21-1.265.364-.841 1.54-1.263 1.693-2.167.396-2.333.437-4.798-.12-7.097-.492-2.033-1.721-3.845-2.941-5.544-.346-.481-1.013-.68-1.598-.777-4.847-.809-9.942-.412-14.617-1.928-1.412-.457-2.091-2.234-2.563-3.642-.228-.682.643-1.336.656-2.055.007-.389-.712-.629-.598-1.001.178-.585.694-1.201 1.299-1.298.705-.114 1.286.778 2 .768.713-.009 1.27-.709 1.974-.821 1.325-.211 2.689-.277 4.023-.133.713.077 1.301.927 2.003.784.836-.17 1.187-1.337 2-1.598.381-.123.639.717 1.029.622.985-.24 1.921-.797 2.636-1.515.77-.772 1.65-1.719 1.673-2.808.023-1.035-.926-1.866-1.553-2.69-.489-.642-1.004-1.378-1.759-1.662-.943-.354-2.016-.228-3.02-.134-4.949.46-9.944.748-14.804 1.793-1.186.254-2.3 1.055-3.015 2.035-1.208 1.657-1.909 3.652-2.553 5.599-.218.66-.134 1.406.014 2.085.083.381.649.583.651.974.002.388-.523.601-.642.971-.111.346-.096.735-.02 1.09.874 4.096 1.744 8.198 2.863 12.234.174.628.409 1.398.995 1.683 1.06.517 2.325.588 3.502.507 1.047-.072 1.953-.915 3.003-.954.714-.027 1.287.728 2 .768.388.022.612-.62 1-.598.713.04 1.286.792 2 .768 1.047-.035 1.958-.828 3-.938a2.005 2.005 0 0 1 1.481.466c.463.412 1.145 1.072.884 1.634-.47 1.014-1.619 1.591-2.615 2.097-2.138 1.085-4.337 2.196-6.696 2.628-1.039.19-2.004-.759-3.058-.841-2.002-.156-4.096-.434-6.022.134-1.052.309-1.812 1.357-2.325 2.325-.325.613-.297 1.448-.011 2.08.62 1.371 1.4 2.792 2.616 3.678 1.338.973 3.064 1.31 4.685 1.635 1.327.267 2.713.266 4.057.118.713-.079 1.29-.719 2.004-.784m-531.773-63.467c1.911-.567 3.95-.813 5.735-1.701.989-.492 1.41-1.765 2.361-2.326 2.32-1.369 5.204-1.747 7.335-3.395 1.151-.89 1.462-2.523 2.045-3.856.987-2.259 2.277-4.466 2.659-6.902.522-3.331.473-6.776.005-10.115-.749-5.352-1.772-10.726-3.634-15.8-2.138-5.827-4.978-11.423-8.281-16.678-.697-1.109-2.41-1.099-3.419-1.933-1.935-1.601-3.405-3.716-5.343-5.313-1.333-1.098-2.785-2.132-4.408-2.722-2.641-.959-5.454-1.368-8.22-1.863a5.394 5.394 0 0 0-2.088.018c-.381.083-.583.651-.974.651s-.588-.589-.974-.651c-1.004-.163-2.089-.326-3.052.001-.815.276-1.114 1.479-1.947 1.693-.697.179-1.347-.793-2.056-.665-.997.181-1.912.807-2.637 1.516-1.229 1.202-2.45 2.525-3.115 4.111-2.262 5.395-3.916 11.031-5.584 16.637-.199.666-.145 1.408.013 2.085.089.381.693.555.695.947.003.726-.746 1.345-.682 2.068.281 3.179 1.019 6.304 1.697 9.423.818 3.764 1.674 7.527 2.788 11.214.828 2.745 1.915 5.408 3.03 8.049.576 1.367 1.137 2.777 2.036 3.957 1.172 1.539 2.519 2.995 4.104 4.104 2.708 1.896 5.53 3.77 8.66 4.833m15.659-2.255c-1.899.001-3.816.265-5.697.003-2.427-.337-4.842-.911-7.132-1.785-2.615-.998-5.085-2.366-7.492-3.797-1.471-.876-2.888-1.886-4.099-3.097-.838-.837-1.424-1.907-1.962-2.963-.814-1.598-1.444-3.286-2.075-4.966-.667-1.774-1.39-3.542-1.816-5.389-1.092-4.732-2.118-9.493-2.731-14.31-.34-2.664-.581-5.411-.117-8.056.777-4.423 2.024-8.802 3.8-12.927 1.017-2.361 2.229-5.025 4.47-6.283.977-.548 1.128 2.195 2.191 2.545.994.328 1.985-.754 3.029-.826 2.99-.205 5.998-.137 8.992 0 .52.024 1.033.222 1.484.481a23.501 23.501 0 0 1 3.21 2.219c.945.777 1.667 1.803 2.62 2.57.764.615 1.81.855 2.501 1.551 1.482 1.494 2.836 3.142 3.936 4.936 2.554 4.165 5.393 8.266 6.992 12.883 1.98 5.717 2.545 11.832 3.629 17.784.127.695.207 1.445-.002 2.119-1.108 3.562-1.621 7.542-3.916 10.481-1.646 2.109-4.938 2.146-7.134 3.673m-4.857-10.189c.43-.432.982-.771 1.29-1.297.673-1.153 1.185-2.401 1.611-3.666a1.787 1.787 0 0 0 0-1.12c-.435-1.278-.475-3.024-1.642-3.702-2.269-1.318-5.153-1.02-7.683-1.715-.203-.055-.375-.29-.386-.501-.175-3.351.338-6.748-.167-10.065-.137-.906-1.363-1.311-1.693-2.166-.114-.296.506-.455.563-.767.182-.99.274-2.02.134-3.017-.442-3.156-.995-6.311-1.872-9.374-.41-1.434-.683-3.253-1.962-4.021-1.337-.802-3.235-.557-4.676.037-.98.404-1.375 1.654-1.788 2.63-2.005 4.738-3.388 9.727-5.44 14.445-.807 1.858-2.318 3.357-3.11 5.222-.271.638-.16 1.408.01 2.08.152.599.491 1.168.926 1.607.688.696 1.46 1.376 2.372 1.728.647.25 1.408.161 2.08-.009.599-.152 1.152-.508 1.608-.926.886-.813 1.247-2.286 2.368-2.724.576-.225 1.22.667 1.349 1.272.352 1.646.181 3.376 0 5.049-.035.317-.342.579-.626.724-1.402.719-3.06.936-4.356 1.83-.805.556-1.378 1.457-1.73 2.369-.25.647-.267 1.444.01 2.08.322.739 1.024 1.264 1.661 1.759.809.628 1.638 1.346 2.636 1.577 1.324.307 2.745.243 4.079-.02.336-.066.238-.692.52-.885 1.019-.702 2.086-1.419 3.284-1.731 1.347-.35 2.78-.276 4.17-.209.519.025 1.081.151 1.482.48.506.417.622 1.18 1.093 1.636.701.68 1.451 1.394 2.371 1.723"/>
</svg>