<svg id="svg" xmlns:rdf="http://www.w3.org/1999/02/22-rdf-syntax-ns#" xmlns="http://www.w3.org/2000/svg" height="500" viewBox="0 0 500 499.99998" width="500" version="1.1" xmlns:cc="http://creativecommons.org/ns#" xmlns:dc="http://purl.org/dc/elements/1.1/">
 <g id="layer2" transform="translate(0 48.6)">
  <path id="path9377" d="m202 310c1.86 14.4 1.53 30.5-5.47 43.4-17.8 7.84-14.3 29.9 3.82 34.1 15.9 8.51 33.7 15.7 52.1 13.5 16 0.257 33.6-1.95 44.9-14.5 10.1-6.78 27.9-25.8 12.4-35.7-10.8-5.4-5.24-21.7-9.13-31.7-0.0271-14.2-2.65-30.5 7.71-41.9-2.11-4.83 9.62-20.3 11.5-31 3.82-16.3 21.3-26.4 20.6-44 2.53-22 15.6-43 11.2-65.5-21-39.2-67-63.8-112-61.3-28.1 1.16-55.7 17.7-67.1 43.9-14.8 26.7-25.6 57.7-19.7 88.6-0.0469 14.4 10.4 24 21.3 31.7 11.1 9.05 15 23.3 19.8 36.1 0.484 11.2 8.25 22.6 7.03 34.9z" fill-rule="evenodd" fill="#fefefe"/>
 </g>
 <g id="layer3" fill-rule="evenodd" transform="translate(0 48.6)" fill="#f4f4f4">
  <path id="path12714" d="m200 340c-23.9 22.9-18.3 17-42.4 27.7-28.5 9.62-61.6 11.2-87.4 27.7-10.1 6.59-18.5 17.9-21.9 29.2-1.55 19.3 8.37 23 23.4 22.5 26.8-1.91 54 0.0244 80.9 0.129 55.4 1.66 111 2.89 166 4.7 36.7-3.85 73.5-7.42 110-12.2 16.6 0.137 22.4-13.8 12.3-26.2-13.9-29.1-47.2-39.6-76.1-47.2-16.4-4.94-34.4-7.12-48.9-16.7-5.56-5.21-13.8-11.7-6.25-1.96 6.13 7.27 7.27 16.4 1.73 25.1-8.82 9.94-17.7 19.4-29.8 25.2-17.9 6.66-36.5 3.81-55.1 1.27-12.1-2.86-21.3-8.3-32.4-13.5-8.06-7.1-14.2-18.9-4.53-27.5 2.06-1.14 14.6-20.4 10.3-18.1z"/>
  <path id="path12688" d="m240 320c2.86 6.56 6.86 11.7 14.3 11.5 7.18 0.591 12.2-5.6 17.6-8.64-4-0.247-14 7.37-20.6 2.12-3.82-1.47-7.64-3.98-11.4-5.02z"/>
  <path id="path12660" d="m298 293c-5.14 7.33-12.8 12.5-17.4 20.2-5.62 3.88-7.22 10.9-11.9 15.1 2.63-4.41-0.681-2.8-0.183 0.378 3.24-1.79 4.61-4.9 2.82 1.05-1.14 4.6-6.52 18.4 1.86 15.7 6.8-10.6 11.9-22.4 20.8-31.5 2.95-5.38 3.65-4.36 3.36 0.934 0.446 5.81 0.123-9.14 0.26-12.3-0.84-3.08 1.82-7.23 0.353-9.6z"/>
  <path id="path12652" d="m201 289c1.2 7.84 10.5 9.72 14.6 16 4.02 8.7 9.02 16.8 14.7 24.5 2.3 7.37 10.4 9.67 8.48-0.508 2.27-8.97-3.52-14-11.3-16.8-6.8-6.36-12.2-14.3-20.4-19.1-0.649-0.0524-6.74-7.15-6.17-4.06z"/>
  <path id="path12646" d="m211 282c2.01 2.88 2.7 2.09 0.0974-0.118l-0.0974 0.118z"/>
  <path id="path12642" d="m213 281c2.34 5.5 2.42 1.26-0.285-0.494l0.285 0.494z"/>
  <path id="path12638" d="m206 278c3.14 3.3 3.37 2.78 0 0z"/>
  <path id="path12636" d="m256 277c10.1 2.65-14.8-0.806-2.53 1.29 4.29 2.78 10.2-2.62 2.53-1.29z"/>
  <path id="path12634" d="m210 278c5.72 7.42-2.65-4.98 0 0z"/>
  <path id="path12632" d="m244 275c0.21 4.17 1.69-2.01 0 0z"/>
  <path id="path12630" d="m203 274c2.92 4.08 5.54 4.14 0 0z"/>
  <path id="path12628" d="m275 272c-3.86 1.53-7.67 6.1-1.19 2.67 1.85-0.606 5.61-4.37 1.19-2.67z"/>
  <path id="path12624" d="m198 269c1.44 3.69 2.78 2.56 0 0z"/>
  <path id="path12620" d="m268 267c-9.29 1.69-18.9 2.17-28.4 1.25 10.8 1.91 21.8 0.49 32.4-1.52-1.32 0.0347-2.76-0.346-4 0.266z"/>
  <path id="path12618" d="m302 266c-2.25 6.69-0.247 4.59 0 0z"/>
  <path id="path12614" d="m281 265c-8.63 2.69-17.6 3.51-26.5 4.91-4.61 1.69-20.5-1.9-18.9-0.528 4.32 3.21 17.4 7.65 18 6.7 5.11-0.512 15.7-0.135 20.2-6.53 0.852-1.05 10-5.24 7.26-4.56z"/>
  <path id="path12598" d="m286 262c-3.19 1.5-14.2 4.69-4.9 2.12 4.86-1.99 1.49 3.15 6.86-1.42 3.13-1.7-2.05-0.276-1.95-0.7z"/>
  <path id="path12554" d="m190 250c1.74 4.38 4.87 15.1 6.83 15.2-1.83-8.04 3.99-3.34 3.87 1.63 1.62 3.79 10.1 11 4.49 3.03-4.49-5.33-5.55-12.5-10.4-17.3-1.37 4.28-3.78-2.95-4.76-2.5z"/>
  <path id="path12550" d="m193 249c1.65 3.91 2.45 1.46 0 0z"/>
  <path id="path12536" d="m314 243c-2.19 1.66-6.1 11-4.5 10.6 0.0206-3.91 6.22-11.6 4.56-3.48-1.48 8.42-8.75 14.1-11.5 22 3.88-2.22 7.06-8.49 7.31-6.23 1.07-4.28 4.53-8.74 4.95-13.9 0.868-2.39 2.72-8.21-0.8-8.98z"/>
  <path id="path12532" d="m319 241c-2.89 3.88 1.71 0.615 0 0z"/>
  <path id="path12530" d="m187 240c0.49 6.51 0.53-3.46 2.91 1.93 0.153-1.2-1.9-3.56-2.91-1.93z"/>
  <path id="path12496" d="m172 226c-2.15 3.87 5.14 3.28 0 0z"/>
  <path id="path12490" d="m164 221c1.42 4.88 10.2 6.18 2.51 2.8-1.02-0.765-1.39-2.16-2.51-2.8z"/>
  <path id="path12484" d="m168 215c-4.52 4.76 6.94 13.4 3.49 3.23 0.718-2.56-2.73-6.91-3.49-3.23z"/>
  <path id="path12476" d="m161 212c-3.55 1.78 2.76 13.5 0.77 7.96 6.03 4.34 0.934-13.9-0.77-7.96z"/>
  <path id="path12474" d="m156 209c-1.79 7.45 5.38-3.13 0 0z"/>
  <path id="path12472" d="m168 207c-0.684 3.83 3.51 5.9 0.634 0.317l-0.203-0.595-0.431 0.278z"/>
  <path id="path12454" d="m293 190c-2.34 1.96 4.44-2.12 0 0z"/>
  <path id="path12450" d="m336 190c3.74 6.39-9.76 15.8-5.42 18.2 4.75-0.454 4.36-14.3 7.66-8.4-2.23-4.33 7.42-12.7-2.24-9.79z"/>
  <path id="path12446" d="m332 190c1.14 10.4 0.728-10.7 0 0z"/>
  <path id="path12438" d="m269 186c-0.195 6.02 5.57 10.3 8.78 13.2-7.32 1.45-11.7-10.2-15.6-10.9-3.16 5.58 5.79 19 1.31 19.9-1.2-0.313 4.1 13.2 1.16 4.71-0.323-7.72 7.05 9.39 12.1 9.59-3.85-2.05-9.87-14.3-3.69-14.1 7.23 2.62 13.9-1.26 20-5.21 7.5-0.773 4.5-7.78-2.15-4.28-7.49 0.201 9.18-9.7 4.53-9-2.06 6.26-14.6 6.67-19.6 2.37 6.54-0.439 13.1 1.99 16.7-4.64-5.99 2-14.9-2.06-22.1-2.29-0.326 0.255-1.53-0.07-1.54 0.661z"/>
  <path id="path12428" d="m241 184c2.23 3.48 2.32 22.3-3.21 12.6-1.4-4.75-3.08-7.76-5.14-1.04-1.16 3.83-13.8 11.5-6.31 3.89 4.93-2.32 5.51-14.3 2.76-14.7-4.14 7.85-13 10.6-21.7 9.08-6.11-1.85-1.59 2.41-1.53 3.05-1.99 1.93 2.42 3.25 0.396 0.401 5.04 4.85 15.1-2.85 17.1 0.0494-2.85 4.91-13.7 1.66-14.1 2.8 4.83-0.257 9.5 5.32 2.02 5.93-7.5 5.17 7.7 5.37 11.5 5.22 4.35 0.903 7.45-2.66 11-4.46 3.52 4.08 7.57 13.6 1.2 18.1 3.29-2.33 6.91-7.35 8.44-10.8 1.9 6.03-0.691-7.02 2.14-9.13 2.52-7.19 1.4-15.4-3.99-21.2l-0.5-0.366-0.1 0.571zm1.82 17.7c3.31 4.42-1.88 11.4-1.47 2.67 0.005-0.714 0.0999-6.26 1.47-2.67z"/>
  <path id="path12424" d="m337 183c2.71 2.84 8.68 0.192 1.22-0.167-0.0355-0.683-1.64-0.574-1.22 0.167z"/>
 </g>
 <g id="layer4" fill-rule="evenodd" transform="translate(0 48.6)" fill="#d7d7d7">
  <path id="path16117" d="m336 188c-0.258-0.0277-0.3 0.0913-0.443 0.322-0.125 0.202-0.0452 0.844 0.176 1.43 1.32 3.48 0.273 7.24-2.71 9.74-1.7 1.42-2.01 1.93-2.45 3.95-0.276 1.28-0.838 3.49-1.25 4.92-0.906 3.14-1.99 7.83-1.99 8.62 0 2.67 8.81-4.41 10.7-8.62 0.847-1.85 1.03-2.94 1.16-6.8 0.083-2.53 0.259-4.87 0.391-5.2s0.204-0.821 0.16-1.09c-0.043-0.27 0.38-1.49 0.938-2.71 1.32-2.89 1.3-3.4-0.135-3.4-0.632 0-1.91-0.27-2.85-0.6-1-0.354-1.48-0.529-1.73-0.557z"/>
  <path id="path16073" d="m328 216c-0.214 0.133-0.388 0.517-0.396 0.863-0.332-0.106-0.304-0.431 0.396-0.863z"/>
  <path id="path16059" d="m320 227c0.297-0.0469 0.633 0.019 1 0.199 0.337 0.164 0.43 0.199 0.521 0.229-0.133-0.004-0.325-0.0779-0.621-0.236-0.328-0.176-0.638-0.232-0.92-0.186 0.006-0.00097 0.01-0.005 0.0156-0.006z"/>
  <path id="path16047" d="m171 231c-0.0738 0.0342 0.005 0.186 0.326 0.479 2.52 2.29 3.26 2.86 2.5 1.91-0.437-0.542-1.16-1.3-1.6-1.69-0.562-0.493-1.11-0.764-1.23-0.707zm5.98-17c0.0653 0.176 0.151 0.32 0.25 0.381 0.22 0.136 0.422 0.73 0.447 1.32 0.0121 0.273 0.0344 0.358 0.0566 0.463-0.245-0.903-0.47-1.64-0.58-1.77-0.0653-0.0767-0.123-0.227-0.174-0.4zm-7.88-8.54c-0.184-0.0488-0.386 0.185-0.807 0.65-0.927 1.02-0.839 1.95 0.41 4.36 1.03 1.99 1.06 3.2 0.041 2.18-0.709-0.709-1.64-0.592-1.35 0.17 0.229 0.596 0.004 1.76-1.04 5.39-0.647 2.26 1.03 4.7 3.88 5.62 0.733 0.239 0.724 0.265-0.125 0.301-3.15 0.136-5.67-3.48-5.67-8.11 0-3.28-3.55-10.5-3.61-7.39-0.006 0.293-0.531 1.69-1.17 3.11-1.07 2.38-1.11 2.68-0.621 4 0.293 0.782 1.02 3 1.62 4.93 1.23 3.98 1.87 4.77 7.12 8.76 1.8 1.37 4.73 3.98 6.52 5.81 4.06 4.16 5.24 4.38 3.39 0.662-3.13-6.3-4.59-11.1-5.65-18.7-0.745-5.33-1.61-9.48-2.22-10.7-0.346-0.668-0.512-1-0.695-1.05z"/>
  <path id="path16003" d="m280 252c-0.551 0.0375-1.08 0.0518-1.62 0.0801 0.546-0.0293 1.08-0.0417 1.62-0.0801zm12.4-2.14c-1.52 0.924-6.39 1.67-11.5 2.06 5.07-0.401 9.93-1.15 11.5-2.06zm1.29-0.535c0.002 0 0.005 0.00002 0.008 0-0.18 0-0.385 0.0377-0.572 0.0996 0.185-0.0616 0.388-0.0996 0.564-0.0996zm-31-1.52c-0.609 0.58-1.26 1.02-1.94 1.31 0.68-0.291 1.33-0.727 1.94-1.31zm-17.5-4.09c0.125 0.002 0.251 0.0176 0.373 0.041-0.095-0.016-0.191-0.0293-0.287-0.0293-0.0244 0-0.0594-0.01-0.0859-0.0117zm23.9-4.04c-0.299 0.281-0.606 0.576-0.973 0.951-1.34 1.38-2.81 3.22-3.26 4.1 1.11-2.16 2.55-3.86 4.23-5.05zm-37.8-2.75c-0.0359 0.00084-0.0625 0.0994-0.0625 0.264 0 0.218 0.497 0.832 1.1 1.37l1.1 0.971-1-1.2c-0.55-0.66-1.04-1.28-1.1-1.37-0.0138-0.0228-0.0271-0.0335-0.0391-0.0332zm5.31-1.04c0.472 0.29 0.963 0.345 1.36 0.0137l-0.627 0.777-0.732-0.791zm1.79-0.602c-0.0125 0.0222-0.024 0.0445-0.0371 0.0664 0.0119-0.0231 0.0256-0.0426 0.0371-0.0664zm6.75-0.91c1.84 1.19 4.21 2.28 5.87 2.51-1.69-0.219-4.04-1.3-5.87-2.51zm-6.35-0.533c-0.0117 0.482-0.13 0.926-0.344 1.34 0.178-0.407 0.293-0.892 0.344-1.34zm3.15-3.65c0.005 0.005 0.009 0.0105 0.0137 0.0156 0.0415 0.0415 0.0788 0.104 0.117 0.162-0.0153-0.0138-0.0291-0.0391-0.0449-0.0488-0.0294-0.0182-0.0583-0.0639-0.0859-0.129zm35.2-0.656c-0.255 0.62-0.82 1.09-1.71 1.38-1.11 0.365-1.81 0.368-2.18 0.0156 0.952 0.569 3.23-0.056 3.89-1.4zm-6.86-0.475c-0.0483 0.898 0.0343 1.53 0.252 1.88 0.423 0.678-0.546 2.08-2.14 3.59 1.59-1.53 2.54-2.96 2.09-3.67-0.275-0.439-0.389-1.15-0.254-1.57 0.0265-0.0838 0.0379-0.159 0.0488-0.234zm-37.3-0.895c-0.0693-0.038-0.414 0.348-1 1.18-0.479 0.673-0.785 1.31-0.678 1.42 0.107 0.107 0.571-0.444 1.03-1.22 0.514-0.87 0.72-1.33 0.65-1.37zm43.5-1.74c0.0543 0.0972 0.112 0.194 0.16 0.289-0.0561-0.107-0.107-0.194-0.16-0.289zm-39.1-0.754 0.113 2.32c0.063 1.28 0.377 2.89 0.699 3.58 0.162 0.348 0.28 0.678 0.371 0.998-0.0414-0.0342-0.0862-0.0586-0.141-0.0586-0.462 0-0.844 1.01-0.844 2.23 0 2.25-1.57 0.357-2.01-2.43l-0.24-1.52c0.282-0.916 0.708-2.01 1.32-3.44l0.727-1.69zm4.67-2.22c-0.0447 0.0663-0.0896 0.133-0.139 0.182-0.006 0.006-0.008 0.012-0.0137 0.0176 0.0278-0.0658 0.0564-0.113 0.0859-0.131 0.0234-0.0145 0.044-0.0467 0.0664-0.0684zm31.7-0.402c0.229-0.0138 0.61 0.403 1.25 1.17 0.409 0.487 0.749 0.947 1.05 1.39-0.26-0.345-0.424-0.418-0.424-0.0996 0 0.103 0.379 0.863 0.842 1.69l0.826 1.47c0.00021 0.0119-0.00006 0.0233 0 0.0352l-1.05 0.902c-1.18 1.01-2.21 1.16-2.94 0.434-0.154-0.154-0.254-0.219-0.328-0.23 0.0128-0.141 0.0247-0.282 0.0566-0.445 0.156-0.794 0.308-2.57 0.338-3.94 0.0349-1.62 0.0799-2.35 0.375-2.37zm-4.15-0.348c0.197 0.316 0.355 0.526 0.467 0.619 0.0443 0.0369 0.0826 0.1 0.121 0.162-0.0229-0.01-0.0337-0.0165-0.0605-0.0273-0.275-0.111-0.505-0.412-0.512-0.668-0.00072-0.0272-0.0126-0.0578-0.0156-0.0859zm-27.1-0.943c-0.0391 0.221-0.0798 0.447-0.0859 0.582 0.0106-0.15 0.0401-0.345 0.0859-0.582zm22.3-12.6c-0.0656-0.0162-0.117-0.0101-0.152 0.0254-0.803 0.803-0.355 2.63 1.81 7.35 0.944 2.06 1.72 3.67 2.31 4.8-0.221-0.182-0.402-0.199-0.402 0.119 0 0.372 0.16 0.676 0.354 0.676 0.195 0 0.448 0.361 0.562 0.801 0.115 0.44 0.45 0.786 0.746 0.768 0.083-0.005 0.14-0.0133 0.189-0.0215 0.306 0.748 0.364 2.42 0.113 4.27-0.0475 0.348-0.0771 0.662-0.0976 0.957-0.005-0.219-0.0845-0.371-0.24-0.371-0.235 0-0.428 0.539-0.428 1.2 0 0.693 0.211 1.2 0.5 1.2 0.275 0-0.429 0.945-1.57 2.1l-2.84 2.9c-3.38 3.5-7.34 4.35-10 2.15-1.32-1.09-2.26-1.55-3.16-1.55-3.23 0-8.89-3.38-9.96-5.96-0.293-0.702-0.639-1.17-0.805-1.11-0.093-0.636-0.156-1.53-0.156-2.53 0-0.991 0.0627-1.88 0.154-2.52 0.437 0.423 1.03-0.728 1.04-2.01 0.003-0.62 0.196-1.48 0.43-1.92 0.234-0.437 0.37-1.07 0.301-1.4-0.0559-0.271-0.252-0.004-0.471 0.574 0.745-2.41 0.604-6.13-0.254-6.13-0.42 0-0.639 0.509-0.725 1.7-0.068 0.935-0.293 1.7-0.5 1.7s-0.377 0.246-0.377 0.549c0 1.04-2.08 4.33-2.48 3.93-0.703-0.703-1.74-0.0446-2.53 1.61-1.26 2.62-1.55 3.12-1.88 3.12-0.168 0-0.305 0.178-0.305 0.393 0 0.216-0.594 1.34-1.32 2.5-0.708 1.13-1.21 2.05-1.55 2.87 0.0161-0.202 0.00031-0.361-0.0566-0.418-0.11-0.11-0.323 0.187-0.473 0.66s-0.182 0.951-0.0723 1.06c0.0475 0.0475 0.115 0.007 0.188-0.0781-0.253 1.12-0.102 2.05 0.393 3.09 1.71 3.6 5.85 6.32 9.59 6.32 0.355 0 0.712 0.0341 1.06 0.082-0.875 0.26 2.79 1.91 5.94 2.66 1.04 0.248 2.77 1.08 3.85 1.85 1.07 0.772 2.09 1.4 2.26 1.4 0.168 0 0.631 0.377 1.03 0.836 1.29 1.49 7.17 1.05 7.17-0.529 0-0.168 0.26-0.307 0.58-0.307 0.559 0 2.27-2.25 3.38-4.46 0.769-1.53 4.04-4.76 5.44-5.38l1.2-0.531-0.502-0.008c0.525-0.16 1.06-0.279 1.62-0.355-0.386 0.195-0.0322 0.286 1.29 0.305 1.59 0.022 2.11-0.136 2.5-0.771 0.598-0.957 0.401-1.05-0.336-0.166-0.274 0.331-0.732 0.489-1.25 0.467 1.3-0.317 2.88-1.99 2.88-3.21 0-0.351 0.178-0.751 0.398-0.887-0.22 0.136-0.393 0.552-0.385 0.924 0.01 0.492 0.17 0.404 0.586-0.324 0.762-1.33 0.763-5.59 0.002-7.05-0.526-1.01-0.593-1.04-0.598-0.295-0.00021-0.0125-0.004-0.0246-0.004-0.0371 0-2.3-5-8.25-7.46-8.87-0.815-0.205-4.92-5.87-4.95-6.83-0.0149-0.536-1.09-1.78-1.55-1.9z"/>
  <path id="path15047" d="m281 396c-3.09 1.53-1.72 0.337 0 0zm-67.2-4.16c0.683 0.0907 1.88 1.03 0 0zm102-11.6c-12.3 10.9-22.1 28.2-40.5 28.8-16 0.183-32.4 2.99-48.3 0.084-12.9-4.67-23.7-13-35.9-18.7-0.515 4.18 16.5 13.4 24.1 18.2 18.5 7.37 38.8 1.93 58 2.46 19.5 0.533 32.5-16.5 43.7-29.9l-1.09-0.902v-0.00004zm-8.04-7.57c-2.62 5.18-3.12 5.1 0 0zm-109-5.9c-2.48 6.82-4.86 10.2 0 0zm114-3.21c-0.008 0.0377-0.122 0.27 0 0zm-118-0.941c-4.24 3.08-10.8 10.4 0 0zm119-2.12-0.516 2.38 0.516-2.38zm-10.2-2.57c2.33 3.29 1.27 0.386 0 0zm22.9-0.111c29.7 14.1 63.3 18.5 92.2 34.4-5.28 15.2-18.7-7.51-30.6-5.2-21.6-3.89-45.1-6.73-62-22.1-1.01-2.18 0.0166-4.84 0.365-7.07zm-17.4-1.08c2.1 0.066 7.24 3.77 0 0zm-7.48-9.92c-0.0197 6.83 2.23 8.8 0 0zm-101-5.71c-7.07 8.54-19.8 24.7-23.9 28.2 10.5-18.4-18.5 4.65-27.3 3.2-27.1 7.79-56.6 10.8-80.7 26.6-6.86 5.08-20.6 28-16.4 28 2.93-9.27 9.63-27.9 17.2-8.57 3.51 3.99 11 30.6 9.24 15.5 0.361-9.82-16.5-21.3-1.92-27.1 18.8-9.44 40.8-9.31 60.5-16.3 12.3-3.42 24.6-7.95 35-15.4-11.4 3.79-23.5 10.7-36.1 12.8-20.2 6.6-42.5 6.82-61.5 16.8-6.23 12.8-18.3-0.187-4.42-5.15 31-21.2 71-19.3 104-35.6 8.76-8.06-4.11 17.3 5.45 3.13 4.59-6.61 26.1-30.2 11.5-12.5-11.3 7.77-8.52 22.9 0.0508 31.4 12.5 7.58 26.2 14.5 40.9 16.9 20 1.6 43.8 4.43 60.4-9.09 10.9-10.4 27.4-20.9 25.5-38.1-8.05-10.7 8.61 5.94 5.22 11.2 10.3 5.36 20.2 12.4 32 14.9 18.1 5.55 38.6 5.35 54.6 16.4 7.35 7.6-3.87 27.3 3.5 30.5 0.0207-9.3-1.95-35.6 11-32.7 13.3 6.72 14.1 26.8 23.3 33.6-7.61-17.1-16.7-37.7-37.9-43.2-30.5-15.4-65.8-19.4-95.5-36.6-16.3-12.9 12.3 9.88 1.64 17.3-8.62 13.8-21.3 26.6-36.4 33.1-25.8 5.78-54.6 4.71-77.7-9.37-15.7-3.39-24.7-26.7-9.23-36.5 3.22-3.94 7.09-8.21 7.82-13.4zm5.1-17.2c-0.436 1.55 0.546 3.67 0 0zm-4.61-35.3c13.7 8.74 22.8 23.2 37.1 30.7 2.66 6.86 5.93 8.62 9.39 15.9 0.827 2.94 9.29 5.36 13.4 4.19 3.19-4.83-5.78 0.0463-11.3-5.47-3.88-4.8-15.2-19-1.39-10.2 9.15 9.25 28.2-7.11 22 4.75 7.12-12 20.4-27.6 28.8-33.5-1.96 13.1-0.857 25.3 0.403 36.6 2.36 6.98 0.0334 27.6 8.07 25.8 10.2 0.824 0.378 17.5-5.3 23.1-1.55 1.04-15.3 13.7-8.51 6.7-7.21 9.34-20.4 11.6-29.9 11.9-14.7-0.135-25 1.06-38.1-3.18 0.716 0.927-14-4.77-19.2-7.79 0.256 0.0413-13.5-4.52-13.2-6.32-6.1-3.47-6.83-13.7 0.928-17.2-3.25 7.15-0.169 17.1 5.19 4.68 1.62-8.57 2.69-11.4 4.01-17.3 1.5-13 1.77-19.2 1.7-30.4 0.241-10.6-0.711-21.1-4.07-33zm-0.91-1.89c5.13 24.3 6.88 50.7-0.318 74.9-2.57-1.27 1.17-13.9-7.59-2.92-17.4 12 4 29.6 17.6 31.9 20.5 10.7 45 11.4 67.3 7.42 15.5-5.42 29.3-18.1 37.1-32.5 5.02-9.25-9.97-20.3-9.06-7.06-5.95-21.6-8.17-45-5.01-67.4-9.62 13.8-25.5 23-42.9 23-22.9 3.06-40.5-14.4-57.1-27.3zm46.1-11.1c-1.78 4.48 25 3.65 6.26 1.45l-3.28-1.02-2.97-0.428zm-19.9-9.62c5.11 3.74 2.07 0.151 0 0zm-32.5-0.803c0.0596 0.325 0.003 0.065 0 0zm40.5-1.33c-10.5 0.952 11.4 0.789 0 0zm12.4-0.758c-6.76 0.669-1.99 1.25 0 0zm-48.8-2.86c-4.48 8.43 14.4 24.6 15.9 22.4-5.73-7.38-12-14.3-15.9-22.4zm80.1-1.53c-5.98 0.119-4.95 1.51 0 0zm12.2-0.578c-3.85 3.53-2.65 3.38 0 0zm-6.13-0.348c-1.09 1.46-5.34-0.0811 0 0zm-36.5-1.33c-5.36 0.618-5.41 0.623 0 0zm12.6-0.307c-6.36 0.055-6.36 0.055 0 0zm31.1-0.295c0.215-0.005 0.499 0.483 0 0zm-39.6-0.252-2.24 0.715 2.24-0.715zm50.7-4.11c-0.716 2.41 1.14 3.24 0 0zm-92-4c-3.14 2-1.8 2.67 0 0zm90.1-0.0449c-1.07 0.778-11.4 6.19-20 5.41-12-1.43-14.9 0.426-17.8 0.0625-11.7 1.74-24 7.76-37.8 5.4-3.5 0.449-5.74-3.98-9.29-1.47 0.91 1.87 5.97 4.99 10.4 8.19 17.1 11.4 39.2 5.13 57.6 0.738-3.63-2.25-28.4 7.03-39.4 3.55-6.57-0.103-24.7-6.78-5.76-5.19 7.36-0.0529 15.4-1.76 13.2-0.903 8.28-2 15.8-2.1 20.3-3.22 4.49 2.68 26.1-8.67 17.3 0.82-0.966 5.28 7.26-5.42 11.5-11.6-0.506 2.76 2.04-2.08-0.232-1.78zm14.8-1.22c-3.98 8.15-12.7 18.5-11.7 27.3 2.48-8.84 15-17.9 11.7-27.3zm-98.6-1.49c-0.255 0.384-0.702 0.512 0 0zm-0.629-0.408c0.612 0.0825-1.8 0.585 0 0zm0.727-0.844c-9.01 3.42-15.9 16.3-9.09 21.2 4 7.78 5.28-3.94 5.26-0.229-5.7-5.94-3.45-12.9 2.18-18.2 0.866-0.491 2.99-1.97 1.65-2.78zm91.9-0.533c-0.384 2.85 0.471 6.98 0 0zm-8.68-7.07c0.434 2.59 8.56 10.1 4.55 18.3 7.29-5.25 4.26-16.9-4.55-18.3zm-110 5.2c-0.775 10.7 11.2 17.7 2.51 4.17-0.619-1.42-0.776-3.56-2.51-4.17zm-3.39-1.03c0.323 4.85 2.04 5.47 0 0zm-16.7-25.2c8.07 1.89 1.15 17.3-1.26 3.7 1.19-0.843 0.921-2.48 1.26-3.7zm160-0.486c-0.0703 1.37-0.222 1.78 0 0zm-167-3.25c0.251 9.17 6.66 14.9 11.6 17.4 2.06 5.3 1.8 4.37 3.69 9.47-7.23-7.44-21.7-14.6-15.3-26.9l-0.00007 0.00002zm-3.59-2.08c2.11 5.44-6.34 1.28 0 0zm11-1.28c4.22 8.58-1.71 3.61 0 0zm-10.6-0.121c-9.19 1.63 2.38 11.2 0 0zm83.4-4.67c0.608 3.25-0.471 1.27 0 0zm-0.0449-1.42c-3.74 8.4 6.09 14.7 0 0zm-19.1-4.91c-6.68 5.1-25.9 0.846-8.2 4.56 1.87 0.819 11-1.58 8.2-4.56zm-22.2-3.21c-2.61 0.309-2.05 0.355 0 0zm10.9-1.08c4.43 0.038 2.53 0.427 0 0zm-4.36-0.559c9.91-0.356-2.19 2.39 0 0zm-6.61-0.35c12.6 2.13 3.72 3.31-1.96 0.521l1.96-0.521zm17.6-0.455c0.758-0.0539 0.0166 0.101 0 0zm77.4-0.275c-7.03 4.07-28.8 1.49-10.6 5.1 2.3 0.598 13.8-2.31 10.6-5.1zm41.1-0.938c8.49 1.96 1 23.2-5.14 25.6-8.12 5.88 3.05-18.3 5.61-21.5l-0.545-3.07 0.0742-1.06h-0.00006zm-117-0.902c-0.32 0.532-2.55 3.19 0 0zm114-1.06c1.5 8.24-1.49 9.26 0 0zm-130-0.529c1.79 4.27 3.6 3.41 0 0zm129-0.959c-4.17 13.4 6.37 11.5 0 0zm-134-0.521c0.473 1.64 0.202 0.0643 0 0zm4.45-0.002c-4.4 0.312 8.22 6.85 1.6 5.98-2.95-2.71-7.8 1.59-1.6-5.98zm95-0.971c-2.02 1.53 0.176 2.14 0 0zm-74.6-0.99c-1.52 0.489 1.46 3.34 0 0zm-15.5-0.0645c-0.0145 0.082-0.464 0.0117 0 0zm-0.697-0.0859 0.314 0.104-0.314-0.104zm88.6-0.117c0.422 0.125-1.92 0.0699 0 0zm41.6-0.145c8.31 0.738 1.99 3.81 0 0zm-151-3c0.624 0.142 0.586 0.185 0 0zm7.34-0.113c-7.79 1.14-1.53 0.0971 0 0zm81.8-0.398c4.21 1.33 4.65 1.64 0 0zm-52.2-0.934c5.75 6.38-6.73 12.9-0.576 2.23l0.14-1.6 0.436-0.624 0.00005-0.00004zm-14.2-0.141c2.09 2.72-2.23 1.65 0 0zm127-0.219c3.26 8.94 15.3 2.17 1.75 0.689l-1.75-0.689zm-126-0.0234c0.697 3.39 0.266-0.0542 0 0zm0.125-0.701c-7.53 4.47 3.34 4.93 0 0zm91.9-1.52c4.35 3 1.48 5.91 0 0zm-62.1-0.945c0.108 1.66 5.08 7.31 0 0zm37.3-0.0274c1.26 3.72 2.73 6.49-1.9 2.65 0.279-1.13 1.2-1.81 1.9-2.65zm20.3-0.459c-0.522 2.47-0.603 2.52 0 0zm31.3-0.645c-0.44 1.54 0.542 3.67 0 0zm-149-1.61c-1.39 1.59 0.268 2.48 0 0zm104 0c1.98 1.46-5.02 1.34 0 0zm-48.9-1.67c2.87 3.29 4.59 2.99 0 0zm70.2-0.896c0.866 4.32 3.02 4.09 0 0zm11.8-2.21c-0.546 0.35-2.88 0.967 0 0zm-104-1c-4.84 1.38-5.88 1.33 0 0zm108-0.205c-2.5 0.745-0.587 1.85 0 0zm-104-0.279c-0.616 0.271-5.12 0.505 0 0zm-29.2-3.16c-4.98 5.26-1.13 0.618 0 0zm47.9-0.594c-2.74 2.53-2.82 3.4 0 0zm30.5-3.7c2.08 0.191-0.147 1.04 0 0zm-27.9-0.451c-0.64 0.868-0.156 0.111 0 0zm-0.785-0.125c-0.0137 0.903-0.0957 0.0284 0 0zm30.8-3.73c1.76 2.66-2.58 2.08 0 0zm-31.6-0.924c-0.434 0.525-0.537 0.551 0 0zm-20.7-0.67c-11.2 0.759 11.2 0.682 0 0zm16.8-0.439c-0.0867 0.134-0.49 0.163 0 0zm1.21-0.041c3.05 2.85 0.535 0.408 0 0zm87.2-1.13c0.52 1.69 5.52 4.62 0 0zm-91.4-0.389c-6.47 1.5-0.065 1.35-5.62 1.16-5.97 2.54-26 1.33-28.8 5.76-8.87 5.63-17.7 11.9-13.1 21.2-1.22 4.8 16.4-0.611 15.8 7.06 4.83-4.85-2.8 10 7.78 6.33 2.94 1.85 24.2 1.41 26.6-8.78 7.63 7.62-15.5 26.4 0.625 14 5.28-12.2 5.36-2.69 10.9 1.51 4.12-11.5-2.93-30.5-15.5-28.8-8.37-0.575-26.2-2.8-8.12-4.47 8.5 2.22 14.6-4.43 19.3-5.93-1.13-3.64-0.428-3.57-4.49-7.17-3.59-1.82-2.75 0.648-5.4-1.88zm43.7-1.27c0.286 0.191 0.388 0.301 0 0zm42.5-2.34c1.96 2.12 3.88 2.3 0 0zm-14-3.51c-10 1.84 4.97-0.0649-6.86 1.51-11.7 2.43-10.5-0.114-19.9 3.59-0.98-0.675-6.71 5.6-5.87 2.92-2.21 1.1-6.4 6.46 0.295 10.2-0.0978 3.59 11.1 0.737 4.01 3.03-2.31 0.796-7.06 4.45-8.68 8.29-2.89 4.6-4.76 14.3-1.9 24.6-0.46 2.6 7.9 17.4 3.49 2.19-3.39-8.08-1.4-19.8 5.05-6.19 6.44 6.46 13.4 5.17 3.23-1.12-9.51-18.3 21.4 2.9 25.7-10.3-8.42-3.35 2.42-7.89 4.4-0.254 3.46-4.87-3.3-15.5 3.43-13.1 10.9 1.96 20.6-5.69 15.6-13.4-11.5-11.8-13.2-10.4-19.4-11.7l-2.59-0.153 0.00022 0.00008zm28.8-13.5c1.6 1.54 0.004 1.01 0 0zm-150-0.0371c2.32 0.179 1.11 0.176 0 0z"/>
 </g>
 <g id="layer1" transform="translate(0 48.6)">
  <path id="path11531" d="m318 245l-103 80.7 103-80.7zc-5.41 19.9-15.9 38.4-29.1 54-12.4 13-32.6 13.6-49.3 11.2-13.7-5.1-26.1-14.3-36.2-24.8-3.23-5.04-12.5-21.2-14-12 6.74 20.5 11.2 42.6 9.3 64.2-8.87 15.6-27.9 21.2-43.7 27.4-30.3 9.61-64 11.5-90.5 30.3-8.29 4.6-22.6 29-13.6 30.7 2.91-9.3 10.7-26.4 17.5-9.05 4.41 4.2 11.8 31.2 7.65 13-0.673-13.6-25.7-23.4-4.96-32.3 32.9-20.3 74-18.8 108-36.7-1.84 4.94-5.88 14.8 0.725 4.28 6.36-6.92 14.8-18.7 19.9-22.9-5.41 13-25 24.4-11.4 39.6 10.5 11.3 27.1 16.2 41.8 20.2 18.8 1.75 39.5 3.72 56.8-5.3 11.3-10 26.5-19.2 29.9-34.9 3.43-6.96-18-23.6-3.08-11.9 6.82 2.72 10.4 12 8.75 16.2 0.875-19.2 18.8 1.21 29.5 0.966 23.2 7.92 48.1 13 69 26.4 14.3 7.74 17.4 25.7 26.6 35.8 1.06-19.8-14.3-37.4-31.7-45.4-28.9-14-61.4-18.9-90.4-32.6-7.59-4.33-16.2-8.7-20.3-16.6-0.238-12.9-3.8-26.1-1.74-38.6-1.65-9.94 4.93-17.2 9.93-24.8 5.29-7.97 8.26-17.6 8.5-27.2-1.32 0.27-2.64 0.539-3.96 0.809zm-118 41.6c16.5 13.3 34.7 30.3 57.8 27.4 16.1-0.786 32.1-7.67 40.7-22 1.9 9.15-1.83 34.3 2.82 48.8 0.186 7.67 4.4 25.8 6.51 10.4 17 8.31-0.875 27.2-10.2 33.8-9.97 11.7-25.6 15.8-40.5 15-18.1 1.07-36.2-2.93-52.2-11.6-14.2-1.66-28.6-22.5-11.1-31 8.32-11.6 2.54 13.7 7.34 0.373 5.13-23.2 3.93-48.2-1.02-71.1z" fill-rule="evenodd" fill="#323232"/>
 </g>
 <g id="layer8" transform="translate(0 48.6)">
  <path id="path11704" d="m242 5c-6.97 3.39-9.81 17.8-19.5 14.8-7.2-3.18-15.7 0.356-21.6 4.4-9.85-4.51 12.6-4.6 1.61-7.09-6.51 2.84-16-0.973-20 4.47 17.1 1.83-6.82 5.47-8.4 12.8-1.31 2.2-14.1 3.95-6.99 6.34 8.99-4.45-3.58 14.8-1.85 19.8-10.2-2.38-4.08-5.36 0.434-8.5-7.38-4.19-10.8 10.9-15.9-0.893-12.5-3.65 9.28 7.9-2.61 8.07-2.83 9.28-14.7 3.02-14.2 14.4-3.02 7.94 10.3 12.9 0.592 16.8 1.05 15-11.5 0.765-4.64-5.83-11.6 1.93 2.22 15.6-3.98 19.7-3.79 7.42 0.333 8.83 3 1.65 7.46-7.04 8.03-2.33 1.9 3.34-5.1 5.93-16.6 10.3-12.5 21-8.41 3.06-7.26 8.91 0.207 3.09 5.33-1.61 9.04 5.24 3.89 9.5 3.51 10.5-8.24 1.54-3.87-4.06-11.1 2.49 2.21 17.4 10.2 13.5 1.35 4.54-11.2 16.3-4.12 17.2 1.88-9.74 7.93-6.57 6.97 1.18 0.668 8.24 1.13 11.1-2.07 18.3-1.36 7.38 13 8.49 10.1 15.2-6.52-11.8-7.53 7.97 3.1 5.6 5.61 3.1 1.44 2.41-0.681 2.44-6.51 10.1 7.21 10.1 13.5 8.66 3.3 6.26 9.19 12.8-0.716 8.28 1.56 4.94 2.46 7.07 2.2 10.6 1.11 7.72 15.7 3.08 15 13.8-10.5 8.57 1.21 15.6 10.5 15.2-1.35 7.9 10.1 11.4 4.86 3.1 4.69-0.712 4.36 7.43 9.88 0.924-5.44-13.2-10.8-26.3-14.2-40.2-3.87-12.4-7.91-24.9-11.5-37.4-1.3-7.46 2.8-15.3 0.824-18.2-0.432-3.37-0.152-9.26-3.77-5.9 1.48-5.46 5.62-19.5 4.42-21.7-4.62 11.8 0.245-8.57 3.34-11.8-0.64-7.86 9.84-10.6 9.43-17.6-5.37 11.5-3.72-0.737-2.74-4.99 10.5-1.14 6.45-19.6 18.6-10.1 13.2-5.18 22.3 3.05 33.4 7.39 13.4 7 23.9-6.28 34.2-8.38 8.56 1.38 13.2-8.07 19.4 0.911 9.02 2.94 15.5-9.63 21.3 0.381 13.2-1.84 18.4 13.3 20.1 23.7-4.84-5.22 5.7 12-2.77 2.96 5.02 7.47 4.43 5.99-1.13 2.09 5.49 4.24 8.01 21.8 0.701 17.1 6.2 12.7 2.19 26 2.12 39.4-3.32 13.5-4.91 27.2-6.14 41-2.28 7.5-6.01 26.2 1.51 12.3 6.71 1.76 7.78-6 5.54-6.78 1.5-3.54 16.5-4.41 11-9.22-7.12 2.27-7.43 2.31-1.62-2.1-0.606-7.81 5.66-13.8 4.68-22.2 4.1-8.05 3.8 5.55 7.2 5.86 1.17-5.18 1.4-13.2 4.39-18.7-2.82-8.42 0.434-13.1 7.28-17.4 8.62-2.8 8.24-17.1 0.763-12.6-3.21-7.2 4.9-15 2.78-20.1-11.7 2.33-0.432-10.5 4.47-12.6 3.53-12.2-3.06-0.241-7.95 1.69-1.07-9 10.2-14.7 4.92-21.5-5.27-4.66 3.09-14.6-3.85-19.2-0.0336 2.77-0.325 23.8-6 10.4-1.47-8.51-1.02-16.8-1.9-23.9-1.81 6.85-5.4 4.07-5.74-2.72-8.86-6.5 9.65-0.672 0.357-6.17-2.35-2.47-5.16-16-5.52-4.83 0.105 10.5-9.67-7.3-6.81-6.01 8.29-4.41-13-5.72-6.86-13.9-3.45-7.68-7.94-9.1-16.5-9.61 1.14-7.63-7.46-14.3-14.1-8.8-7.7 1.19-14.4-7.08-22.5-7.19-11.7 7.51-2.65-7.08-10.2-11-6.5-2.65 7.1 16-3.29 8.49-8.16-6.01-14.7 10.8-20.1 1.46 2.76-3.03 11.7-8.89 1.11-5.5-6.63 5.96-8.08 1.32-1.38-4.1l-0.359-0.432-1.26-0.109zm18.9 12.8c5.29 2.43-1.28 4.4 0 0zm-22.3 0.822c2.78 1.63-1.32 0.672 0 0zm-44.3 5.29c9.86 4.6-9.31 5.64 0 0zm111 4.71c4.5 3.54 0.248 3.03 0 0zm-116 1.28c8.01 1.62-4.98 14-1.03 2.12 0.22-0.723 0.355-1.64 1.03-2.12zm122 0.0254c0.568 4.09-0.449 1.58 0 0zm-126 0.986c0.219 6.01-11.6 7.64 0 0zm-1.05 7.32c0.851 1.55-5.27 5.2 0 0zm143 5.19c1.46 1.56-1.46 1.56 0 0zm7.6 10.8c2.78 0.967-2.78 0.967 0 0zm-183 8.07c-2.61 5.54-7.09 5.51 0 0zm-10.8 4.35c4.07 3.09-3.58 21.8-5.1 7.38 1.23-2.7 1.39-6.86 5.1-7.38zm10.5 9.62c-0.291 2.53-3.58 1.33 0.00005 0h-0.00005zm199 7.96c2.07 1.6-2.77 1.28 0 0zm-212 6.47c2.31 6.89-4.32 6.4 0 0zm165 0.342c2.49 9.58-18.9 14.7-16.9 6.45 6.73 0.468 12-2.13 16.9-6.45zm-3.82 1.26c-2.7 8.41-24.2-1.12-7.17 0.943 2.42-0.06 4.76-0.753 7.17-0.943zm-59.8 1.22c9.59 3.06 3.65 8.33-2.81 4.72-0.734-2.24 0.589-4.2 2.81-4.72zm36.3 0.369c4.59 2.36-5.2 2.08 0 0zm-41.9 2.8c2.26 3.28-4.18 0.964 0 0zm-34.7 0.434c7.83 3.29 6.84 6.73-1.58 3.57-1.41-1.34 0.414-3.03 1.58-3.57zm-5.33 0.9c3.12 3.16-2.95 1.17 0 0zm114 2c3.83 1.3 0.367 2.02 0 0zm-120 2.27c3.99 6.18-11.3 13-2.59 4.15 1.32-1.06 2.04-2.6 2.59-4.15zm35.2 0.279c3.11 1.14-2.37 0.944 0 0zm35.6 0.117c-2.35 4.68-4.56 1.24 0 0zm-33.4 4.26c6.8 1.8 9.01 7.09 0.752 1.63l-1.51-1.31 0.758-0.322v-0.00002zm23.5 0.0215c2.37 0.94-3.11 1.14 0 0zm108 2c1.46 1.57-1.46 1.56 0 0zm-230 7.92c3.38 1.27-4.91 10.4-5.25 11.3-0.945-4.55 0.787-9.54 5.25-11.3zm3.01 23.5c-0.629 5.43-4.9 5.62-0.00003-0.00003l0.00003 0.00003zm5.43 32.5c4.43 9.11-4 3.95 0 0zm199 7.62c5.3 0.549 13.4 6.01 3.63 4.33-1.33-1.04-3.47-2.61-3.63-4.33zm-200 4.15c5.14 0.622-1.38 5.09 0 0zm198 0.748c5.59 4.64-2.31 14.9-0.588 3.29 0.519-0.762-0.694-2.93 0.588-3.29zm-192 1.51c2.53 4.78-4.65 4.3 0 0zm196 1.34c11.2-0.415 0.581 13.7 2.18 20.3-1.9 5.29-14.9 14.7-9.44 2.56-0.004-9.52 9.99-13.7 7.26-22.8zm-178 9.06c1.46 1.47-2.59 0.482 0 0zm-8.06 4c3.62 2.45-3.52 2.12 0 0zm-6.73 0.799c4.28 4.29-4.09 2.88 0 0zm25.6 3.68c1.98 9.36 7.91 28.1 7.68 32.2-8.2-7.7-22.8-16.7-15.8-29.7 4.61 3.83 2.59 17 9.24 15.9-9.67-5.51 2.37-11.6-2.44-17l0.503-0.775 0.807-0.65h-0.00001zm-10.9 1.15c3.81 10.7-9.64 1.44 0 0zm-9.83 3.17c2.09 1.26-2.64 1.58 0 0zm178 23.2c-1.74 2.79-0.125 0.556 0 0zm-164 3c3.29 1.38-2.75 1.03 0 0zm163 2.83c-2.65 3.56-0.299 0.665 0 0zm-154 4.37c4.92 1.89-1.04 2.87 0 0zm8.4 4.4c1.15 2.46-2.37 2.81 0 0zm-8.32 11.2c5.49 3.16-7.31 3.31 0 0z" fill-rule="evenodd" fill="#323232"/>
 </g>
 <g id="layer7" fill-rule="evenodd" transform="translate(0 48.6)" fill="#323232">
  <path id="path11260" d="m247 332c1.22 9.29 22.3 4.57 6.16 4.85-2.53-0.961-4.11-3.24-6.16-4.85z"/>
  <path id="path11258" d="m311 385c-3.43 4.28-16 16.2-14.4 15.9 4.83-4.36 19.6-19.1 17.5-18.9l-1.41 1.37-1.62 1.67z"/>
  <path id="path11256" d="m154 383c-0.915 1.58 2.92-1.34 0 0z"/>
  <path id="path11254" d="m150 384c-21.7 7.33-44.6 10.3-66.6 16.7-5.36 1.72-13.9 6.36-14.7 10.8 11.2-12.4 29.5-12.8 44.7-16.4 13.2-3.32 26.7-6.12 39.3-11.5l-0.692-0.0576-2 0.408z"/>
  <path id="path11252" d="m382 387c3.1 0.623 0.595-0.644 0 0z"/>
  <path id="path11250" d="m386 388c3.99 0.6 0.781-0.611 0 0z"/>
  <path id="path11248" d="m390 388c3.99 0.6 0.781-0.611 0 0z"/>
  <path id="path11246" d="m393 389c5.19 1.4 20.9 8.62 8.2 2.21-2.17-0.451-6.73-3.45-8.2-2.21z"/>
  <path id="path11244" d="m193 392c8.89 4.2 15.3 12.8 25 15.8 3.97 2.8 30 4.39 14 2.41-12.2-2.78-22.6-9.97-33-16.2-2.27 0.526-4.39-1.72-5.98-2.02z"/>
  <path id="path11242" d="m417 396c-7.96 7.34-5.08 23.3-4.88 30.8-0.104-10.1 0.64-25 4.88-30.8z"/>
  <path id="path11240" d="m280 409c3.51 0.581 0.726-0.617 0 0z"/>
  <path id="path0-7" d="m272 410c4.58 0.37 3.91-0.463 0 0z"/>
 </g>
 <g id="layer6" transform="translate(0 48.6)">
  <path id="path0-6" d="m297 146c-3.7 0.422-7.61 1.39-12.4 3.06-4.61 1.61-4.8 1.66-4.8 1.2 0-0.221 0.45-0.696 1-1.06 2.59-1.69 0.48-1.9-2.46-0.237-2.3 1.3-3.18 1.48-3.44 0.7-0.112-0.336-0.91-0.007-2.43 1-1.24 0.825-2.5 1.5-2.8 1.5-0.575 0-1.52 0.982-3.04 3.15-1.54 2.21-1.01 5.72 1.19 7.8 1.87 1.76 0.949 1.76 10.2 0.055 14.2-2.63 27.1-1.42 34.2 3.21 3.24 2.13 4.5 2.05 5.87-0.381 0.55-0.976 0.956-1.34 1.14-1.04 0.566 0.917 1.8-1.89 1.8-4.09 0-8.8-12-16.2-24-14.9m-75.7 8c0.134 0.349 0.623 0.779 1.09 0.957 0.464 0.177-2.45 0.225-6.48 0.105-7.82-0.231-12 0.161-17 1.59-13.4 3.81-24.7 17.4-19.1 22.9 1.95 1.9 2.34 1.8 6.57-1.64 2.75-2.24 9.24-5.77 15.7-8.54 4.94-2.12 12.4-3.42 21.9-3.84l5.5-0.239 1.74-1.93c2.5-2.78 2.75-9.05 0.323-8.17-0.292 0.105-1.3-0.258-2.24-0.808-1.99-1.16-2.24-1.21-2.24-0.399 0 0.33-0.045 0.598-0.1 0.596-0.055-0.003-0.984-0.273-2.06-0.6-2.64-0.8-3.88-0.787-3.57 0.037m43.2 2c-0.293 0.764 0.067 1.47 0.587 1.15 0.476-0.294 0.488-1.78 0.015-1.78-0.197 0-0.467 0.286-0.602 0.636m-30.2 1.26c0.005 0.801 0.103 0.947 0.363 0.536 0.196-0.31 0.264-0.805 0.151-1.1-0.324-0.846-0.521-0.63-0.514 0.564m51.2 9.94c-4.77 0.863-10.8 3.19-13.4 5.16-1.42 1.09-0.405 0.994 2.01-0.186 10-4.9 20-4.83 26.2 0.183 2.27 1.86 2.61 2.03 2.96 1.48 0.682-1.1-3.39-4.88-6.48-6.01-1.46-0.533-9.36-0.971-11.3-0.625m-19.1 2.26c-2.51 2.67-4.38 6-6.04 10.7-1.66 4.73-0.529 18 1.92 22.5 0.206 0.382 0.375 0.967 0.375 1.3s0.201 0.605 0.447 0.605c0.272 0 0.347-0.352 0.192-0.9-1.63-5.78-1.9-7.81-1.73-13.3 0.227-7.3 1.7-11.9 5.97-18.8 2.2-3.56 1.48-4.85-1.15-2.06m16.2 1.49c-4.61 0.813-11.9 5.97-13.4 9.43-1.08 2.59-0.386 4.56 1.42 3.99 0.852-0.27 1.14-1.01 0.391-1.01-0.235 0-0.37-0.405-0.3-0.9 0.179-1.26 1.32-1.16 1.35 0.11 0.031 1.53 0.394 1.86 2.35 2.12 0.987 0.135 2.57 0.589 3.51 1.01 3.64 1.62 4.61 1.86 7.52 1.86 3.4-0.002 6.13-0.653 8.9-2.12 2.79-1.48 2.56-2.23-0.572-1.87l-2.47 0.287 1.07-0.993c0.59-0.547 1.07-1.26 1.07-1.58 0-0.323 0.135-0.722 0.3-0.887s0.575-1.32 0.912-2.57c0.689-2.56 1.18-2.71 3.36-1.07 1.04 0.789 1.31 0.845 1.74 0.37 0.712-0.777-0.216-2.12-2.18-3.17-0.83-0.44-1.83-1.12-2.22-1.5-0.391-0.385-1.3-0.701-2.01-0.702-0.715-0.001-1.93-0.168-2.7-0.37-2.23-0.584-6.04-0.789-8.06-0.434m1.66 2.38c0 0.425-0.36 0.887-0.8 1.03-0.441 0.14-0.987 0.602-1.21 1.03-0.445 0.831-4.1 1.16-4.57 0.405-0.304-0.491 1.65-1.99 2.94-2.27 0.569-0.121 1.4-0.375 1.84-0.564 1.29-0.556 1.8-0.45 1.8 0.374m-51.6 0.227c0 0.125 0.247 0.627 0.549 1.11 0.302 0.487 0.869 1.88 1.26 3.09 0.392 1.21 1.02 2.92 1.39 3.8 0.373 0.88 1.17 3.04 1.78 4.8 1.86 5.43 2.37 6.25 3.47 5.57 0.393-0.243 0.118-3.67-0.431-5.37-0.177-0.55-0.556-1.81-0.841-2.8-1.23-4.26-7.17-12.7-7.17-10.2m-24.2 1.38c-8.88 1.98-13.4 4.98-14.4 9.52-0.47 2.24 0.373 2.46 2.27 0.603 3.16-3.11 4.42-1.79 1.72 1.79-1.28 1.69-1.64 2.45-1.33 2.81 0.782 0.942 1.36 0.496 3.44-2.66 2.31-3.5 3.28-4.26 3.28-2.56 0 6.26 9.72 8.98 14.4 4.02 1.73-1.84 2.82-4.38 2.82-6.54 0-1.82 0.019-1.84 1.1-1.57 1.81 0.453 2.18 0.98 1.89 2.68-0.202 1.19-0.119 1.58 0.376 1.77 1.76 0.676-0.281 3.77-3.48 5.28-1.95 0.917-5.9 1.91-9.06 2.28-2.83 0.329-3.43 0.754-1.42 1.01 6.38 0.801 13.2-1.75 15.2-5.65 0.523-1.03 1.3-1.94 1.76-2.06 1.38-0.361 1.1-2.44-0.481-3.54-0.715-0.5-1.39-1.01-1.5-1.13-1.82-1.99-7.25-4.02-10.8-4.02-3.4 0-3.86-0.766-0.532-0.875 9.22-0.301 14.3 1.73 15.7 6.28 0.278 0.88 0.681 1.83 0.895 2.12 1.4 1.85 0.336 10.5-1.62 13.2-1.25 1.7-0.857 1.65 1.08-0.146 3.85-3.56 5.29-10.2 3.18-14.7-0.81-1.72-4.83-5.85-5.7-5.85-0.197 0-0.836-0.34-1.42-0.755-2.96-2.11-11.1-2.7-17.5-1.27m58.7 0.525c-1.53 1.68-2.92 4.28-2.92 5.47 0 0.65-0.192 1.69-0.426 2.3-1.14 2.99 2.96 9.79 7.95 13.2 3.42 2.34 3.77 2.17 1.09-0.513-4.77-4.77-6.99-12.3-4.98-16.9 2.15-4.9 2.06-4.5 1.03-4.5-0.508 0-1.29 0.405-1.74 0.9m24.9 1.18c3.56 1.62-1.25 6.47-6.42 6.47-4.98 0-9.7-4.09-6.63-5.74 1.27-0.679 1.82-0.494 3.53 1.19 2.23 2.18 5.7 1.64 5.7-0.902 0-1.41 1.86-1.91 3.82-1.02m-15.5 2.35c0.365 1.66 0.809 2.46 1.9 3.41 2.06 1.8 1.47 2.32-1.55 1.37-0.675-0.212-1.68-0.477-2.23-0.589-0.938-0.19-2.4-2.1-2.4-3.14 0-0.649 2.89-3.52 3.38-3.36 0.226 0.075 0.626 1.11 0.888 2.3m23.3-0.544c0 0.213 0.36 0.713 0.8 1.11 0.44 0.398 0.8 1.15 0.8 1.66 0 0.516 0.18 0.938 0.4 0.938 0.574 0 0.494-1.97-0.102-2.53-1.15-1.08-1.9-1.54-1.9-1.18m-96 1.71c0 0.22-0.27 0.4-0.6 0.4s-0.6-0.18-0.6-0.4 0.27-0.4 0.6-0.4 0.6 0.18 0.6 0.4m4.97 0.208c0.992 0.75 0.273 2.31-1.46 3.18-1.93 0.96-2.43 0.426-1.44-1.52 1.19-2.34 1.65-2.6 2.9-1.65m-7.77 1.39c0 0.22-0.27 0.4-0.6 0.4s-0.6-0.18-0.6-0.4 0.27-0.4 0.6-0.4 0.6 0.18 0.6 0.4m25.2 1.17c0.414 0.773 0.188 2.03-0.365 2.03-0.643 0-1.62-1.52-1.39-2.14 0.341-0.889 1.25-0.831 1.75 0.113m-8.76 0.367c4.03 3.26-4.12 8.35-9.38 5.86-1.46-0.691-2.76-2.62-2.41-3.55 0.381-0.992 2.98-1.32 3.61-0.453 1.12 1.52 5.36 0.547 5.36-1.24 0-0.473 1.04-1.32 1.66-1.35 0.14-0.007 0.665 0.32 1.17 0.726m-19.2 7.82c-0.584 0.703 0.163 1.05 1.65 0.766 0.571-0.109 2.03 0.09 3.24 0.442 2.49 0.723 4.85 0.849 4.48 0.239-0.136-0.22-0.833-0.4-1.55-0.4-0.716 0-2.05-0.36-2.96-0.8-1.92-0.928-4.19-1.04-4.86-0.247m95.6-0.176c-2.04 1.12-7.79 2.82-9.55 2.82-0.47 0-0.854 0.18-0.854 0.4 0 1.42 9.7-1.19 11.2-3.02 0.523-0.631 0.136-0.727-0.817-0.203m-74.2 7.22c-1.5 0.697-1.53 0.742-0.5 0.77 0.605 0.017 1.1-0.15 1.1-0.37s0.27-0.4 0.6-0.4 0.6-0.18 0.6-0.4-0.045-0.387-0.1-0.37c-0.055 0.016-0.82 0.363-1.7 0.77m-5.09 1.49c0.719 0.089 1.8 0.087 2.4-0.004 0.601-0.091 0.013-0.164-1.31-0.162s-1.81 0.077-1.09 0.166m27 3.51c0.004 0.88 0.086 1.19 0.182 0.695 0.096-0.497 0.092-1.22-0.008-1.6-0.1-0.382-0.179 0.025-0.174 0.905m23.9 9.6c0.005 0.44 0.543 1.88 1.2 3.19 0.653 1.31 1.19 2.51 1.19 2.66 0 0.147 0.828 1.74 1.84 3.54 1.49 2.65 1.8 3.52 1.6 4.54-0.654 3.47-0.722 4.27-0.362 4.27 1.21 0 1.94-4.71 1.23-7.88-0.247-1.1-0.191-1.25 0.4-1.04 1.7 0.601 4.78 4.48 5.31 6.69l0.295 1.24 0.041-1.46c0.081-2.88-3-7.13-6.49-8.96-1.83-0.959-2.49-1.64-4.22-4.36-1.21-1.91-2.04-2.9-2.04-2.42m-23.2 4.67c-0.025 0.586-0.181 1.13-0.346 1.2-0.902 0.401-4.1 8.23-4.1 10 0 1.66 1.46 4.29 2.38 4.29 1.12 0 1.25-0.462 0.805-2.87-0.42-2.27-0.186-4.56 0.996-9.72 0.351-1.53 0.564-3.06 0.473-3.4-0.092-0.337-0.187-0.132-0.213 0.455m-5.25 5.56c0 0.236-0.81 1.68-1.8 3.21s-1.8 2.87-1.8 2.98c0 0.108-0.45 0.909-1 1.78-2.75 4.36 0.357 9.57 6.72 11.3 3.08 0.823 4.81-0.746 1.79-1.64-7.59-2.24-8.58-5.65-4.28-14.7 1.24-2.62 1.41-3.34 0.769-3.34-0.22 0-0.4 0.193-0.4 0.43m82.3 5.07c-0.096 0.165-0.304 1.38-0.463 2.7-0.27 2.25-1.81 7.64-2.57 9.01-1.16 2.08-0.829 3.96 0.434 2.49 2.12-2.47 4.93-14.5 3.39-14.5-0.342 0-0.701 0.135-0.796 0.3m-48.6 6.3c-1.1 0.605-2.81 2.57-2.83 3.26-0.071 2.3-10.1 7.17-13 6.32-0.226-0.066-0.894-0.226-1.48-0.355-0.591-0.128-1.18-0.578-1.32-0.998-1.07-3.38-9.13-8.08-12-6.99-1.79 0.686-0.217 3.32 2 3.34 0.795 0.009 1.78 0.481 2.8 1.34 8.04 6.79 15.6 6.58 22.6-0.624 2.9-2.96 2.82-2.92 3.96-2.21 1.06 0.665 2.15-0.019 2.32-1.46 0.239-2.01-1.11-2.72-3.09-1.63m30.3 3.78c3.57 2.82 4.35 6.48 2.47 11.6-1.07 2.93-0.331 3.88 1.15 1.48 3.39-5.5 2.67-11-1.75-13.3-3.42-1.8-4.31-1.68-1.87 0.242m-112 5.44c-0.012 0.674 0.443 2.19 1.01 3.36 1.26 2.62 3.77 6.4 3.77 5.68 0-0.524-2.39-5.28-2.84-5.66-0.133-0.111-0.619-1.19-1.08-2.4-0.736-1.93-0.841-2.05-0.859-0.975m124 4.08c-0.363 0.825-0.804 1.86-0.981 2.3-1.22 3.04-4.32 9.11-5.44 10.6-2.05 2.81-3.76 6.3-3.76 7.68 0 1.15 0.073 1.09 1.11-0.941 0.612-1.2 2.14-3.52 3.39-5.16 2.45-3.22 5.41-8.71 6.26-11.6 0.288-0.99 0.685-2.21 0.882-2.72 0.865-2.22-0.494-2.39-1.46-0.181m-104 0.53c-4.84 3.81-5.18 12-0.657 16.1 2.81 2.54 4.23 1.46 1.9-1.44-2.85-3.53-3.1-6.98-0.867-12.1 1.58-3.64 1.52-4.05-0.372-2.56m86.5 1.79c-6.04 4.32-7.33 4.74-19.6 6.37-5.27 0.701-9.47 1.28-13.2 1.8-1.43 0.202-4.22 0.572-6.2 0.822s-4.5 0.612-5.6 0.804c-2.19 0.382-8.72 1.08-12.2 1.3-4.97 0.318-11.9-0.906-16.7-2.94-0.495-0.211-1.3-0.544-1.8-0.74-0.495-0.196-1.52-0.633-2.28-0.971-1.33-0.592-2.02-0.565-2.02 0.078 0 0.167 1.19 1.06 2.64 1.98 7.36 4.69 16.9 5.56 32.1 2.9 2.8-0.492 7.09-1.14 16-2.42 1.48-0.213 5.04-0.668 7.9-1.01 10.7-1.28 14.4-2.03 17.3-3.48 1.51-0.761 1.47 1.43-0.047 2.54-0.192 0.139-0.282 0.456-0.2 0.703 0.083 0.247 0.916-0.677 1.85-2.05 0.936-1.38 2.6-3.48 3.7-4.67 3.42-3.71 2.76-4.13-1.6-1.01m-32 2.98c-0.33 0.213-1.47 0.391-2.53 0.394-1.37 0.004-1.88 0.151-1.76 0.506 0.271 0.773 3.83 0.501 5.89-0.451l1.8-0.831-1.4-0.003c-0.77-0.002-1.67 0.172-2 0.385m-66 8.53c0 1.53 1.83 6.58 2.97 8.21 1.54 2.19 10.6 11.1 10.9 10.7 0.163-0.164 0.107-0.423-0.124-0.576-0.232-0.153-1.44-1.72-2.68-3.48s-3.21-4.04-4.38-5.06c-2.09-1.83-4.3-5.44-4.3-7.04 0-0.41-0.165-0.916-0.366-1.12-0.202-0.209-0.427-0.828-0.5-1.38-0.185-1.38-1.53-1.62-1.53-0.272m34 5.47c0.776 0.501 1.2 0.501 1.2 0 0-0.22-0.405-0.397-0.9-0.394-0.728 0.005-0.785 0.08-0.3 0.394m2.4 0.8c0 0.22 0.405 0.397 0.9 0.394 0.728-0.005 0.785-0.08 0.3-0.394-0.776-0.501-1.2-0.501-1.2 0m3.9 1.08c0.497 0.096 1.22 0.092 1.6-0.008 0.382-0.1-0.025-0.179-0.905-0.174-0.88 0.004-1.19 0.086-0.695 0.182m7.41 0.815c1.72 0.075 4.42 0.074 6-0.001 1.58-0.076 0.182-0.138-3.12-0.137s-4.6 0.062-2.88 0.138" fill-rule="evenodd" fill="#323232"/>
 </g>
</svg>
