<svg width="14mm" height="14mm" viewBox="0 0 14 14" xmlns="http://www.w3.org/2000/svg"><path d="M8.1 7.4c0-.112.387-.395.86-.629l.86-.426-.86-.342c-.734-.292-1.17-.755-.717-.755.369 0 2.27 1.11 2.13 1.25-.322.322-2.28 1.1-2.28.902zm-3.64-.307c-.618-.275-1.12-.562-1.12-.637 0-.217 2.15-1.26 2.3-1.11.072.072-.265.336-.75.587l-.881.456.856.406c.471.223.857.503.857.622s-.03.208-.066.198c-.036-.01-.572-.244-1.19-.518zm2.09-.455c.561-1.53 1.02-2.3 1.02-1.72 0 .584-1.1 3.24-1.34 3.24-.133 0 .009-.685.316-1.52zm-2.12 3.74c.623-.597.981-.703 2.53-.746 3.33-.094 5.73-1.35 5.73-3.01 0-1.78-2.4-3.05-5.8-3.06-1.85-.007-2.35.098-3.7.773-2.54 1.27-2.8 2.85-.696 4.18.927.585 1.01.729.907 1.6-.133 1.14.071 1.19 1.04.259zm-1.71 2.37c-.097-.097-.176-.852-.176-1.68 0-1.34-.069-1.53-.662-1.8-.808-.368-1.72-1.79-1.72-2.69 0-1.17.92-2.28 2.56-3.08 1.39-.681 1.81-.758 4.19-.758s2.8.077 4.19.758c4.72 2.32 2.51 6.64-3.57 6.99-1.99.115-2.06.141-3.17 1.28-1.16 1.18-1.34 1.29-1.64.982z"/></svg>