<svg width="14mm" height="14mm" version="1.1" viewBox="0 0 14 14" xmlns="http://www.w3.org/2000/svg">
 <g transform="translate(-44.6 -90.3)">
  <path d="m52.7 97.7c0-0.112 0.387-0.395 0.86-0.629l0.86-0.426-0.86-0.342c-0.734-0.292-1.17-0.755-0.717-0.755 0.369 0 2.27 1.11 2.13 1.25-0.322 0.322-2.28 1.1-2.28 0.902zm-3.64-0.307c-0.618-0.275-1.12-0.562-1.12-0.637 0-0.217 2.15-1.26 2.3-1.11 0.0722 0.0722-0.265 0.336-0.75 0.587l-0.881 0.456 0.856 0.406c0.471 0.223 0.857 0.503 0.857 0.622s-0.0298 0.208-0.0661 0.198c-0.0364-0.0103-0.572-0.244-1.19-0.518zm2.09-0.455c0.561-1.53 1.02-2.3 1.02-1.72 0 0.584-1.1 3.24-1.34 3.24-0.133 0 9e-3 -0.685 0.316-1.52zm-2.12 3.74c0.623-0.597 0.981-0.703 2.53-0.746 3.33-0.0941 5.73-1.35 5.73-3.01 0-1.78-2.4-3.05-5.8-3.06-1.85-7e-3 -2.35 0.098-3.7 0.773-2.54 1.27-2.8 2.85-0.696 4.18 0.927 0.585 1.01 0.729 0.907 1.6-0.133 1.14 0.0714 1.19 1.04 0.259zm-1.71 2.37c-0.097-0.097-0.176-0.852-0.176-1.68 0-1.34-0.069-1.53-0.662-1.8-0.808-0.368-1.72-1.79-1.72-2.69 0-1.17 0.92-2.28 2.56-3.08 1.39-0.681 1.81-0.758 4.19-0.758s2.8 0.0772 4.19 0.758c4.72 2.32 2.51 6.64-3.57 6.99-1.99 0.115-2.06 0.141-3.17 1.28-1.16 1.18-1.34 1.29-1.64 0.982z" stroke-width=".265"/>
 </g>
</svg>
