<svg width="14mm" height="14mm" version="1.1" viewBox="0 0 14 14" xmlns="http://www.w3.org/2000/svg">
 <g transform="translate(-44.6 -90.3)">
  <g transform="translate(1 -1.18)">
   <path d="m52.5 97 1.75-1.39-1.76-0.078c-0.971-0.0429-2.63-0.0429-3.68 0l-1.92 0.078 1.71 1.38c0.939 0.759 1.81 1.38 1.93 1.39 0.125 5e-3 1.01-0.615 1.97-1.38zm2.38 0.0883-0.0803-1.32-2.73 2.27 2.73 2.74 0.0803-1.19c0.0442-0.653 0.0442-1.78 0-2.51zm-6.79 0.159c-2.11-1.78-1.89-1.89-1.89 1.03v2.61l2.86-2.82zm5 2.61c-1.32-1.34-1.46-1.41-1.96-1.06-0.465 0.326-0.618 0.326-1.11 4e-3 -0.533-0.349-0.663-0.279-1.99 1.06l-1.42 1.44h7.9zm-7.89-1.75 0.0742-3.56h10.6v7.67l-5.23 0.0718c-4.14 0.0568-5.12 0.0463-5.37 0.0233-0.0417-1.55-0.078-2.95-0.0541-4.21z" stroke-width=".265"/>
  </g>
 </g>
</svg>
