<svg width="14mm" height="14mm" viewBox="0 0 14 14" xmlns="http://www.w3.org/2000/svg"><path d="M6.6 9.5c0-1.94-.015-1.98-.661-1.98s-.661.044-.661 1.98c0 1.94.015 1.98.661 1.98s.661-.044.661-1.98zm1.85-1.34c0-.355-.119-.646-.265-.646s-.265.364-.265.809c0 .472.11.741.265.646.146-.09.265-.454.265-.809zm-.794.148c0-.882.088-1.06.529-1.06s.529.176.529 1.06c0 .882-.088 1.06-.529 1.06-.441 0-.529-.176-.529-1.06zm-2.91 1.06v-2.12h2.38v4.23h2.91v-5.56h-6.35v2.78c0 2.72-.179 2.78.529 2.78.674 0 .529-.011.529-2.12zm-1.85-.39c0-2.87-.03-3.05-.529-3.05-.291 0-.529-.113-.529-.251 0-.502 4.42-3.98 5.06-3.98.631.001 4.99 3.48 4.99 3.99 0 .135-.234.245-.52.245-.482 0-.526.218-.595 2.98l-.004 3.12-7.88.004z"/></svg>