<svg width="14mm" height="14mm" version="1.1" viewBox="0 0 14 14" xmlns="http://www.w3.org/2000/svg">
 <g transform="translate(-44.6 -90.3)">
  <path d="m51.2 99.8c0-1.94-0.0147-1.98-0.661-1.98s-0.661 0.0441-0.661 1.98c0 1.94 0.0147 1.98 0.661 1.98s0.661-0.0441 0.661-1.98zm1.85-1.34c0-0.355-0.119-0.646-0.265-0.646s-0.265 0.364-0.265 0.809c0 0.472 0.11 0.741 0.265 0.646 0.146-0.0899 0.265-0.454 0.265-0.809zm-0.794 0.148c0-0.882 0.0882-1.06 0.529-1.06s0.529 0.176 0.529 1.06c0 0.882-0.0882 1.06-0.529 1.06-0.441 0-0.529-0.176-0.529-1.06zm-2.91 1.06v-2.12h2.38v4.23h2.91v-5.56h-6.35v2.78c0 2.72-0.179 2.78 0.529 2.78 0.674 0 0.529-0.011 0.529-2.12zm-1.85-0.39c0-2.87-0.0306-3.05-0.529-3.05-0.291 0-0.529-0.113-0.529-0.251 0-0.502 4.42-3.98 5.06-3.98 0.631 1e-3 4.99 3.48 4.99 3.99 0 0.135-0.234 0.245-0.52 0.245-0.482 0-0.526 0.218-0.595 2.98l-0.0039 3.12-7.88 4e-3z" stroke-width=".265"/>
 </g>
</svg>
