<svg xmlns="http://www.w3.org/2000/svg">
  <symbol viewBox="0 0 1792 1792" id="github-alt"><path d="M704 1216q0 40-12.5 82t-43 76-72.5 34-72.5-34-43-76-12.5-82 12.5-82 43-76 72.5-34 72.5 34 43 76 12.5 82zm640 0q0 40-12.5 82t-43 76-72.5 34-72.5-34-43-76-12.5-82 12.5-82 43-76 72.5-34 72.5 34 43 76 12.5 82zm160 0q0-120-69-204t-187-84q-41 0-195 21-71 11-157 11t-157-11q-152-21-195-21-118 0-187 84t-69 204q0 88 32 153.5t81 103 122 60 140 29.5 149 7h168q82 0 149-7t140-29.5 122-60 81-103 32-153.5zm224-176q0 207-61 331-38 77-105.5 133t-141 86-170 47.5-171.5 22-167 4.5q-78 0-142-3t-147.5-12.5-152.5-30-137-51.5-121-81-86-115q-62-123-62-331 0-237 136-396-27-82-27-170 0-116 51-218 108 0 190 39.5t189 123.5q147-35 309-35 148 0 280 32 105-82 187-121t189-39q51 102 51 218 0 87-27 168 136 160 136 398z"></path></symbol>
  <symbol viewBox="0 0 1792 1792" id="linkedin"><path d="M477 625v991h-330v-991h330zm21-306q1 73-50.5 122t-135.5 49h-2q-82 0-132-49t-50-122q0-74 51.5-122.5t134.5-48.5 133 48.5 51 122.5zm1166 729v568h-329v-530q0-105-40.5-164.5t-126.5-59.5q-63 0-105.5 34.5t-63.5 85.5q-11 30-11 81v553h-329q2-399 2-647t-1-296l-1-48h329v144h-2q20-32 41-56t56.5-52 87-43.5 114.5-15.5q171 0 275 113.5t104 332.5z"></path></symbol>
  <symbol viewBox="0 0 1792 1792" id="rss"><path d="M576 1344q0 80-56 136t-136 56-136-56-56-136 56-136 136-56 136 56 56 136zm512 123q2 28-17 48-18 21-47 21h-135q-25 0-43-16.5t-20-41.5q-22-229-184.5-391.5t-391.5-184.5q-25-2-41.5-20t-16.5-43v-135q0-29 21-47 17-17 43-17h5q160 13 306 80.5t259 181.5q114 113 181.5 259t80.5 306zm512 2q2 27-18 47-18 20-46 20h-143q-26 0-44.5-17.5t-19.5-42.5q-12-215-101-408.5t-231.5-336-336-231.5-408.5-102q-25-1-42.5-19.5t-17.5-43.5v-143q0-28 20-46 18-18 44-18h3q262 13 501.5 120t425.5 294q187 186 294 425.5t120 501.5z"></path></symbol>
  <symbol viewBox="0 0 1792 1792" id="twitter"><path d="M1684 408q-67 98-162 167 1 14 1 42 0 130-38 259.5t-115.5 248.5-184.5 210.5-258 146-323 54.5q-271 0-496-145 35 4 78 4 225 0 401-138-105-2-188-64.5t-114-159.5q33 5 61 5 43 0 85-11-112-23-185.5-111.5t-73.5-205.5v-4q68 38 146 41-66-44-105-115t-39-154q0-88 44-163 121 149 294.5 238.5t371.5 99.5q-8-38-8-74 0-134 94.5-228.5t228.5-94.5q140 0 236 102 109-21 205-78-37 115-142 178 93-10 186-50z"></path></symbol>
</svg>
