<svg width="14mm" height="14mm" version="1.1" viewBox="0 0 14 14" xmlns="http://www.w3.org/2000/svg">
 <g transform="translate(-44.6 -90.3)">
  <g transform="translate(.522 -1.89)">
   <path d="m54.8 103c0.585-0.116 0.701-0.257 0.592-0.719-0.0742-0.316-0.432-2.05-0.795-3.86s-0.693-3.32-0.732-3.36c-0.0395-0.0395-0.207 0.0117-0.372 0.114-0.218 0.134-0.127 1.02 0.327 3.23 0.345 1.67 0.633 3.23 0.639 3.47 7e-3 0.263-0.478 0.649-1.25 0.993l-1.26 0.563 1.06-0.142c0.582-0.0779 1.39-0.207 1.79-0.286zm-7.34 1.68c-0.0977-0.282-1.72-8.61-1.72-8.83 0-0.0424 0.228-0.199 0.506-0.348 0.464-0.249 0.533-0.117 0.841 1.61 0.29 1.62 0.381 1.82 0.672 1.42 0.201-0.275 0.51-0.393 0.769-0.294 0.377 0.145 0.406 0.0217 0.226-0.959-0.368-1.74-0.551-2.15-0.445-2.47 0.0865-0.264 1.21-0.642 2.06-0.915 2.3-0.937 2.51-0.945 2.51-0.103 0 0.605 0.0924 0.669 0.851 0.595l0.851-0.0831 0.863 4.48c0.475 2.47 0.811 4.53 0.748 4.6-0.127 0.127-7.75 1.63-8.28 1.63-0.186 1e-3 -0.391-0.147-0.454-0.328z" stroke-width=".265"/>
  </g>
 </g>
</svg>
