<svg width="14mm" height="14mm" viewBox="0 0 14 14" xmlns="http://www.w3.org/2000/svg"><path d="M10.722 10.81c.585-.116.701-.257.592-.719-.074-.316-.432-2.05-.795-3.86s-.693-3.32-.732-3.36c-.04-.04-.207.012-.372.114-.218.134-.127 1.02.327 3.23.345 1.67.633 3.23.639 3.47.007.263-.478.649-1.25.993l-1.26.563 1.06-.142c.582-.078 1.39-.207 1.79-.286zm-7.34 1.68c-.098-.282-1.72-8.61-1.72-8.83 0-.042.228-.199.506-.348.464-.249.533-.117.841 1.61.29 1.62.381 1.82.672 1.42.201-.275.51-.393.769-.294.377.145.406.022.226-.959-.368-1.74-.551-2.15-.445-2.47.086-.264 1.21-.642 2.06-.915 2.3-.937 2.51-.945 2.51-.103 0 .605.092.669.851.595l.851-.083.863 4.48c.475 2.47.811 4.53.748 4.6-.127.127-7.75 1.63-8.28 1.63a.517.517 0 0 1-.454-.328z"/></svg>